{
.appVersion = "1348";
DisplayStrings = (
"\012ABCDEFGHIJKLMNOPQRSTUVWXYZ\012abcdefghijklmnopqrstuvwxyz\0120102030804050609070\012-­/endash/emdash/guilsinglleft/guilsinglright «»'\"!?.:/ellipsis ·,;/quotesinglbase/quoteleft/quoteright/quotedblbase/quotedblleft/quotedblright///backslash \012\012\012",

glyphs = (
{
glyphname = .notdef;
lastChange = "2020-09-14 10:19:36 +0000";
layers = (
{
background = {
paths = (
{
closed = 1;
nodes = (
"963 324 OFFCURVE",
"946 352 OFFCURVE",
"703 736 CURVE SMOOTH",
"317 1346 LINE",
"226 1172 LINE",
"323 1172 LINE",
"364 1050 OFFCURVE",
"381 1022 OFFCURVE",
"624 638 CURVE SMOOTH",
"1010 28 LINE",
"1101 202 LINE",
"1003 202 LINE"
);
},
{
closed = 1;
nodes = (
"654 768 LINE",
"604 712 LINE",
"383 359 OFFCURVE",
"365 326 OFFCURVE",
"325 204 CURVE",
"237 204 LINE",
"309 17 LINE",
"676 608 LINE",
"726 664 LINE",
"947 1017 OFFCURVE",
"965 1050 OFFCURVE",
"1006 1172 CURVE",
"1093 1172 LINE",
"1011 1343 LINE"
);
},
{
closed = 1;
nodes = (
"935 1374 OFFCURVE",
"821 1377 OFFCURVE",
"662 1377 CURVE SMOOTH",
"498 1377 OFFCURVE",
"384 1374 OFFCURVE",
"212 1366 CURVE",
"200 1354 LINE",
"200 6 LINE",
"212 -6 LINE",
"384 -14 OFFCURVE",
"498 -17 OFFCURVE",
"662 -17 CURVE SMOOTH",
"821 -17 OFFCURVE",
"935 -14 OFFCURVE",
"1107 -6 CURVE",
"1119 6 LINE",
"1119 1354 LINE",
"1107 1366 LINE"
);
},
{
closed = 1;
nodes = (
"942 87 OFFCURVE",
"750 100 OFFCURVE",
"662 100 CURVE SMOOTH",
"573 100 OFFCURVE",
"388 87 OFFCURVE",
"299 78 CURVE",
"325 274 OFFCURVE",
"329 368 OFFCURVE",
"329 680 CURVE SMOOTH",
"329 992 OFFCURVE",
"325 1086 OFFCURVE",
"299 1282 CURVE",
"388 1273 OFFCURVE",
"573 1260 OFFCURVE",
"662 1260 CURVE SMOOTH",
"750 1260 OFFCURVE",
"942 1273 OFFCURVE",
"1030 1282 CURVE",
"1004 1084 OFFCURVE",
"1000 991 OFFCURVE",
"1000 680 CURVE SMOOTH",
"1000 369 OFFCURVE",
"1004 276 OFFCURVE",
"1030 78 CURVE"
);
}
);
};
layerId = UUID0;
paths = (
{
closed = 1;
nodes = (
"1023 0 LINE SMOOTH",
"1083 0 OFFCURVE",
"1119 35 OFFCURVE",
"1119 96 CURVE SMOOTH",
"1119 1274 LINE SMOOTH",
"1119 1335 OFFCURVE",
"1083 1370 OFFCURVE",
"1023 1370 CURVE SMOOTH",
"296 1370 LINE SMOOTH",
"236 1370 OFFCURVE",
"200 1335 OFFCURVE",
"200 1274 CURVE SMOOTH",
"200 96 LINE SMOOTH",
"200 35 OFFCURVE",
"236 0 OFFCURVE",
"296 0 CURVE SMOOTH"
);
},
{
closed = 1;
nodes = (
"676 608 LINE",
"726 664 LINE",
"947 1017 OFFCURVE",
"965 1050 OFFCURVE",
"1006 1147 CURVE",
"1093 1127 LINE",
"1011 1343 LINE",
"654 768 LINE",
"604 712 LINE",
"383 359 OFFCURVE",
"365 326 OFFCURVE",
"325 229 CURVE",
"237 249 LINE",
"309 17 LINE"
);
},
{
closed = 1;
nodes = (
"1101 247 LINE",
"1003 227 LINE",
"963 324 OFFCURVE",
"946 352 OFFCURVE",
"703 736 CURVE SMOOTH",
"317 1346 LINE",
"226 1127 LINE",
"323 1147 LINE",
"364 1050 OFFCURVE",
"381 1022 OFFCURVE",
"624 638 CURVE SMOOTH",
"1010 28 LINE"
);
},
{
closed = 1;
nodes = (
"325 304 OFFCURVE",
"329 368 OFFCURVE",
"329 680 CURVE SMOOTH",
"329 987 OFFCURVE",
"325 1069 OFFCURVE",
"304 1262 CURVE",
"388 1257 OFFCURVE",
"472 1250 OFFCURVE",
"662 1250 CURVE SMOOTH",
"852 1250 OFFCURVE",
"942 1257 OFFCURVE",
"1025 1262 CURVE",
"1004 1067 OFFCURVE",
"1000 986 OFFCURVE",
"1000 680 CURVE SMOOTH",
"1000 369 OFFCURVE",
"1004 306 OFFCURVE",
"1025 108 CURVE",
"941 117 OFFCURVE",
"852 120 OFFCURVE",
"662 120 CURVE SMOOTH",
"472 120 OFFCURVE",
"388 117 OFFCURVE",
"304 108 CURVE"
);
}
);
width = 1319;
},
{
background = {
paths = (
{
closed = 1;
nodes = (
"859 324 OFFCURVE",
"842 352 OFFCURVE",
"599 736 CURVE SMOOTH",
"213 1346 LINE",
"122 1172 LINE",
"219 1172 LINE",
"260 1050 OFFCURVE",
"277 1022 OFFCURVE",
"520 638 CURVE SMOOTH",
"906 28 LINE",
"997 202 LINE",
"899 202 LINE"
);
},
{
closed = 1;
nodes = (
"550 768 LINE",
"500 712 LINE",
"279 359 OFFCURVE",
"261 326 OFFCURVE",
"221 204 CURVE",
"133 204 LINE",
"205 17 LINE",
"572 608 LINE",
"622 664 LINE",
"843 1017 OFFCURVE",
"861 1050 OFFCURVE",
"902 1172 CURVE",
"989 1172 LINE",
"907 1343 LINE"
);
},
{
closed = 1;
nodes = (
"831 1374 OFFCURVE",
"717 1377 OFFCURVE",
"558 1377 CURVE SMOOTH",
"394 1377 OFFCURVE",
"280 1374 OFFCURVE",
"108 1366 CURVE",
"96 1354 LINE",
"96 6 LINE",
"108 -6 LINE",
"280 -14 OFFCURVE",
"394 -17 OFFCURVE",
"558 -17 CURVE SMOOTH",
"717 -17 OFFCURVE",
"831 -14 OFFCURVE",
"1003 -6 CURVE",
"1015 6 LINE",
"1015 1354 LINE",
"1003 1366 LINE"
);
},
{
closed = 1;
nodes = (
"838 87 OFFCURVE",
"646 100 OFFCURVE",
"558 100 CURVE SMOOTH",
"469 100 OFFCURVE",
"284 87 OFFCURVE",
"195 78 CURVE",
"221 274 OFFCURVE",
"225 368 OFFCURVE",
"225 680 CURVE SMOOTH",
"225 992 OFFCURVE",
"221 1086 OFFCURVE",
"195 1282 CURVE",
"284 1273 OFFCURVE",
"469 1260 OFFCURVE",
"558 1260 CURVE SMOOTH",
"646 1260 OFFCURVE",
"838 1273 OFFCURVE",
"926 1282 CURVE",
"900 1084 OFFCURVE",
"896 991 OFFCURVE",
"896 680 CURVE SMOOTH",
"896 369 OFFCURVE",
"900 276 OFFCURVE",
"926 78 CURVE"
);
}
);
};
guideLines = (
{
position = "{225, 680}";
}
);
layerId = UUID1;
paths = (
{
closed = 1;
nodes = (
"971 0 LINE SMOOTH",
"1031 0 OFFCURVE",
"1067 35 OFFCURVE",
"1067 96 CURVE SMOOTH",
"1067 1274 LINE SMOOTH",
"1067 1335 OFFCURVE",
"1031 1370 OFFCURVE",
"971 1370 CURVE SMOOTH",
"244 1370 LINE SMOOTH",
"184 1370 OFFCURVE",
"148 1335 OFFCURVE",
"148 1274 CURVE SMOOTH",
"148 96 LINE SMOOTH",
"148 35 OFFCURVE",
"184 0 OFFCURVE",
"244 0 CURVE SMOOTH"
);
},
{
closed = 1;
nodes = (
"624 608 LINE",
"674 664 LINE",
"895 1017 OFFCURVE",
"913 1050 OFFCURVE",
"954 1147 CURVE",
"1041 1127 LINE",
"959 1343 LINE",
"602 768 LINE",
"552 712 LINE",
"331 359 OFFCURVE",
"313 326 OFFCURVE",
"273 229 CURVE",
"185 249 LINE",
"257 17 LINE"
);
},
{
closed = 1;
nodes = (
"1049 247 LINE",
"951 227 LINE",
"911 324 OFFCURVE",
"894 352 OFFCURVE",
"651 736 CURVE SMOOTH",
"265 1346 LINE",
"174 1127 LINE",
"271 1147 LINE",
"312 1050 OFFCURVE",
"329 1022 OFFCURVE",
"572 638 CURVE SMOOTH",
"958 28 LINE"
);
},
{
closed = 1;
nodes = (
"273 304 OFFCURVE",
"277 368 OFFCURVE",
"277 680 CURVE SMOOTH",
"277 987 OFFCURVE",
"273 1069 OFFCURVE",
"252 1262 CURVE",
"336 1257 OFFCURVE",
"420 1250 OFFCURVE",
"610 1250 CURVE SMOOTH",
"800 1250 OFFCURVE",
"890 1257 OFFCURVE",
"973 1262 CURVE",
"952 1067 OFFCURVE",
"948 986 OFFCURVE",
"948 680 CURVE SMOOTH",
"948 369 OFFCURVE",
"952 306 OFFCURVE",
"973 108 CURVE",
"889 117 OFFCURVE",
"800 120 OFFCURVE",
"610 120 CURVE SMOOTH",
"420 120 OFFCURVE",
"336 117 OFFCURVE",
"252 108 CURVE"
);
}
);
width = 1215;
},
{
background = {
paths = (
{
closed = 1;
nodes = (
"859 324 OFFCURVE",
"842 352 OFFCURVE",
"599 736 CURVE SMOOTH",
"213 1346 LINE",
"122 1172 LINE",
"219 1172 LINE",
"260 1050 OFFCURVE",
"277 1022 OFFCURVE",
"520 638 CURVE SMOOTH",
"906 28 LINE",
"997 202 LINE",
"899 202 LINE"
);
},
{
closed = 1;
nodes = (
"550 768 LINE",
"500 712 LINE",
"279 359 OFFCURVE",
"261 326 OFFCURVE",
"221 204 CURVE",
"133 204 LINE",
"205 17 LINE",
"572 608 LINE",
"622 664 LINE",
"843 1017 OFFCURVE",
"861 1050 OFFCURVE",
"902 1172 CURVE",
"989 1172 LINE",
"907 1343 LINE"
);
},
{
closed = 1;
nodes = (
"831 1374 OFFCURVE",
"717 1377 OFFCURVE",
"558 1377 CURVE SMOOTH",
"394 1377 OFFCURVE",
"280 1374 OFFCURVE",
"108 1366 CURVE",
"96 1354 LINE",
"96 6 LINE",
"108 -6 LINE",
"280 -14 OFFCURVE",
"394 -17 OFFCURVE",
"558 -17 CURVE SMOOTH",
"717 -17 OFFCURVE",
"831 -14 OFFCURVE",
"1003 -6 CURVE",
"1015 6 LINE",
"1015 1354 LINE",
"1003 1366 LINE"
);
},
{
closed = 1;
nodes = (
"838 87 OFFCURVE",
"646 100 OFFCURVE",
"558 100 CURVE SMOOTH",
"469 100 OFFCURVE",
"284 87 OFFCURVE",
"195 78 CURVE",
"221 274 OFFCURVE",
"225 368 OFFCURVE",
"225 680 CURVE SMOOTH",
"225 992 OFFCURVE",
"221 1086 OFFCURVE",
"195 1282 CURVE",
"284 1273 OFFCURVE",
"469 1260 OFFCURVE",
"558 1260 CURVE SMOOTH",
"646 1260 OFFCURVE",
"838 1273 OFFCURVE",
"926 1282 CURVE",
"900 1084 OFFCURVE",
"896 991 OFFCURVE",
"896 680 CURVE SMOOTH",
"896 369 OFFCURVE",
"900 276 OFFCURVE",
"926 78 CURVE"
);
}
);
};
guideLines = (
{
position = "{225, 680}";
}
);
layerId = "861B5D7F-E490-44BC-908E-F1CBF79092B0";
paths = (
{
closed = 1;
nodes = (
"971 0 LINE SMOOTH",
"1031 0 OFFCURVE",
"1067 35 OFFCURVE",
"1067 96 CURVE SMOOTH",
"1067 1274 LINE SMOOTH",
"1067 1335 OFFCURVE",
"1031 1370 OFFCURVE",
"971 1370 CURVE SMOOTH",
"244 1370 LINE SMOOTH",
"184 1370 OFFCURVE",
"148 1335 OFFCURVE",
"148 1274 CURVE SMOOTH",
"148 96 LINE SMOOTH",
"148 35 OFFCURVE",
"184 0 OFFCURVE",
"244 0 CURVE SMOOTH"
);
},
{
closed = 1;
nodes = (
"624 608 LINE",
"674 664 LINE",
"895 1017 OFFCURVE",
"913 1050 OFFCURVE",
"954 1147 CURVE",
"1041 1127 LINE",
"959 1343 LINE",
"602 768 LINE",
"552 712 LINE",
"331 359 OFFCURVE",
"313 326 OFFCURVE",
"273 229 CURVE",
"185 249 LINE",
"257 17 LINE"
);
},
{
closed = 1;
nodes = (
"1049 247 LINE",
"951 227 LINE",
"911 324 OFFCURVE",
"894 352 OFFCURVE",
"651 736 CURVE SMOOTH",
"265 1346 LINE",
"174 1127 LINE",
"271 1147 LINE",
"312 1050 OFFCURVE",
"329 1022 OFFCURVE",
"572 638 CURVE SMOOTH",
"958 28 LINE"
);
},
{
closed = 1;
nodes = (
"273 304 OFFCURVE",
"277 368 OFFCURVE",
"277 680 CURVE SMOOTH",
"277 987 OFFCURVE",
"273 1069 OFFCURVE",
"252 1262 CURVE",
"336 1257 OFFCURVE",
"420 1250 OFFCURVE",
"610 1250 CURVE SMOOTH",
"800 1250 OFFCURVE",
"890 1257 OFFCURVE",
"973 1262 CURVE",
"952 1067 OFFCURVE",
"948 986 OFFCURVE",
"948 680 CURVE SMOOTH",
"948 369 OFFCURVE",
"952 306 OFFCURVE",
"973 108 CURVE",
"889 117 OFFCURVE",
"800 120 OFFCURVE",
"610 120 CURVE SMOOTH",
"420 120 OFFCURVE",
"336 117 OFFCURVE",
"252 108 CURVE"
);
}
);
width = 1215;
},
{
background = {
paths = (
{
closed = 1;
nodes = (
"963 324 OFFCURVE",
"946 352 OFFCURVE",
"703 736 CURVE SMOOTH",
"317 1346 LINE",
"226 1172 LINE",
"323 1172 LINE",
"364 1050 OFFCURVE",
"381 1022 OFFCURVE",
"624 638 CURVE SMOOTH",
"1010 28 LINE",
"1101 202 LINE",
"1003 202 LINE"
);
},
{
closed = 1;
nodes = (
"654 768 LINE",
"604 712 LINE",
"383 359 OFFCURVE",
"365 326 OFFCURVE",
"325 204 CURVE",
"237 204 LINE",
"309 17 LINE",
"676 608 LINE",
"726 664 LINE",
"947 1017 OFFCURVE",
"965 1050 OFFCURVE",
"1006 1172 CURVE",
"1093 1172 LINE",
"1011 1343 LINE"
);
},
{
closed = 1;
nodes = (
"935 1374 OFFCURVE",
"821 1377 OFFCURVE",
"662 1377 CURVE SMOOTH",
"498 1377 OFFCURVE",
"384 1374 OFFCURVE",
"212 1366 CURVE",
"200 1354 LINE",
"200 6 LINE",
"212 -6 LINE",
"384 -14 OFFCURVE",
"498 -17 OFFCURVE",
"662 -17 CURVE SMOOTH",
"821 -17 OFFCURVE",
"935 -14 OFFCURVE",
"1107 -6 CURVE",
"1119 6 LINE",
"1119 1354 LINE",
"1107 1366 LINE"
);
},
{
closed = 1;
nodes = (
"942 87 OFFCURVE",
"750 100 OFFCURVE",
"662 100 CURVE SMOOTH",
"573 100 OFFCURVE",
"388 87 OFFCURVE",
"299 78 CURVE",
"325 274 OFFCURVE",
"329 368 OFFCURVE",
"329 680 CURVE SMOOTH",
"329 992 OFFCURVE",
"325 1086 OFFCURVE",
"299 1282 CURVE",
"388 1273 OFFCURVE",
"573 1260 OFFCURVE",
"662 1260 CURVE SMOOTH",
"750 1260 OFFCURVE",
"942 1273 OFFCURVE",
"1030 1282 CURVE",
"1004 1084 OFFCURVE",
"1000 991 OFFCURVE",
"1000 680 CURVE SMOOTH",
"1000 369 OFFCURVE",
"1004 276 OFFCURVE",
"1030 78 CURVE"
);
}
);
};
layerId = "1023D002-3304-4399-867A-B886C920D2C0";
paths = (
{
closed = 1;
nodes = (
"1023 0 LINE SMOOTH",
"1083 0 OFFCURVE",
"1119 35 OFFCURVE",
"1119 96 CURVE SMOOTH",
"1119 1274 LINE SMOOTH",
"1119 1335 OFFCURVE",
"1083 1370 OFFCURVE",
"1023 1370 CURVE SMOOTH",
"296 1370 LINE SMOOTH",
"236 1370 OFFCURVE",
"200 1335 OFFCURVE",
"200 1274 CURVE SMOOTH",
"200 96 LINE SMOOTH",
"200 35 OFFCURVE",
"236 0 OFFCURVE",
"296 0 CURVE SMOOTH"
);
},
{
closed = 1;
nodes = (
"676 608 LINE",
"726 664 LINE",
"947 1017 OFFCURVE",
"965 1050 OFFCURVE",
"1006 1147 CURVE",
"1093 1127 LINE",
"1011 1343 LINE",
"654 768 LINE",
"604 712 LINE",
"383 359 OFFCURVE",
"365 326 OFFCURVE",
"325 229 CURVE",
"237 249 LINE",
"309 17 LINE"
);
},
{
closed = 1;
nodes = (
"1101 247 LINE",
"1003 227 LINE",
"963 324 OFFCURVE",
"946 352 OFFCURVE",
"703 736 CURVE SMOOTH",
"317 1346 LINE",
"226 1127 LINE",
"323 1147 LINE",
"364 1050 OFFCURVE",
"381 1022 OFFCURVE",
"624 638 CURVE SMOOTH",
"1010 28 LINE"
);
},
{
closed = 1;
nodes = (
"325 304 OFFCURVE",
"329 368 OFFCURVE",
"329 680 CURVE SMOOTH",
"329 987 OFFCURVE",
"325 1069 OFFCURVE",
"304 1262 CURVE",
"388 1257 OFFCURVE",
"472 1250 OFFCURVE",
"662 1250 CURVE SMOOTH",
"852 1250 OFFCURVE",
"942 1257 OFFCURVE",
"1025 1262 CURVE",
"1004 1067 OFFCURVE",
"1000 986 OFFCURVE",
"1000 680 CURVE SMOOTH",
"1000 369 OFFCURVE",
"1004 306 OFFCURVE",
"1025 108 CURVE",
"941 117 OFFCURVE",
"852 120 OFFCURVE",
"662 120 CURVE SMOOTH",
"472 120 OFFCURVE",
"388 117 OFFCURVE",
"304 108 CURVE"
);
}
);
width = 1319;
}
);
leftMetricsKey = H;
rightMetricsKey = H;
},
{
color = 4;
glyphname = A;
lastChange = "2020-10-21 11:54:40 +0000";
layers = (
{
anchors = (
{
name = bottom;
position = "{595, 0}";
},
{
name = ogonek;
position = "{1134, 8}";
},
{
name = top;
position = "{594, 1464}";
}
);
background = {
anchors = (
{
name = bottom;
position = "{595, -40}";
},
{
name = top;
position = "{594, 1464}";
}
);
paths = (
{
closed = 1;
nodes = (
"54 8 LINE",
"58 2 LINE",
"80 -4 OFFCURVE",
"98 -8 OFFCURVE",
"128 -8 CURVE SMOOTH",
"150 -8 OFFCURVE",
"174 -6 OFFCURVE",
"192 -2 CURVE",
"514 978 LINE SMOOTH",
"530 1028 OFFCURVE",
"560 1132 OFFCURVE",
"580 1208 CURVE",
"590 1208 LINE",
"614 1120 OFFCURVE",
"652 996 OFFCURVE",
"692 878 CURVE SMOOTH",
"962 62 LINE SMOOTH",
"982 4 OFFCURVE",
"1002 -12 OFFCURVE",
"1048 -12 CURVE SMOOTH",
"1084 -12 OFFCURVE",
"1112 -6 OFFCURVE",
"1134 8 CURVE",
"674 1366 LINE",
"658 1370 OFFCURVE",
"618 1372 OFFCURVE",
"596 1372 CURVE SMOOTH",
"572 1372 OFFCURVE",
"534 1370 OFFCURVE",
"512 1366 CURVE"
);
},
{
closed = 1;
nodes = (
"720 358 LINE SMOOTH",
"732 358 OFFCURVE",
"862 360 OFFCURVE",
"876 360 CURVE",
"930 360 LINE",
"888 484 LINE",
"840 484 LINE",
"826 484 OFFCURVE",
"716 486 OFFCURVE",
"704 486 CURVE SMOOTH",
"470 486 LINE SMOOTH",
"458 486 OFFCURVE",
"352 484 OFFCURVE",
"338 484 CURVE",
"290 484 LINE",
"244 360 LINE",
"298 360 LINE",
"312 360 OFFCURVE",
"440 358 OFFCURVE",
"452 358 CURVE SMOOTH"
);
}
);
};
layerId = UUID0;
paths = (
{
closed = 1;
nodes = (
"1081 -12 OFFCURVE",
"1114 -2 OFFCURVE",
"1134 8 CURVE",
"674 1366 LINE",
"658 1370 OFFCURVE",
"618 1372 OFFCURVE",
"596 1372 CURVE SMOOTH",
"572 1372 OFFCURVE",
"534 1370 OFFCURVE",
"512 1366 CURVE",
"54 8 LINE",
"58 2 LINE",
"80 -4 OFFCURVE",
"98 -8 OFFCURVE",
"128 -8 CURVE SMOOTH",
"150 -8 OFFCURVE",
"174 -6 OFFCURVE",
"192 -2 CURVE",
"514 978 LINE SMOOTH",
"535 1042 OFFCURVE",
"562 1141 OFFCURVE",
"580 1208 CURVE",
"590 1208 LINE",
"614 1120 OFFCURVE",
"653 996 OFFCURVE",
"692 878 CURVE SMOOTH",
"962 62 LINE SMOOTH",
"980 6 OFFCURVE",
"1000 -12 OFFCURVE",
"1048 -12 CURVE SMOOTH"
);
},
{
closed = 1;
nodes = (
"720 358 LINE SMOOTH",
"732 358 OFFCURVE",
"862 360 OFFCURVE",
"876 360 CURVE SMOOTH",
"930 360 LINE",
"888 484 LINE",
"840 484 LINE SMOOTH",
"826 484 OFFCURVE",
"716 486 OFFCURVE",
"704 486 CURVE SMOOTH",
"470 486 LINE SMOOTH",
"458 486 OFFCURVE",
"352 484 OFFCURVE",
"338 484 CURVE SMOOTH",
"290 484 LINE",
"244 360 LINE",
"298 360 LINE SMOOTH",
"312 360 OFFCURVE",
"440 358 OFFCURVE",
"452 358 CURVE SMOOTH"
);
}
);
width = 1188;
},
{
anchors = (
{
name = bottom;
position = "{648, 0}";
},
{
name = ogonek;
position = "{1270, 22}";
},
{
name = top;
position = "{648, 1464}";
}
);
background = {
anchors = (
{
name = bottom;
position = "{648, -40}";
},
{
name = top;
position = "{648, 1464}";
}
);
paths = (
{
closed = 1;
nodes = (
"14 26 LINE",
"26 8 LINE",
"64 -6 OFFCURVE",
"138 -14 OFFCURVE",
"188 -14 CURVE SMOOTH",
"240 -14 OFFCURVE",
"288 -12 OFFCURVE",
"330 -2 CURVE",
"524 668 LINE SMOOTH",
"556 782 OFFCURVE",
"604 948 OFFCURVE",
"624 1062 CURVE",
"636 1062 LINE",
"670 926 OFFCURVE",
"716 756 OFFCURVE",
"746 644 CURVE SMOOTH",
"878 164 LINE SMOOTH",
"918 20 OFFCURVE",
"972 -18 OFFCURVE",
"1078 -18 CURVE SMOOTH",
"1140 -18 OFFCURVE",
"1224 -4 OFFCURVE",
"1270 22 CURVE",
"842 1364 LINE",
"788 1374 OFFCURVE",
"702 1378 OFFCURVE",
"648 1378 CURVE SMOOTH",
"592 1378 OFFCURVE",
"508 1374 OFFCURVE",
"454 1366 CURVE"
);
},
{
closed = 1;
nodes = (
"772 280 LINE SMOOTH",
"802 280 OFFCURVE",
"840 282 OFFCURVE",
"870 282 CURVE",
"1048 282 LINE",
"964 542 LINE",
"802 542 LINE",
"772 542 OFFCURVE",
"734 544 OFFCURVE",
"704 544 CURVE SMOOTH",
"566 544 LINE SMOOTH",
"536 544 OFFCURVE",
"498 542 OFFCURVE",
"468 542 CURVE",
"312 542 LINE",
"210 282 LINE",
"388 282 LINE",
"418 282 OFFCURVE",
"456 280 OFFCURVE",
"486 280 CURVE SMOOTH"
);
}
);
};
layerId = UUID1;
paths = (
{
closed = 1;
nodes = (
"1140 -18 OFFCURVE",
"1224 -4 OFFCURVE",
"1270 22 CURVE",
"842 1364 LINE",
"788 1374 OFFCURVE",
"702 1378 OFFCURVE",
"648 1378 CURVE SMOOTH",
"592 1378 OFFCURVE",
"508 1374 OFFCURVE",
"454 1366 CURVE",
"14 26 LINE",
"26 8 LINE",
"64 -6 OFFCURVE",
"138 -14 OFFCURVE",
"188 -14 CURVE SMOOTH",
"240 -14 OFFCURVE",
"288 -12 OFFCURVE",
"330 -2 CURVE",
"524 668 LINE SMOOTH",
"555 775 OFFCURVE",
"604 946 OFFCURVE",
"624 1062 CURVE",
"636 1062 LINE",
"670 926 OFFCURVE",
"715 756 OFFCURVE",
"746 644 CURVE SMOOTH",
"878 164 LINE SMOOTH",
"913 37 OFFCURVE",
"957 -18 OFFCURVE",
"1078 -18 CURVE SMOOTH"
);
},
{
closed = 1;
nodes = (
"772 280 LINE SMOOTH",
"802 280 OFFCURVE",
"840 282 OFFCURVE",
"870 282 CURVE SMOOTH",
"1048 282 LINE",
"964 542 LINE",
"802 542 LINE SMOOTH",
"772 542 OFFCURVE",
"734 544 OFFCURVE",
"704 544 CURVE SMOOTH",
"566 544 LINE SMOOTH",
"536 544 OFFCURVE",
"498 542 OFFCURVE",
"468 542 CURVE SMOOTH",
"312 542 LINE",
"210 282 LINE",
"388 282 LINE SMOOTH",
"418 282 OFFCURVE",
"456 280 OFFCURVE",
"486 280 CURVE SMOOTH"
);
}
);
width = 1284;
},
{
anchors = (
{
name = bottom;
position = "{535, 0}";
},
{
name = ogonek;
position = "{1161, 22}";
},
{
name = top;
position = "{793, 1464}";
}
);
background = {
anchors = (
{
name = bottom;
position = "{535, 0}";
},
{
name = ogonek;
position = "{1161, 22}";
},
{
name = top;
position = "{793, 1464}";
}
);
paths = (
{
closed = 1;
nodes = (
"1004 -18 OFFCURVE",
"1090 -4 OFFCURVE",
"1141 22 CURVE",
"970 1364 LINE",
"917 1374 OFFCURVE",
"832 1378 OFFCURVE",
"778 1378 CURVE SMOOTH",
"722 1378 OFFCURVE",
"637 1374 OFFCURVE",
"582 1366 CURVE",
"-74 26 LINE",
"-65 8 LINE",
"-30 -6 OFFCURVE",
"43 -14 OFFCURVE",
"93 -14 CURVE SMOOTH",
"145 -14 OFFCURVE",
"193 -12 OFFCURVE",
"237 -2 CURVE",
"534 668 LINE SMOOTH",
"582 776 OFFCURVE",
"658 946 OFFCURVE",
"698 1062 CURVE",
"710 1062 LINE",
"720 926 OFFCURVE",
"734 757 OFFCURVE",
"742 644 CURVE SMOOTH",
"774 164 LINE SMOOTH",
"783 36 OFFCURVE",
"821 -18 OFFCURVE",
"942 -18 CURVE SMOOTH"
);
},
{
closed = 1;
nodes = (
"688 280 LINE SMOOTH",
"718 280 OFFCURVE",
"757 282 OFFCURVE",
"787 282 CURVE SMOOTH",
"965 282 LINE",
"927 542 LINE",
"765 542 LINE SMOOTH",
"735 542 OFFCURVE",
"697 544 OFFCURVE",
"667 544 CURVE SMOOTH",
"569 544 LINE SMOOTH",
"539 544 OFFCURVE",
"501 542 OFFCURVE",
"471 542 CURVE SMOOTH",
"315 542 LINE",
"167 282 LINE",
"345 282 LINE SMOOTH",
"375 282 OFFCURVE",
"412 280 OFFCURVE",
"442 280 CURVE SMOOTH"
);
}
);
};
guideLines = (
{
angle = 65.4905;
position = "{245, -2}";
},
{
angle = 93.7978;
position = "{786, 184}";
}
);
layerId = "861B5D7F-E490-44BC-908E-F1CBF79092B0";
paths = (
{
closed = 1;
nodes = (
"1011 -18 OFFCURVE",
"1090 -3 OFFCURVE",
"1141 19 CURVE",
"977 1364 LINE",
"925 1374 OFFCURVE",
"835 1378 OFFCURVE",
"776 1378 CURVE SMOOTH",
"714 1378 OFFCURVE",
"631 1374 OFFCURVE",
"576 1366 CURVE",
"-74 26 LINE",
"-65 8 LINE",
"-24 -8 OFFCURVE",
"49 -14 OFFCURVE",
"104 -14 CURVE SMOOTH",
"157 -14 OFFCURVE",
"206 -10 OFFCURVE",
"245 -2 CURVE",
"544 656 LINE SMOOTH",
"603 785 OFFCURVE",
"665 923 OFFCURVE",
"720 1065 CURVE",
"732 1065 LINE",
"738 914 OFFCURVE",
"747 773 OFFCURVE",
"756 651 CURVE SMOOTH",
"791 184 LINE SMOOTH",
"799 73 OFFCURVE",
"810 -18 OFFCURVE",
"951 -18 CURVE SMOOTH"
);
},
{
closed = 1;
nodes = (
"688 280 LINE SMOOTH",
"718 280 OFFCURVE",
"757 282 OFFCURVE",
"787 282 CURVE SMOOTH",
"975 282 LINE",
"941 542 LINE",
"769 542 LINE SMOOTH",
"739 542 OFFCURVE",
"701 543 OFFCURVE",
"671 543 CURVE SMOOTH",
"575 543 LINE SMOOTH",
"547 543 OFFCURVE",
"513 542 OFFCURVE",
"485 542 CURVE SMOOTH",
"329 542 LINE",
"177 282 LINE",
"365 282 LINE SMOOTH",
"395 282 OFFCURVE",
"432 280 OFFCURVE",
"462 280 CURVE SMOOTH"
);
}
);
width = 1236;
},
{
anchors = (
{
name = bottom;
position = "{461, 0}";
},
{
name = ogonek;
position = "{947, 8}";
},
{
name = top;
position = "{718, 1464}";
}
);
background = {
anchors = (
{
name = bottom;
position = "{461, 0}";
},
{
name = ogonek;
position = "{947, 8}";
},
{
name = top;
position = "{718, 1464}";
}
);
paths = (
{
closed = 1;
nodes = (
"-25 8 LINE",
"-22 2 LINE",
"-4 -4 OFFCURVE",
"13 -8 OFFCURVE",
"39 -8 CURVE SMOOTH",
"57 -8 OFFCURVE",
"81 -6 OFFCURVE",
"97 -2 CURVE",
"560 978 LINE SMOOTH",
"593 1048 OFFCURVE",
"624 1124 OFFCURVE",
"660 1208 CURVE",
"669 1208 LINE",
"675 1120 OFFCURVE",
"690 992 OFFCURVE",
"703 878 CURVE SMOOTH",
"802 62 LINE SMOOTH",
"809 7 OFFCURVE",
"823 -12 OFFCURVE",
"866 -12 CURVE SMOOTH",
"897 -12 OFFCURVE",
"923 -7 OFFCURVE",
"947 8 CURVE",
"772 1366 LINE",
"759 1370 OFFCURVE",
"722 1372 OFFCURVE",
"704 1372 CURVE SMOOTH",
"683 1372 OFFCURVE",
"647 1370 OFFCURVE",
"626 1366 CURVE"
);
},
{
closed = 1;
nodes = (
"636 358 LINE SMOOTH",
"647 358 OFFCURVE",
"764 360 OFFCURVE",
"777 360 CURVE SMOOTH",
"825 360 LINE",
"810 484 LINE",
"766 484 LINE SMOOTH",
"754 484 OFFCURVE",
"655 486 OFFCURVE",
"644 486 CURVE SMOOTH",
"433 486 LINE SMOOTH",
"423 486 OFFCURVE",
"327 484 OFFCURVE",
"315 484 CURVE SMOOTH",
"271 484 LINE",
"208 360 LINE",
"257 360 LINE SMOOTH",
"269 360 OFFCURVE",
"384 358 OFFCURVE",
"395 358 CURVE SMOOTH"
);
}
);
};
guideLines = (
{
angle = -83.2278;
position = "{751, 478}";
},
{
angle = 64.6741;
position = "{99, -2}";
},
{
angle = 64.6741;
position = "{-38, 8}";
}
);
layerId = "1023D002-3304-4399-867A-B886C920D2C0";
paths = (
{
closed = 1;
nodes = (
"899 -12 OFFCURVE",
"931 -6 OFFCURVE",
"953 3 CURVE",
"781 1366 LINE",
"769 1368 OFFCURVE",
"734 1372 OFFCURVE",
"696 1372 CURVE SMOOTH",
"669 1372 OFFCURVE",
"625 1370 OFFCURVE",
"610 1366 CURVE",
"-40 8 LINE",
"-37 2 LINE",
"-21 -3 OFFCURVE",
"9 -6 OFFCURVE",
"41 -6 CURVE SMOOTH",
"66 -6 OFFCURVE",
"87 -4 OFFCURVE",
"99 -2 CURVE",
"559 970 LINE SMOOTH",
"580 1014 OFFCURVE",
"616 1096 OFFCURVE",
"662 1208 CURVE",
"671 1208 LINE",
"677 1120 OFFCURVE",
"692 992 OFFCURVE",
"705 878 CURVE SMOOTH",
"798 78 LINE SMOOTH",
"804 29 OFFCURVE",
"813 -12 OFFCURVE",
"876 -12 CURVE SMOOTH"
);
},
{
closed = 1;
nodes = (
"638 358 LINE SMOOTH",
"659 358 OFFCURVE",
"756 360 OFFCURVE",
"779 360 CURVE SMOOTH",
"827 360 LINE",
"812 484 LINE",
"768 484 LINE SMOOTH",
"746 484 OFFCURVE",
"667 486 OFFCURVE",
"646 486 CURVE SMOOTH",
"435 486 LINE SMOOTH",
"415 486 OFFCURVE",
"339 484 OFFCURVE",
"317 484 CURVE SMOOTH",
"273 484 LINE",
"210 360 LINE",
"259 360 LINE SMOOTH",
"281 360 OFFCURVE",
"376 358 OFFCURVE",
"397 358 CURVE SMOOTH"
);
}
);
width = 1084;
}
);
leftKerningGroup = A;
rightKerningGroup = A;
rightMetricsKey = "=|";
unicode = 0041;
},
{
color = 4;
glyphname = B;
lastChange = "2020-10-20 12:38:10 +0000";
layers = (
{
anchors = (
{
name = bottom;
position = "{590, 0}";
},
{
name = top;
position = "{556, 1464}";
}
);
background = {
anchors = (
{
name = bottom;
position = "{590, -40}";
},
{
name = top;
position = "{556, 1464}";
}
);
paths = (
{
closed = 1;
nodes = (
"200 1354 LINE",
"200 12 LINE",
"212 0 LINE",
"350 -2 OFFCURVE",
"454 -6 OFFCURVE",
"620 -6 CURVE SMOOTH",
"970 -6 OFFCURVE",
"1082 190 OFFCURVE",
"1082 376 CURVE SMOOTH",
"1082 590 OFFCURVE",
"910 738 OFFCURVE",
"742 738 CURVE",
"742 710 LINE",
"910 728 OFFCURVE",
"1016 856 OFFCURVE",
"1016 1012 CURVE SMOOTH",
"1016 1220 OFFCURVE",
"904 1372 OFFCURVE",
"598 1372 CURVE SMOOTH",
"472 1372 OFFCURVE",
"350 1368 OFFCURVE",
"212 1366 CURVE"
);
},
{
closed = 1;
nodes = (
"344 1252 LINE",
"418 1250 OFFCURVE",
"534 1250 OFFCURVE",
"602 1250 CURVE SMOOTH",
"826 1250 OFFCURVE",
"864 1126 OFFCURVE",
"864 1016 CURVE SMOOTH",
"864 910 OFFCURVE",
"818 780 OFFCURVE",
"596 780 CURVE SMOOTH",
"284 780 LINE",
"284 656 LINE",
"614 656 LINE SMOOTH",
"864 656 OFFCURVE",
"930 494 OFFCURVE",
"930 386 CURVE SMOOTH",
"930 274 OFFCURVE",
"884 116 OFFCURVE",
"634 116 CURVE SMOOTH",
"538 116 OFFCURVE",
"440 114 OFFCURVE",
"344 114 CURVE"
);
}
);
};
layerId = UUID0;
paths = (
{
closed = 1;
nodes = (
"200 1354 LINE",
"200 12 LINE",
"212 0 LINE",
"350 -2 OFFCURVE",
"454 -6 OFFCURVE",
"620 -6 CURVE SMOOTH",
"970 -6 OFFCURVE",
"1082 190 OFFCURVE",
"1082 376 CURVE SMOOTH",
"1082 590 OFFCURVE",
"910 738 OFFCURVE",
"742 738 CURVE",
"742 710 LINE",
"910 728 OFFCURVE",
"1016 856 OFFCURVE",
"1016 1012 CURVE SMOOTH",
"1016 1220 OFFCURVE",
"904 1372 OFFCURVE",
"598 1372 CURVE SMOOTH",
"472 1372 OFFCURVE",
"350 1368 OFFCURVE",
"212 1366 CURVE"
);
},
{
closed = 1;
nodes = (
"344 1252 LINE",
"418 1250 OFFCURVE",
"534 1250 OFFCURVE",
"602 1250 CURVE SMOOTH",
"826 1250 OFFCURVE",
"864 1126 OFFCURVE",
"864 1016 CURVE SMOOTH",
"864 910 OFFCURVE",
"818 780 OFFCURVE",
"596 780 CURVE SMOOTH",
"284 780 LINE",
"284 656 LINE",
"614 656 LINE SMOOTH",
"864 656 OFFCURVE",
"930 494 OFFCURVE",
"930 386 CURVE SMOOTH",
"930 274 OFFCURVE",
"884 116 OFFCURVE",
"634 116 CURVE SMOOTH",
"538 116 OFFCURVE",
"440 114 OFFCURVE",
"344 114 CURVE"
);
}
);
width = 1198;
},
{
anchors = (
{
name = bottom;
position = "{598, 0}";
},
{
name = top;
position = "{582, 1464}";
}
);
background = {
anchors = (
{
name = bottom;
position = "{598, -40}";
},
{
name = top;
position = "{582, 1464}";
}
);
paths = (
{
closed = 1;
nodes = (
"148 1356 LINE",
"148 10 LINE",
"162 -4 LINE",
"336 -8 OFFCURVE",
"508 -12 OFFCURVE",
"662 -12 CURVE SMOOTH",
"964 -12 OFFCURVE",
"1166 106 OFFCURVE",
"1166 394 CURVE SMOOTH",
"1166 578 OFFCURVE",
"1022 744 OFFCURVE",
"860 754 CURVE",
"860 722 LINE",
"990 738 OFFCURVE",
"1102 868 OFFCURVE",
"1102 1014 CURVE SMOOTH",
"1102 1270 OFFCURVE",
"906 1378 OFFCURVE",
"630 1378 CURVE SMOOTH",
"486 1378 OFFCURVE",
"324 1374 OFFCURVE",
"162 1370 CURVE"
);
},
{
closed = 1;
nodes = (
"478 1144 LINE",
"526 1142 OFFCURVE",
"580 1142 OFFCURVE",
"612 1142 CURVE SMOOTH",
"738 1142 OFFCURVE",
"776 1066 OFFCURVE",
"776 990 CURVE SMOOTH",
"776 914 OFFCURVE",
"740 834 OFFCURVE",
"612 834 CURVE SMOOTH",
"352 834 LINE",
"352 598 LINE",
"636 598 LINE SMOOTH",
"788 598 OFFCURVE",
"830 494 OFFCURVE",
"830 408 CURVE SMOOTH",
"830 326 OFFCURVE",
"792 222 OFFCURVE",
"636 222 CURVE SMOOTH",
"598 222 OFFCURVE",
"540 222 OFFCURVE",
"478 220 CURVE"
);
}
);
};
layerId = UUID1;
paths = (
{
closed = 1;
nodes = (
"148 1356 LINE",
"148 10 LINE",
"162 -4 LINE",
"336 -8 OFFCURVE",
"508 -12 OFFCURVE",
"662 -12 CURVE SMOOTH",
"964 -12 OFFCURVE",
"1166 106 OFFCURVE",
"1166 394 CURVE SMOOTH",
"1166 578 OFFCURVE",
"1022 744 OFFCURVE",
"860 754 CURVE",
"860 722 LINE",
"990 738 OFFCURVE",
"1102 868 OFFCURVE",
"1102 1014 CURVE SMOOTH",
"1102 1270 OFFCURVE",
"906 1378 OFFCURVE",
"630 1378 CURVE SMOOTH",
"486 1378 OFFCURVE",
"324 1374 OFFCURVE",
"162 1370 CURVE"
);
},
{
closed = 1;
nodes = (
"478 1144 LINE",
"526 1142 OFFCURVE",
"580 1142 OFFCURVE",
"612 1142 CURVE SMOOTH",
"738 1142 OFFCURVE",
"776 1066 OFFCURVE",
"776 990 CURVE SMOOTH",
"776 914 OFFCURVE",
"740 834 OFFCURVE",
"612 834 CURVE SMOOTH",
"352 834 LINE",
"352 598 LINE",
"636 598 LINE SMOOTH",
"788 598 OFFCURVE",
"830 494 OFFCURVE",
"830 408 CURVE SMOOTH",
"830 326 OFFCURVE",
"792 222 OFFCURVE",
"636 222 CURVE SMOOTH",
"598 222 OFFCURVE",
"540 222 OFFCURVE",
"478 220 CURVE"
);
}
);
width = 1232;
},
{
anchors = (
{
name = bottom;
position = "{463, 0}";
},
{
name = top;
position = "{705, 1464}";
}
);
background = {
anchors = (
{
name = bottom;
position = "{537, 0}";
},
{
name = top;
position = "{782, 1464}";
}
);
paths = (
{
closed = 1;
nodes = (
"284 1356 LINE",
"47 10 LINE",
"58 -4 LINE",
"217 -8 OFFCURVE",
"407 -12 OFFCURVE",
"544 -12 CURVE SMOOTH",
"871 -12 OFFCURVE",
"1094 180 OFFCURVE",
"1094 465 CURVE SMOOTH",
"1094 618 OFFCURVE",
"996 745 OFFCURVE",
"865 754 CURVE",
"860 722 LINE",
"979 738 OFFCURVE",
"1146 883 OFFCURVE",
"1146 1094 CURVE SMOOTH",
"1146 1292 OFFCURVE",
"983 1378 OFFCURVE",
"759 1378 CURVE SMOOTH",
"629 1378 OFFCURVE",
"448 1374 OFFCURVE",
"300 1370 CURVE"
);
},
{
closed = 1;
nodes = (
"577 1144 LINE",
"617 1142 OFFCURVE",
"675 1142 OFFCURVE",
"700 1142 CURVE SMOOTH",
"785 1142 OFFCURVE",
"818 1089 OFFCURVE",
"818 1029 CURVE SMOOTH",
"818 916 OFFCURVE",
"744 834 OFFCURVE",
"645 834 CURVE SMOOTH",
"402 834 LINE",
"361 598 LINE",
"627 598 LINE SMOOTH",
"729 598 OFFCURVE",
"764 529 OFFCURVE",
"764 458 CURVE SMOOTH",
"764 329 OFFCURVE",
"682 222 OFFCURVE",
"558 222 CURVE SMOOTH",
"531 222 OFFCURVE",
"466 222 OFFCURVE",
"414 220 CURVE"
);
}
);
};
layerId = "861B5D7F-E490-44BC-908E-F1CBF79092B0";
paths = (
{
closed = 1;
nodes = (
"893 -12 OFFCURVE",
"1094 175 OFFCURVE",
"1094 448 CURVE SMOOTH",
"1094 625 OFFCURVE",
"980 743 OFFCURVE",
"810 749 CURVE",
"805 711 LINE",
"979 729 OFFCURVE",
"1144 859 OFFCURVE",
"1144 1064 CURVE SMOOTH",
"1144 1231 OFFCURVE",
"1044 1378 OFFCURVE",
"730 1378 CURVE SMOOTH",
"581 1378 OFFCURVE",
"420 1375 OFFCURVE",
"301 1370 CURVE",
"285 1356 LINE",
"47 10 LINE",
"59 -4 LINE",
"161 -7 OFFCURVE",
"278 -12 OFFCURVE",
"544 -12 CURVE SMOOTH"
);
},
{
closed = 1;
nodes = (
"577 1143 LINE",
"618 1142 OFFCURVE",
"659 1142 OFFCURVE",
"686 1142 CURVE SMOOTH",
"785 1142 OFFCURVE",
"816 1091 OFFCURVE",
"816 1018 CURVE SMOOTH",
"816 914 OFFCURVE",
"754 834 OFFCURVE",
"634 834 CURVE SMOOTH",
"397 834 LINE",
"355 598 LINE",
"603 598 LINE SMOOTH",
"725 598 OFFCURVE",
"764 532 OFFCURVE",
"764 443 CURVE SMOOTH",
"764 306 OFFCURVE",
"679 222 OFFCURVE",
"544 222 CURVE SMOOTH",
"494 222 OFFCURVE",
"454 222 OFFCURVE",
"414 221 CURVE"
);
}
);
width = 1166;
},
{
anchors = (
{
name = bottom;
position = "{445, 0}";
},
{
name = top;
position = "{672, 1464}";
}
);
background = {
anchors = (
{
name = bottom;
position = "{494, 0}";
},
{
name = top;
position = "{460, 1464}";
}
);
paths = (
{
closed = 1;
nodes = (
"332 1354 LINE",
"96 12 LINE",
"106 0 LINE",
"230 -2 OFFCURVE",
"323 -6 OFFCURVE",
"473 -6 CURVE SMOOTH",
"815 -6 OFFCURVE",
"959 190 OFFCURVE",
"992 376 CURVE SMOOTH",
"1030 590 OFFCURVE",
"889 738 OFFCURVE",
"726 738 CURVE",
"721 710 LINE",
"886 728 OFFCURVE",
"1011 856 OFFCURVE",
"1038 1012 CURVE SMOOTH",
"1075 1220 OFFCURVE",
"992 1372 OFFCURVE",
"693 1372 CURVE SMOOTH",
"581 1372 OFFCURVE",
"470 1368 OFFCURVE",
"346 1366 CURVE"
);
},
{
closed = 1;
nodes = (
"458 1252 LINE",
"521 1250 OFFCURVE",
"619 1250 OFFCURVE",
"676 1250 CURVE SMOOTH",
"891 1250 OFFCURVE",
"906 1126 OFFCURVE",
"887 1016 CURVE SMOOTH",
"868 910 OFFCURVE",
"801 780 OFFCURVE",
"587 780 CURVE SMOOTH",
"315 780 LINE",
"293 656 LINE",
"583 656 LINE SMOOTH",
"825 656 OFFCURVE",
"861 494 OFFCURVE",
"842 386 CURVE SMOOTH",
"822 274 OFFCURVE",
"750 116 OFFCURVE",
"508 116 CURVE SMOOTH",
"425 116 OFFCURVE",
"340 114 OFFCURVE",
"258 114 CURVE"
);
}
);
};
layerId = "1023D002-3304-4399-867A-B886C920D2C0";
paths = (
{
closed = 1;
nodes = (
"823 -6 OFFCURVE",
"997 185 OFFCURVE",
"997 435 CURVE SMOOTH",
"997 616 OFFCURVE",
"863 725 OFFCURVE",
"722 730 CURVE",
"720 708 LINE",
"905 722 OFFCURVE",
"1045 878 OFFCURVE",
"1045 1077 CURVE SMOOTH",
"1045 1242 OFFCURVE",
"940 1371 OFFCURVE",
"671 1371 CURVE SMOOTH",
"580 1371 OFFCURVE",
"475 1368 OFFCURVE",
"346 1366 CURVE",
"333 1354 LINE",
"96 12 LINE",
"105 0 LINE",
"218 -2 OFFCURVE",
"309 -6 OFFCURVE",
"477 -6 CURVE SMOOTH"
);
},
{
closed = 1;
nodes = (
"458 1252 LINE",
"512 1250 OFFCURVE",
"599 1250 OFFCURVE",
"649 1250 CURVE SMOOTH",
"841 1250 OFFCURVE",
"891 1175 OFFCURVE",
"891 1070 CURVE SMOOTH",
"891 917 OFFCURVE",
"798 780 OFFCURVE",
"589 780 CURVE SMOOTH",
"320 780 LINE",
"299 656 LINE",
"566 656 LINE SMOOTH",
"767 656 OFFCURVE",
"845 568 OFFCURVE",
"845 434 CURVE SMOOTH",
"845 253 OFFCURVE",
"724 116 OFFCURVE",
"488 116 CURVE SMOOTH",
"411 116 OFFCURVE",
"335 116 OFFCURVE",
"258 115 CURVE"
);
}
);
width = 1111;
}
);
leftKerningGroup = H;
leftMetricsKey = H;
rightKerningGroup = B;
unicode = 0042;
},
{
color = 4;
glyphname = C;
lastChange = "2020-10-21 10:38:32 +0000";
layers = (
{
anchors = (
{
name = bottom;
position = "{632, 0}";
},
{
name = top;
position = "{636, 1466}";
}
);
background = {
anchors = (
{
name = bottom;
position = "{632, -40}";
},
{
name = top;
position = "{636, 1466}";
}
);
paths = (
{
closed = 1;
nodes = (
"984 932 OFFCURVE",
"998 930 OFFCURVE",
"1022 930 CURVE SMOOTH",
"1090 930 OFFCURVE",
"1102 976 OFFCURVE",
"1102 1016 CURVE SMOOTH",
"1102 1196 OFFCURVE",
"928 1390 OFFCURVE",
"640 1390 CURVE SMOOTH",
"360 1390 OFFCURVE",
"116 1170 OFFCURVE",
"116 676 CURVE SMOOTH",
"116 314 OFFCURVE",
"256 -24 OFFCURVE",
"616 -24 CURVE SMOOTH",
"810 -24 OFFCURVE",
"978 60 OFFCURVE",
"1084 168 CURVE",
"1072 202 OFFCURVE",
"1040 240 OFFCURVE",
"1004 262 CURVE",
"874 148 OFFCURVE",
"752 102 OFFCURVE",
"636 102 CURVE SMOOTH",
"408 102 OFFCURVE",
"268 316 OFFCURVE",
"268 676 CURVE SMOOTH",
"268 1064 OFFCURVE",
"404 1268 OFFCURVE",
"640 1268 CURVE SMOOTH",
"880 1268 OFFCURVE",
"956 1082 OFFCURVE",
"956 940 CURVE"
);
}
);
};
layerId = UUID0;
paths = (
{
closed = 1;
nodes = (
"810 -24 OFFCURVE",
"978 60 OFFCURVE",
"1084 168 CURVE",
"1072 202 OFFCURVE",
"1040 240 OFFCURVE",
"1004 262 CURVE",
"874 148 OFFCURVE",
"752 102 OFFCURVE",
"636 102 CURVE SMOOTH",
"408 102 OFFCURVE",
"268 316 OFFCURVE",
"268 676 CURVE SMOOTH",
"268 1064 OFFCURVE",
"404 1268 OFFCURVE",
"640 1268 CURVE SMOOTH",
"880 1268 OFFCURVE",
"956 1082 OFFCURVE",
"956 940 CURVE",
"984 932 OFFCURVE",
"998 930 OFFCURVE",
"1022 930 CURVE SMOOTH",
"1090 930 OFFCURVE",
"1102 976 OFFCURVE",
"1102 1016 CURVE SMOOTH",
"1102 1196 OFFCURVE",
"928 1390 OFFCURVE",
"640 1390 CURVE SMOOTH",
"360 1390 OFFCURVE",
"116 1170 OFFCURVE",
"116 676 CURVE SMOOTH",
"116 314 OFFCURVE",
"256 -24 OFFCURVE",
"616 -24 CURVE SMOOTH"
);
}
);
width = 1200;
},
{
anchors = (
{
name = bottom;
position = "{656, 0}";
},
{
name = top;
position = "{654, 1466}";
}
);
background = {
anchors = (
{
name = bottom;
position = "{656, -40}";
},
{
name = top;
position = "{654, 1466}";
}
);
paths = (
{
closed = 1;
nodes = (
"898 802 OFFCURVE",
"936 794 OFFCURVE",
"984 794 CURVE SMOOTH",
"1102 794 OFFCURVE",
"1176 846 OFFCURVE",
"1176 978 CURVE SMOOTH",
"1176 1218 OFFCURVE",
"970 1398 OFFCURVE",
"658 1398 CURVE SMOOTH",
"336 1398 OFFCURVE",
"68 1182 OFFCURVE",
"68 678 CURVE SMOOTH",
"68 336 OFFCURVE",
"198 -30 OFFCURVE",
"624 -30 CURVE SMOOTH",
"848 -30 OFFCURVE",
"1060 70 OFFCURVE",
"1176 184 CURVE",
"1162 262 OFFCURVE",
"1088 356 OFFCURVE",
"1024 400 CURVE",
"934 335 OFFCURVE",
"826 262 OFFCURVE",
"686 262 CURVE SMOOTH",
"516 262 OFFCURVE",
"420 398 OFFCURVE",
"420 676 CURVE SMOOTH",
"420 972 OFFCURVE",
"480 1132 OFFCURVE",
"646 1132 CURVE SMOOTH",
"818 1132 OFFCURVE",
"862 980 OFFCURVE",
"858 812 CURVE"
);
}
);
};
layerId = UUID1;
paths = (
{
closed = 1;
nodes = (
"848 -30 OFFCURVE",
"1060 70 OFFCURVE",
"1176 184 CURVE",
"1162 262 OFFCURVE",
"1088 356 OFFCURVE",
"1024 400 CURVE",
"934 335 OFFCURVE",
"826 262 OFFCURVE",
"686 262 CURVE SMOOTH",
"516 262 OFFCURVE",
"420 398 OFFCURVE",
"420 676 CURVE SMOOTH",
"420 972 OFFCURVE",
"480 1132 OFFCURVE",
"646 1132 CURVE SMOOTH",
"818 1132 OFFCURVE",
"862 980 OFFCURVE",
"858 812 CURVE",
"898 802 OFFCURVE",
"936 794 OFFCURVE",
"984 794 CURVE SMOOTH",
"1102 794 OFFCURVE",
"1176 846 OFFCURVE",
"1176 978 CURVE SMOOTH",
"1176 1218 OFFCURVE",
"970 1398 OFFCURVE",
"658 1398 CURVE SMOOTH",
"336 1398 OFFCURVE",
"68 1182 OFFCURVE",
"68 678 CURVE SMOOTH",
"68 336 OFFCURVE",
"198 -30 OFFCURVE",
"624 -30 CURVE SMOOTH"
);
}
);
width = 1220;
},
{
anchors = (
{
name = bottom;
position = "{524, 0}";
},
{
name = top;
position = "{781, 1466}";
}
);
background = {
paths = (
{
closed = 1;
nodes = (
"714 -30 OFFCURVE",
"936 70 OFFCURVE",
"1068 184 CURVE",
"1068 262 OFFCURVE",
"1010 356 OFFCURVE",
"954 400 CURVE",
"858 335 OFFCURVE",
"743 262 OFFCURVE",
"612 262 CURVE SMOOTH",
"454 262 OFFCURVE",
"390 398 OFFCURVE",
"439 676 CURVE SMOOTH",
"491 972 OFFCURVE",
"574 1132 OFFCURVE",
"725 1132 CURVE SMOOTH",
"881 1132 OFFCURVE",
"894 980 OFFCURVE",
"861 812 CURVE",
"899 802 OFFCURVE",
"935 794 OFFCURVE",
"983 794 CURVE SMOOTH",
"1101 794 OFFCURVE",
"1185 846 OFFCURVE",
"1208 978 CURVE SMOOTH",
"1250 1218 OFFCURVE",
"1084 1398 OFFCURVE",
"784 1398 CURVE SMOOTH",
"473 1398 OFFCURVE",
"176 1182 OFFCURVE",
"87 678 CURVE SMOOTH",
"27 336 OFFCURVE",
"87 -30 OFFCURVE",
"498 -30 CURVE SMOOTH"
);
}
);
};
layerId = "861B5D7F-E490-44BC-908E-F1CBF79092B0";
paths = (
{
closed = 1;
nodes = (
"771 -30 OFFCURVE",
"968 75 OFFCURVE",
"1049 182 CURVE",
"1034 257 OFFCURVE",
"968 351 OFFCURVE",
"898 389 CURVE",
"822 314 OFFCURVE",
"717 256 OFFCURVE",
"618 256 CURVE SMOOTH",
"487 256 OFFCURVE",
"420 333 OFFCURVE",
"420 526 CURVE SMOOTH",
"420 732 OFFCURVE",
"504 1132 OFFCURVE",
"730 1132 CURVE SMOOTH",
"821 1132 OFFCURVE",
"868 1068 OFFCURVE",
"868 942 CURVE SMOOTH",
"868 896 OFFCURVE",
"862 852 OFFCURVE",
"857 814 CURVE",
"884 803 OFFCURVE",
"932 791 OFFCURVE",
"985 791 CURVE SMOOTH",
"1132 791 OFFCURVE",
"1193 885 OFFCURVE",
"1193 1022 CURVE SMOOTH",
"1193 1249 OFFCURVE",
"1025 1396 OFFCURVE",
"761 1396 CURVE SMOOTH",
"279 1396 OFFCURVE",
"73 904 OFFCURVE",
"73 515 CURVE SMOOTH",
"73 116 OFFCURVE",
"290 -30 OFFCURVE",
"545 -30 CURVE SMOOTH"
);
}
);
width = 1139;
},
{
anchors = (
{
name = bottom;
position = "{463, 0}";
},
{
name = top;
position = "{725, 1466}";
}
);
background = {
anchors = (
{
name = bottom;
position = "{463, 0}";
},
{
name = top;
position = "{725, 1466}";
}
);
paths = (
{
closed = 1;
nodes = (
"1008 932 OFFCURVE",
"1022 930 OFFCURVE",
"1046 930 CURVE SMOOTH",
"1114 930 OFFCURVE",
"1134 976 OFFCURVE",
"1141 1016 CURVE SMOOTH",
"1172 1196 OFFCURVE",
"1040 1390 OFFCURVE",
"765 1390 CURVE SMOOTH",
"495 1390 OFFCURVE",
"222 1170 OFFCURVE",
"135 676 CURVE SMOOTH",
"71 314 OFFCURVE",
"146 -24 OFFCURVE",
"491 -24 CURVE SMOOTH",
"677 -24 OFFCURVE",
"853 60 OFFCURVE",
"973 168 CURVE",
"967 202 OFFCURVE",
"942 240 OFFCURVE",
"910 262 CURVE",
"767 148 OFFCURVE",
"643 102 OFFCURVE",
"534 102 CURVE SMOOTH",
"318 102 OFFCURVE",
"223 316 OFFCURVE",
"287 676 CURVE SMOOTH",
"355 1064 OFFCURVE",
"520 1268 OFFCURVE",
"743 1268 CURVE SMOOTH",
"968 1268 OFFCURVE",
"1006 1082 OFFCURVE",
"981 940 CURVE"
);
}
);
};
layerId = "1023D002-3304-4399-867A-B886C920D2C0";
paths = (
{
closed = 1;
nodes = (
"698 -24 OFFCURVE",
"874 60 OFFCURVE",
"967 168 CURVE",
"958 204 OFFCURVE",
"923 247 OFFCURVE",
"888 267 CURVE",
"788 168 OFFCURVE",
"654 104 OFFCURVE",
"543 104 CURVE SMOOTH",
"367 104 OFFCURVE",
"266 245 OFFCURVE",
"266 505 CURVE SMOOTH",
"266 820 OFFCURVE",
"410 1268 OFFCURVE",
"739 1268 CURVE SMOOTH",
"890 1268 OFFCURVE",
"965 1171 OFFCURVE",
"965 1019 CURVE SMOOTH",
"965 994 OFFCURVE",
"963 968 OFFCURVE",
"959 941 CURVE",
"980 934 OFFCURVE",
"1001 930 OFFCURVE",
"1020 930 CURVE SMOOTH",
"1090 930 OFFCURVE",
"1119 984 OFFCURVE",
"1119 1057 CURVE SMOOTH",
"1119 1222 OFFCURVE",
"1005 1390 OFFCURVE",
"753 1390 CURVE SMOOTH",
"319 1390 OFFCURVE",
"115 885 OFFCURVE",
"115 494 CURVE SMOOTH",
"115 162 OFFCURVE",
"263 -24 OFFCURVE",
"538 -24 CURVE SMOOTH"
);
}
);
width = 1106;
},
{
anchors = (
{
name = bottom;
position = "{539, 0}";
},
{
name = top;
position = "{796, 1466}";
}
);
associatedMasterId = "861B5D7F-E490-44BC-908E-F1CBF79092B0";
background = {
anchors = (
{
name = bottom;
position = "{550, 0}";
},
{
name = top;
position = "{807, 1466}";
}
);
paths = (
{
closed = 1;
nodes = (
"729 -30 OFFCURVE",
"951 70 OFFCURVE",
"1083 184 CURVE",
"1083 262 OFFCURVE",
"1025 356 OFFCURVE",
"969 400 CURVE",
"873 335 OFFCURVE",
"758 262 OFFCURVE",
"627 262 CURVE SMOOTH",
"469 262 OFFCURVE",
"405 398 OFFCURVE",
"454 676 CURVE SMOOTH",
"506 972 OFFCURVE",
"589 1132 OFFCURVE",
"740 1132 CURVE SMOOTH",
"896 1132 OFFCURVE",
"909 980 OFFCURVE",
"876 812 CURVE",
"914 802 OFFCURVE",
"950 794 OFFCURVE",
"998 794 CURVE SMOOTH",
"1116 794 OFFCURVE",
"1200 846 OFFCURVE",
"1223 978 CURVE SMOOTH",
"1265 1218 OFFCURVE",
"1099 1398 OFFCURVE",
"799 1398 CURVE SMOOTH",
"488 1398 OFFCURVE",
"191 1182 OFFCURVE",
"102 678 CURVE SMOOTH",
"42 336 OFFCURVE",
"102 -30 OFFCURVE",
"513 -30 CURVE SMOOTH"
);
}
);
};
layerId = "DB11310C-0A64-4394-BDFB-3F81034670F7";
name = "Oct 8 20, 14:17";
paths = (
{
closed = 1;
nodes = (
"774 -30 OFFCURVE",
"979 74 OFFCURVE",
"1072 187 CURVE",
"1056 263 OFFCURVE",
"991 349 OFFCURVE",
"924 393 CURVE",
"853 327 OFFCURVE",
"742 259 OFFCURVE",
"633 259 CURVE SMOOTH",
"508 259 OFFCURVE",
"436 336 OFFCURVE",
"436 519 CURVE SMOOTH",
"436 740 OFFCURVE",
"532 1132 OFFCURVE",
"742 1132 CURVE SMOOTH",
"833 1132 OFFCURVE",
"875 1074 OFFCURVE",
"875 958 CURVE SMOOTH",
"875 907 OFFCURVE",
"867 855 OFFCURVE",
"861 812 CURVE",
"888 802 OFFCURVE",
"934 792 OFFCURVE",
"988 792 CURVE SMOOTH",
"1145 792 OFFCURVE",
"1206 883 OFFCURVE",
"1206 1021 CURVE SMOOTH",
"1206 1251 OFFCURVE",
"1039 1396 OFFCURVE",
"780 1396 CURVE SMOOTH",
"300 1396 OFFCURVE",
"87 899 OFFCURVE",
"87 511 CURVE SMOOTH",
"87 134 OFFCURVE",
"288 -30 OFFCURVE",
"561 -30 CURVE SMOOTH"
);
}
);
width = 1164;
}
);
leftKerningGroup = C;
leftMetricsKey = O;
rightKerningGroup = C;
unicode = 0043;
},
{
color = 4;
glyphname = D;
lastChange = "2020-10-20 12:12:10 +0000";
layers = (
{
anchors = (
{
name = bottom;
position = "{602, 0}";
},
{
name = top;
position = "{602, 1464}";
}
);
background = {
anchors = (
{
name = bottom;
position = "{622, -40}";
},
{
name = top;
position = "{602, 1464}";
}
);
paths = (
{
closed = 1;
nodes = (
"1152 914 OFFCURVE",
"1120 1122 OFFCURVE",
"948 1270 CURVE SMOOTH",
"864 1342 OFFCURVE",
"714 1372 OFFCURVE",
"612 1372 CURVE",
"456 1372 OFFCURVE",
"386 1372 OFFCURVE",
"212 1366 CURVE",
"200 1354 LINE",
"200 12 LINE",
"212 0 LINE",
"386 -4 OFFCURVE",
"456 -8 OFFCURVE",
"612 -8 CURVE",
"714 -8 OFFCURVE",
"864 22 OFFCURVE",
"948 94 CURVE SMOOTH",
"1122 242 OFFCURVE",
"1152 448 OFFCURVE",
"1152 682 CURVE SMOOTH"
);
},
{
closed = 1;
nodes = (
"1000 422 OFFCURVE",
"950 114 OFFCURVE",
"610 114 CURVE SMOOTH",
"516 114 OFFCURVE",
"448 116 OFFCURVE",
"344 116 CURVE",
"344 1252 LINE",
"448 1252 OFFCURVE",
"516 1250 OFFCURVE",
"610 1250 CURVE SMOOTH",
"950 1250 OFFCURVE",
"1000 944 OFFCURVE",
"1000 682 CURVE"
);
}
);
};
guideLines = (
{
angle = 90;
position = "{602, 1410}";
}
);
layerId = UUID0;
paths = (
{
closed = 1;
nodes = (
"714 -8 OFFCURVE",
"864 22 OFFCURVE",
"948 94 CURVE SMOOTH",
"1122 242 OFFCURVE",
"1152 448 OFFCURVE",
"1152 682 CURVE SMOOTH",
"1152 914 OFFCURVE",
"1120 1122 OFFCURVE",
"948 1270 CURVE SMOOTH",
"864 1342 OFFCURVE",
"714 1372 OFFCURVE",
"612 1372 CURVE SMOOTH",
"456 1372 OFFCURVE",
"386 1372 OFFCURVE",
"212 1366 CURVE",
"200 1354 LINE",
"200 12 LINE",
"212 0 LINE",
"386 -4 OFFCURVE",
"456 -8 OFFCURVE",
"612 -8 CURVE SMOOTH"
);
},
{
closed = 1;
nodes = (
"344 1252 LINE",
"448 1252 OFFCURVE",
"516 1250 OFFCURVE",
"610 1250 CURVE SMOOTH",
"950 1250 OFFCURVE",
"1000 944 OFFCURVE",
"1000 682 CURVE SMOOTH",
"1000 422 OFFCURVE",
"950 114 OFFCURVE",
"610 114 CURVE SMOOTH",
"516 114 OFFCURVE",
"448 116 OFFCURVE",
"344 116 CURVE"
);
}
);
width = 1272;
},
{
anchors = (
{
name = bottom;
position = "{634, 0}";
},
{
name = top;
position = "{644, 1464}";
}
);
background = {
anchors = (
{
name = bottom;
position = "{644, -40}";
},
{
name = top;
position = "{644, 1464}";
}
);
paths = (
{
closed = 1;
nodes = (
"1270 916 OFFCURVE",
"1234 1130 OFFCURVE",
"1044 1278 CURVE SMOOTH",
"952 1350 OFFCURVE",
"786 1378 OFFCURVE",
"674 1378 CURVE",
"500 1378 OFFCURVE",
"334 1376 OFFCURVE",
"162 1370 CURVE",
"148 1356 LINE",
"148 10 LINE",
"162 -4 LINE",
"336 -8 OFFCURVE",
"500 -12 OFFCURVE",
"674 -12 CURVE",
"786 -12 OFFCURVE",
"951 16 OFFCURVE",
"1044 88 CURVE SMOOTH",
"1236 236 OFFCURVE",
"1270 450 OFFCURVE",
"1270 684 CURVE SMOOTH"
);
},
{
closed = 1;
nodes = (
"926 486 OFFCURVE",
"894 248 OFFCURVE",
"674 248 CURVE SMOOTH",
"608 248 OFFCURVE",
"550 248 OFFCURVE",
"482 246 CURVE",
"482 1120 LINE",
"550 1118 OFFCURVE",
"608 1118 OFFCURVE",
"674 1118 CURVE SMOOTH",
"894 1118 OFFCURVE",
"926 882 OFFCURVE",
"926 684 CURVE"
);
}
);
};
guideLines = (
{
angle = 90;
position = "{644, -1}";
}
);
layerId = UUID1;
paths = (
{
closed = 1;
nodes = (
"786 -12 OFFCURVE",
"951 16 OFFCURVE",
"1044 88 CURVE SMOOTH",
"1236 236 OFFCURVE",
"1270 450 OFFCURVE",
"1270 684 CURVE SMOOTH",
"1270 916 OFFCURVE",
"1234 1130 OFFCURVE",
"1044 1278 CURVE SMOOTH",
"952 1350 OFFCURVE",
"786 1378 OFFCURVE",
"674 1378 CURVE SMOOTH",
"500 1378 OFFCURVE",
"334 1376 OFFCURVE",
"162 1370 CURVE",
"148 1356 LINE",
"148 10 LINE",
"162 -4 LINE",
"336 -8 OFFCURVE",
"500 -12 OFFCURVE",
"674 -12 CURVE SMOOTH"
);
},
{
closed = 1;
nodes = (
"482 1120 LINE",
"550 1118 OFFCURVE",
"608 1118 OFFCURVE",
"674 1118 CURVE SMOOTH",
"894 1118 OFFCURVE",
"926 882 OFFCURVE",
"926 684 CURVE SMOOTH",
"926 486 OFFCURVE",
"894 248 OFFCURVE",
"674 248 CURVE SMOOTH",
"608 248 OFFCURVE",
"550 248 OFFCURVE",
"482 246 CURVE"
);
}
);
width = 1340;
},
{
anchors = (
{
name = bottom;
position = "{502, 0}";
},
{
name = top;
position = "{770, 1464}";
}
);
background = {
paths = (
{
closed = 1;
nodes = (
"1279 916 OFFCURVE",
"1281 1130 OFFCURVE",
"1117 1278 CURVE SMOOTH",
"1038 1350 OFFCURVE",
"877 1378 OFFCURVE",
"765 1378 CURVE SMOOTH",
"608 1378 OFFCURVE",
"457 1376 OFFCURVE",
"301 1370 CURVE",
"285 1356 LINE",
"47 10 LINE",
"59 -4 LINE",
"215 -8 OFFCURVE",
"362 -12 OFFCURVE",
"519 -12 CURVE SMOOTH",
"631 -12 OFFCURVE",
"801 16 OFFCURVE",
"907 88 CURVE SMOOTH",
"1125 236 OFFCURVE",
"1197 450 OFFCURVE",
"1238 684 CURVE SMOOTH"
);
},
{
closed = 1;
nodes = (
"859 486 OFFCURVE",
"785 248 OFFCURVE",
"565 248 CURVE SMOOTH",
"516 248 OFFCURVE",
"473 248 OFFCURVE",
"423 246 CURVE",
"577 1120 LINE",
"627 1118 OFFCURVE",
"670 1118 OFFCURVE",
"719 1118 CURVE SMOOTH",
"939 1118 OFFCURVE",
"929 882 OFFCURVE",
"894 684 CURVE SMOOTH"
);
}
);
};
layerId = "861B5D7F-E490-44BC-908E-F1CBF79092B0";
paths = (
{
closed = 1;
nodes = (
"671 -12 OFFCURVE",
"797 11 OFFCURVE",
"931 106 CURVE SMOOTH",
"1124 243 OFFCURVE",
"1250 544 OFFCURVE",
"1250 873 CURVE SMOOTH",
"1250 1051 OFFCURVE",
"1194 1187 OFFCURVE",
"1102 1269 CURVE SMOOTH",
"1022 1340 OFFCURVE",
"917 1378 OFFCURVE",
"700 1378 CURVE SMOOTH",
"617 1378 OFFCURVE",
"425 1375 OFFCURVE",
"301 1370 CURVE",
"285 1356 LINE",
"47 10 LINE",
"59 -4 LINE",
"95 -5 OFFCURVE",
"368 -12 OFFCURVE",
"473 -12 CURVE SMOOTH"
);
},
{
closed = 1;
nodes = (
"577 1120 LINE",
"626 1118 OFFCURVE",
"669 1118 OFFCURVE",
"729 1118 CURVE SMOOTH",
"875 1118 OFFCURVE",
"905 995 OFFCURVE",
"905 860 CURVE SMOOTH",
"905 578 OFFCURVE",
"799 248 OFFCURVE",
"568 248 CURVE SMOOTH",
"508 248 OFFCURVE",
"469 248 OFFCURVE",
"423 246 CURVE"
);
}
);
width = 1260;
},
{
anchors = (
{
name = bottom;
position = "{482, 0}";
},
{
name = top;
position = "{740, 1464}";
}
);
background = {
anchors = (
{
name = bottom;
position = "{495, 0}";
},
{
name = top;
position = "{753, 1464}";
}
);
paths = (
{
closed = 1;
nodes = (
"1166 914 OFFCURVE",
"1171 1122 OFFCURVE",
"1025 1270 CURVE SMOOTH",
"953 1342 OFFCURVE",
"809 1372 OFFCURVE",
"707 1372 CURVE SMOOTH",
"567 1372 OFFCURVE",
"504 1372 OFFCURVE",
"346 1366 CURVE",
"331 1354 LINE",
"95 12 LINE",
"105 0 LINE",
"261 -4 OFFCURVE",
"323 -8 OFFCURVE",
"463 -8 CURVE SMOOTH",
"565 -8 OFFCURVE",
"721 22 OFFCURVE",
"817 94 CURVE SMOOTH",
"1017 242 OFFCURVE",
"1084 448 OFFCURVE",
"1125 682 CURVE SMOOTH"
);
},
{
closed = 1;
nodes = (
"927 422 OFFCURVE",
"823 114 OFFCURVE",
"483 114 CURVE SMOOTH",
"403 114 OFFCURVE",
"345 116 OFFCURVE",
"257 116 CURVE",
"458 1252 LINE",
"546 1252 OFFCURVE",
"603 1250 OFFCURVE",
"683 1250 CURVE SMOOTH",
"1023 1250 OFFCURVE",
"1019 944 OFFCURVE",
"973 682 CURVE SMOOTH"
);
}
);
};
guideLines = (
{
angle = 90;
position = "{532, 1410}";
}
);
layerId = "1023D002-3304-4399-867A-B886C920D2C0";
paths = (
{
closed = 1;
nodes = (
"597 -8 OFFCURVE",
"727 27 OFFCURVE",
"836 113 CURVE SMOOTH",
"1012 253 OFFCURVE",
"1134 541 OFFCURVE",
"1134 873 CURVE SMOOTH",
"1134 1030 OFFCURVE",
"1092 1160 OFFCURVE",
"1017 1240 CURVE SMOOTH",
"934 1329 OFFCURVE",
"815 1371 OFFCURVE",
"626 1371 CURVE SMOOTH",
"549 1371 OFFCURVE",
"399 1369 OFFCURVE",
"346 1366 CURVE",
"333 1354 LINE",
"96 12 LINE",
"105 0 LINE",
"238 -4 OFFCURVE",
"330 -8 OFFCURVE",
"432 -8 CURVE SMOOTH"
);
},
{
closed = 1;
nodes = (
"459 1252 LINE",
"461 1252 OFFCURVE",
"588 1250 OFFCURVE",
"620 1250 CURVE SMOOTH",
"878 1250 OFFCURVE",
"982 1137 OFFCURVE",
"982 872 CURVE SMOOTH",
"982 461 OFFCURVE",
"815 114 OFFCURVE",
"462 114 CURVE SMOOTH",
"399 114 OFFCURVE",
"321 115 OFFCURVE",
"258 116 CURVE"
);
}
);
width = 1183;
}
);
leftKerningGroup = H;
leftMetricsKey = H;
rightKerningGroup = D;
unicode = 0044;
},
{
color = 4;
glyphname = E;
lastChange = "2020-10-20 12:38:06 +0000";
layers = (
{
anchors = (
{
name = bottom;
position = "{614, 0}";
},
{
name = ogonek;
position = "{916, 0}";
},
{
name = top;
position = "{598, 1464}";
}
);
background = {
anchors = (
{
name = bottom;
position = "{604, -40}";
},
{
name = top;
position = "{598, 1464}";
}
);
paths = (
{
closed = 1;
nodes = (
"200 96 LINE",
"200 36 OFFCURVE",
"232 0 OFFCURVE",
"282 0 CURVE SMOOTH",
"338 0 LINE",
"338 120 LINE SMOOTH",
"338 148 OFFCURVE",
"340 168 OFFCURVE",
"340 194 CURVE SMOOTH",
"340 1120 LINE",
"340 1174 OFFCURVE",
"338 1192 OFFCURVE",
"338 1248 CURVE SMOOTH",
"338 1366 LINE",
"212 1366 LINE",
"200 1354 LINE"
);
},
{
closed = 1;
nodes = (
"458 754 LINE SMOOTH",
"414 754 OFFCURVE",
"348 752 OFFCURVE",
"290 752 CURVE",
"290 632 LINE",
"348 632 OFFCURVE",
"414 630 OFFCURVE",
"458 630 CURVE SMOOTH",
"878 630 LINE",
"882 652 OFFCURVE",
"884 676 OFFCURVE",
"884 692 CURVE SMOOTH",
"884 708 OFFCURVE",
"882 732 OFFCURVE",
"878 754 CURVE"
);
},
{
closed = 1;
nodes = (
"290 1366 LINE",
"290 1244 LINE",
"348 1242 OFFCURVE",
"414 1242 OFFCURVE",
"458 1242 CURVE SMOOTH",
"974 1242 LINE",
"982 1264 OFFCURVE",
"984 1292 OFFCURVE",
"984 1308 CURVE SMOOTH",
"984 1324 OFFCURVE",
"984 1344 OFFCURVE",
"980 1366 CURVE"
);
},
{
closed = 1;
nodes = (
"460 126 LINE",
"388 126 OFFCURVE",
"340 122 OFFCURVE",
"290 118 CURVE",
"290 0 LINE",
"916 0 LINE SMOOTH",
"984 0 OFFCURVE",
"1012 26 OFFCURVE",
"1012 126 CURVE"
);
}
);
};
layerId = UUID0;
paths = (
{
closed = 1;
nodes = (
"338 0 LINE",
"338 120 LINE SMOOTH",
"338 148 OFFCURVE",
"340 168 OFFCURVE",
"340 194 CURVE SMOOTH",
"340 1120 LINE SMOOTH",
"340 1174 OFFCURVE",
"338 1192 OFFCURVE",
"338 1248 CURVE SMOOTH",
"338 1366 LINE",
"212 1366 LINE",
"200 1354 LINE",
"200 96 LINE SMOOTH",
"200 36 OFFCURVE",
"232 0 OFFCURVE",
"282 0 CURVE SMOOTH"
);
},
{
closed = 1;
nodes = (
"916 0 LINE SMOOTH",
"984 0 OFFCURVE",
"1012 26 OFFCURVE",
"1012 126 CURVE",
"460 126 LINE SMOOTH",
"388 126 OFFCURVE",
"340 122 OFFCURVE",
"290 118 CURVE",
"290 0 LINE"
);
},
{
closed = 1;
nodes = (
"878 630 LINE",
"882 652 OFFCURVE",
"884 676 OFFCURVE",
"884 692 CURVE SMOOTH",
"884 708 OFFCURVE",
"882 732 OFFCURVE",
"878 754 CURVE",
"458 754 LINE SMOOTH",
"414 754 OFFCURVE",
"348 752 OFFCURVE",
"290 752 CURVE",
"290 632 LINE",
"348 632 OFFCURVE",
"414 630 OFFCURVE",
"458 630 CURVE SMOOTH"
);
},
{
closed = 1;
nodes = (
"974 1242 LINE",
"982 1264 OFFCURVE",
"984 1292 OFFCURVE",
"984 1308 CURVE SMOOTH",
"984 1324 OFFCURVE",
"984 1344 OFFCURVE",
"980 1366 CURVE",
"290 1366 LINE",
"290 1244 LINE",
"348 1242 OFFCURVE",
"414 1242 OFFCURVE",
"458 1242 CURVE SMOOTH"
);
}
);
width = 1124;
},
{
anchors = (
{
name = bottom;
position = "{622, 0}";
},
{
name = ogonek;
position = "{930, 0}";
},
{
name = top;
position = "{598, 1464}";
}
);
background = {
anchors = (
{
name = bottom;
position = "{604, -40}";
},
{
name = top;
position = "{598, 1464}";
}
);
paths = (
{
closed = 1;
nodes = (
"146 188 LINE",
"146 68 OFFCURVE",
"218 -6 OFFCURVE",
"338 -6 CURVE SMOOTH",
"476 -6 LINE",
"476 272 LINE SMOOTH",
"476 328 OFFCURVE",
"478 368 OFFCURVE",
"478 422 CURVE SMOOTH",
"478 940 LINE",
"478 994 OFFCURVE",
"476 1034 OFFCURVE",
"476 1090 CURVE SMOOTH",
"476 1366 LINE",
"160 1366 LINE",
"146 1352 LINE"
);
},
{
closed = 1;
nodes = (
"614 822 LINE SMOOTH",
"564 822 OFFCURVE",
"426 820 OFFCURVE",
"362 818 CURVE",
"362 554 LINE",
"426 552 OFFCURVE",
"564 550 OFFCURVE",
"614 550 CURVE SMOOTH",
"910 550 LINE",
"924 592 OFFCURVE",
"930 648 OFFCURVE",
"930 686 CURVE SMOOTH",
"930 722 OFFCURVE",
"924 782 OFFCURVE",
"910 822 CURVE"
);
},
{
closed = 1;
nodes = (
"362 1366 LINE",
"362 1090 LINE",
"426 1088 OFFCURVE",
"564 1086 OFFCURVE",
"614 1086 CURVE SMOOTH",
"1014 1086 LINE",
"1032 1136 OFFCURVE",
"1042 1196 OFFCURVE",
"1042 1234 CURVE SMOOTH",
"1042 1272 OFFCURVE",
"1040 1316 OFFCURVE",
"1030 1366 CURVE"
);
},
{
closed = 1;
nodes = (
"626 274 LINE",
"526 274 OFFCURVE",
"452 268 OFFCURVE",
"362 264 CURVE",
"362 -6 LINE",
"862 -6 LINE SMOOTH",
"1040 -6 OFFCURVE",
"1082 91 OFFCURVE",
"1082 274 CURVE"
);
}
);
};
layerId = UUID1;
paths = (
{
closed = 1;
nodes = (
"476 -6 LINE",
"476 272 LINE SMOOTH",
"476 328 OFFCURVE",
"478 368 OFFCURVE",
"478 422 CURVE SMOOTH",
"478 940 LINE SMOOTH",
"478 994 OFFCURVE",
"476 1034 OFFCURVE",
"476 1090 CURVE SMOOTH",
"476 1366 LINE",
"160 1366 LINE",
"146 1352 LINE",
"146 188 LINE SMOOTH",
"146 68 OFFCURVE",
"218 -6 OFFCURVE",
"338 -6 CURVE SMOOTH"
);
},
{
closed = 1;
nodes = (
"862 -6 LINE SMOOTH",
"1040 -6 OFFCURVE",
"1082 91 OFFCURVE",
"1082 274 CURVE",
"626 274 LINE SMOOTH",
"526 274 OFFCURVE",
"452 268 OFFCURVE",
"362 264 CURVE",
"362 -6 LINE"
);
},
{
closed = 1;
nodes = (
"910 550 LINE",
"924 592 OFFCURVE",
"930 648 OFFCURVE",
"930 686 CURVE SMOOTH",
"930 722 OFFCURVE",
"924 782 OFFCURVE",
"910 822 CURVE",
"614 822 LINE SMOOTH",
"564 822 OFFCURVE",
"426 820 OFFCURVE",
"362 818 CURVE",
"362 554 LINE",
"426 552 OFFCURVE",
"564 550 OFFCURVE",
"614 550 CURVE SMOOTH"
);
},
{
closed = 1;
nodes = (
"1014 1086 LINE",
"1032 1136 OFFCURVE",
"1042 1196 OFFCURVE",
"1042 1234 CURVE SMOOTH",
"1042 1272 OFFCURVE",
"1040 1316 OFFCURVE",
"1030 1366 CURVE",
"362 1366 LINE",
"362 1090 LINE",
"426 1088 OFFCURVE",
"564 1086 OFFCURVE",
"614 1086 CURVE SMOOTH"
);
}
);
width = 1148;
},
{
anchors = (
{
name = bottom;
position = "{514, 0}";
},
{
name = ogonek;
position = "{822, 0}";
},
{
name = top;
position = "{748, 1464}";
}
);
background = {
anchors = (
{
name = bottom;
position = "{520, 0}";
},
{
name = ogonek;
position = "{797, 0}";
},
{
name = top;
position = "{755, 1464}";
}
);
paths = (
{
closed = 1;
nodes = (
"367 -6 LINE",
"416 272 LINE SMOOTH",
"426 328 OFFCURVE",
"435 368 OFFCURVE",
"445 422 CURVE SMOOTH",
"536 940 LINE SMOOTH",
"545 994 OFFCURVE",
"550 1034 OFFCURVE",
"560 1090 CURVE SMOOTH",
"609 1366 LINE",
"293 1366 LINE",
"276 1352 LINE",
"71 188 LINE SMOOTH",
"50 68 OFFCURVE",
"109 -6 OFFCURVE",
"229 -6 CURVE SMOOTH"
);
},
{
closed = 1;
nodes = (
"753 -6 LINE SMOOTH",
"931 -6 OFFCURVE",
"990 91 OFFCURVE",
"1022 274 CURVE",
"566 274 LINE SMOOTH",
"466 274 OFFCURVE",
"391 268 OFFCURVE",
"301 264 CURVE",
"253 -6 LINE"
);
},
{
closed = 1;
nodes = (
"899 550 LINE",
"920 592 OFFCURVE",
"936 648 OFFCURVE",
"943 686 CURVE SMOOTH",
"949 722 OFFCURVE",
"954 782 OFFCURVE",
"947 822 CURVE",
"651 822 LINE SMOOTH",
"601 822 OFFCURVE",
"463 820 OFFCURVE",
"398 818 CURVE",
"352 554 LINE",
"415 552 OFFCURVE",
"553 550 OFFCURVE",
"603 550 CURVE SMOOTH"
);
},
{
closed = 1;
nodes = (
"1098 1086 LINE",
"1124 1136 OFFCURVE",
"1145 1196 OFFCURVE",
"1152 1234 CURVE SMOOTH",
"1158 1272 OFFCURVE",
"1164 1316 OFFCURVE",
"1163 1366 CURVE",
"495 1366 LINE",
"446 1090 LINE",
"510 1088 OFFCURVE",
"648 1086 OFFCURVE",
"698 1086 CURVE SMOOTH"
);
}
);
};
layerId = "861B5D7F-E490-44BC-908E-F1CBF79092B0";
paths = (
{
closed = 1;
nodes = (
"367 -6 LINE",
"416 272 LINE SMOOTH",
"426 328 OFFCURVE",
"435 368 OFFCURVE",
"445 422 CURVE SMOOTH",
"536 940 LINE SMOOTH",
"545 994 OFFCURVE",
"550 1034 OFFCURVE",
"560 1090 CURVE SMOOTH",
"609 1366 LINE",
"293 1366 LINE",
"276 1352 LINE",
"78 230 LINE SMOOTH",
"73 203 OFFCURVE",
"67 163 OFFCURVE",
"67 139 CURVE SMOOTH",
"67 49 OFFCURVE",
"119 -6 OFFCURVE",
"230 -6 CURVE SMOOTH"
);
},
{
closed = 1;
nodes = (
"721 -6 LINE SMOOTH",
"909 -6 OFFCURVE",
"953 83 OFFCURVE",
"970 274 CURVE",
"566 274 LINE SMOOTH",
"466 274 OFFCURVE",
"391 268 OFFCURVE",
"301 264 CURVE",
"253 -6 LINE"
);
},
{
closed = 1;
nodes = (
"869 550 LINE",
"905 638 OFFCURVE",
"923 750 OFFCURVE",
"917 822 CURVE",
"651 822 LINE SMOOTH",
"601 822 OFFCURVE",
"463 820 OFFCURVE",
"398 818 CURVE",
"352 554 LINE",
"415 552 OFFCURVE",
"553 550 OFFCURVE",
"603 550 CURVE SMOOTH"
);
},
{
closed = 1;
nodes = (
"1069 1086 LINE",
"1106 1177 OFFCURVE",
"1124 1292 OFFCURVE",
"1118 1366 CURVE",
"495 1366 LINE",
"446 1090 LINE",
"510 1088 OFFCURVE",
"648 1086 OFFCURVE",
"698 1086 CURVE SMOOTH"
);
}
);
width = 1070;
},
{
anchors = (
{
name = bottom;
position = "{467, 0}";
},
{
name = ogonek;
position = "{738, 0}";
},
{
name = top;
position = "{710, 1464}";
}
);
background = {
anchors = (
{
name = bottom;
position = "{467, 0}";
},
{
name = ogonek;
position = "{738, 0}";
},
{
name = top;
position = "{710, 1464}";
}
);
paths = (
{
closed = 1;
nodes = (
"111 96 LINE SMOOTH",
"100 36 OFFCURVE",
"124 0 OFFCURVE",
"168 0 CURVE SMOOTH",
"218 0 LINE",
"239 120 LINE SMOOTH",
"244 148 OFFCURVE",
"249 168 OFFCURVE",
"254 194 CURVE SMOOTH",
"418 1120 LINE SMOOTH",
"428 1174 OFFCURVE",
"428 1192 OFFCURVE",
"438 1248 CURVE SMOOTH",
"459 1366 LINE",
"346 1366 LINE",
"333 1354 LINE"
);
},
{
closed = 1;
nodes = (
"459 754 LINE SMOOTH",
"420 754 OFFCURVE",
"360 752 OFFCURVE",
"308 752 CURVE",
"287 632 LINE",
"339 632 OFFCURVE",
"398 630 OFFCURVE",
"437 630 CURVE SMOOTH",
"828 630 LINE",
"838 658 OFFCURVE",
"842 676 OFFCURVE",
"845 692 CURVE SMOOTH",
"848 708 OFFCURVE",
"850 730 OFFCURVE",
"850 754 CURVE"
);
},
{
closed = 1;
nodes = (
"416 1366 LINE",
"394 1244 LINE",
"446 1242 OFFCURVE",
"506 1242 OFFCURVE",
"545 1242 CURVE SMOOTH",
"1023 1242 LINE",
"1035 1265 OFFCURVE",
"1042 1297 OFFCURVE",
"1044 1308 CURVE SMOOTH",
"1046 1319 OFFCURVE",
"1050 1347 OFFCURVE",
"1050 1366 CURVE"
);
},
{
closed = 1;
nodes = (
"350 126 LINE SMOOTH",
"285 126 OFFCURVE",
"242 122 OFFCURVE",
"196 118 CURVE",
"175 0 LINE",
"751 0 LINE SMOOTH",
"792 0 OFFCURVE",
"838 0 OFFCURVE",
"860 126 CURVE"
);
}
);
};
layerId = "1023D002-3304-4399-867A-B886C920D2C0";
paths = (
{
closed = 1;
nodes = (
"231 0 LINE",
"254 123 LINE SMOOTH",
"261 161 OFFCURVE",
"270 207 OFFCURVE",
"277 248 CURVE SMOOTH",
"429 1109 LINE SMOOTH",
"437 1153 OFFCURVE",
"444 1202 OFFCURVE",
"452 1248 CURVE SMOOTH",
"472 1366 LINE",
"345 1366 LINE",
"332 1354 LINE",
"116 129 LINE SMOOTH",
"112 107 OFFCURVE",
"110 91 OFFCURVE",
"110 78 CURVE SMOOTH",
"110 23 OFFCURVE",
"144 0 OFFCURVE",
"194 0 CURVE SMOOTH"
);
},
{
closed = 1;
nodes = (
"732 0 LINE SMOOTH",
"825 0 OFFCURVE",
"855 21 OFFCURVE",
"863 126 CURVE",
"413 126 LINE SMOOTH",
"333 126 OFFCURVE",
"222 125 OFFCURVE",
"166 111 CURVE",
"194 0 LINE"
);
},
{
closed = 1;
nodes = (
"826 630 LINE",
"845 669 OFFCURVE",
"852 713 OFFCURVE",
"850 754 CURVE",
"472 754 LINE SMOOTH",
"433 754 OFFCURVE",
"373 752 OFFCURVE",
"321 752 CURVE",
"300 632 LINE",
"352 632 OFFCURVE",
"411 630 OFFCURVE",
"450 630 CURVE SMOOTH"
);
},
{
closed = 1;
nodes = (
"1024 1242 LINE",
"1043 1281 OFFCURVE",
"1050 1325 OFFCURVE",
"1048 1366 CURVE",
"429 1366 LINE",
"407 1244 LINE",
"459 1242 OFFCURVE",
"519 1242 OFFCURVE",
"558 1242 CURVE SMOOTH"
);
}
);
width = 1026;
}
);
leftKerningGroup = E;
rightKerningGroup = E;
unicode = 0045;
},
{
color = 4;
glyphname = F;
lastChange = "2020-10-20 12:38:19 +0000";
layers = (
{
anchors = (
{
name = top;
position = "{598, 1464}";
}
);
background = {
anchors = (
{
name = bottom;
position = "{270, -40}";
},
{
name = top;
position = "{598, 1464}";
}
);
paths = (
{
closed = 1;
nodes = (
"344 958 LINE SMOOTH",
"344 1056 OFFCURVE",
"342 1156 OFFCURVE",
"342 1254 CURVE SMOOTH",
"342 1366 LINE",
"212 1366 LINE",
"200 1354 LINE",
"200 0 LINE",
"218 -4 OFFCURVE",
"244 -6 OFFCURVE",
"270 -6 CURVE SMOOTH",
"298 -6 OFFCURVE",
"324 -4 OFFCURVE",
"344 0 CURVE"
);
},
{
closed = 1;
nodes = (
"290 1366 LINE",
"290 1248 LINE",
"358 1242 OFFCURVE",
"448 1240 OFFCURVE",
"564 1240 CURVE SMOOTH",
"886 1240 LINE SMOOTH",
"946 1240 OFFCURVE",
"974 1260 OFFCURVE",
"974 1306 CURVE SMOOTH",
"974 1326 OFFCURVE",
"970 1348 OFFCURVE",
"964 1366 CURVE"
);
},
{
closed = 1;
nodes = (
"458 754 LINE SMOOTH",
"414 754 OFFCURVE",
"348 752 OFFCURVE",
"290 752 CURVE",
"290 632 LINE",
"348 632 OFFCURVE",
"414 630 OFFCURVE",
"458 630 CURVE SMOOTH",
"868 630 LINE",
"872 652 OFFCURVE",
"874 676 OFFCURVE",
"874 692 CURVE SMOOTH",
"874 708 OFFCURVE",
"872 732 OFFCURVE",
"868 754 CURVE"
);
}
);
};
layerId = UUID0;
paths = (
{
closed = 1;
nodes = (
"298 -6 OFFCURVE",
"324 -4 OFFCURVE",
"344 0 CURVE",
"344 958 LINE SMOOTH",
"344 1056 OFFCURVE",
"342 1156 OFFCURVE",
"342 1254 CURVE SMOOTH",
"342 1366 LINE",
"212 1366 LINE",
"200 1354 LINE",
"200 0 LINE",
"218 -4 OFFCURVE",
"244 -6 OFFCURVE",
"270 -6 CURVE SMOOTH"
);
},
{
closed = 1;
nodes = (
"868 630 LINE",
"872 652 OFFCURVE",
"874 676 OFFCURVE",
"874 692 CURVE SMOOTH",
"874 708 OFFCURVE",
"872 732 OFFCURVE",
"868 754 CURVE",
"458 754 LINE SMOOTH",
"414 754 OFFCURVE",
"348 752 OFFCURVE",
"290 752 CURVE",
"290 632 LINE",
"348 632 OFFCURVE",
"414 630 OFFCURVE",
"458 630 CURVE SMOOTH"
);
},
{
closed = 1;
nodes = (
"886 1240 LINE SMOOTH",
"946 1240 OFFCURVE",
"974 1260 OFFCURVE",
"974 1306 CURVE SMOOTH",
"974 1326 OFFCURVE",
"970 1348 OFFCURVE",
"964 1366 CURVE",
"290 1366 LINE",
"290 1248 LINE",
"358 1242 OFFCURVE",
"448 1240 OFFCURVE",
"564 1240 CURVE SMOOTH"
);
}
);
width = 1026;
},
{
anchors = (
{
name = top;
position = "{590, 1464}";
}
);
background = {
anchors = (
{
name = bottom;
position = "{320, -40}";
},
{
name = top;
position = "{590, 1464}";
}
);
paths = (
{
closed = 1;
nodes = (
"484 936 LINE SMOOTH",
"484 1042 OFFCURVE",
"482 1160 OFFCURVE",
"482 1272 CURVE SMOOTH",
"482 1366 LINE",
"162 1366 LINE",
"148 1354 LINE",
"148 0 LINE",
"206 -10 OFFCURVE",
"274 -12 OFFCURVE",
"320 -12 CURVE SMOOTH",
"366 -12 OFFCURVE",
"426 -10 OFFCURVE",
"484 0 CURVE"
);
},
{
closed = 1;
nodes = (
"344 1366 LINE",
"344 1084 LINE",
"434 1084 OFFCURVE",
"520 1082 OFFCURVE",
"618 1082 CURVE SMOOTH",
"862 1082 LINE SMOOTH",
"982 1082 OFFCURVE",
"1040 1128 OFFCURVE",
"1040 1238 CURVE SMOOTH",
"1040 1276 OFFCURVE",
"1036 1330 OFFCURVE",
"1026 1366 CURVE"
);
},
{
closed = 1;
nodes = (
"516 816 LINE SMOOTH",
"458 816 OFFCURVE",
"394 814 OFFCURVE",
"356 812 CURVE",
"356 546 LINE",
"394 544 OFFCURVE",
"458 542 OFFCURVE",
"516 542 CURVE SMOOTH",
"902 542 LINE",
"914 582 OFFCURVE",
"920 642 OFFCURVE",
"920 680 CURVE SMOOTH",
"920 716 OFFCURVE",
"914 778 OFFCURVE",
"902 816 CURVE"
);
}
);
};
layerId = UUID1;
paths = (
{
closed = 1;
nodes = (
"366 -12 OFFCURVE",
"426 -10 OFFCURVE",
"484 0 CURVE",
"484 936 LINE SMOOTH",
"484 1042 OFFCURVE",
"482 1160 OFFCURVE",
"482 1272 CURVE SMOOTH",
"482 1366 LINE",
"162 1366 LINE",
"148 1354 LINE",
"148 0 LINE",
"206 -10 OFFCURVE",
"274 -12 OFFCURVE",
"320 -12 CURVE SMOOTH"
);
},
{
closed = 1;
nodes = (
"902 542 LINE",
"914 582 OFFCURVE",
"920 642 OFFCURVE",
"920 680 CURVE SMOOTH",
"920 716 OFFCURVE",
"914 778 OFFCURVE",
"902 816 CURVE",
"516 816 LINE SMOOTH",
"458 816 OFFCURVE",
"394 814 OFFCURVE",
"356 812 CURVE",
"356 546 LINE",
"394 544 OFFCURVE",
"458 542 OFFCURVE",
"516 542 CURVE SMOOTH"
);
},
{
closed = 1;
nodes = (
"862 1082 LINE SMOOTH",
"982 1082 OFFCURVE",
"1040 1128 OFFCURVE",
"1040 1238 CURVE SMOOTH",
"1040 1276 OFFCURVE",
"1036 1330 OFFCURVE",
"1026 1366 CURVE",
"344 1366 LINE",
"344 1084 LINE",
"434 1084 OFFCURVE",
"520 1082 OFFCURVE",
"618 1082 CURVE SMOOTH"
);
}
);
width = 1074;
},
{
anchors = (
{
name = top;
position = "{746, 1464}";
}
);
background = {
anchors = (
{
name = top;
position = "{746, 1464}";
}
);
paths = (
{
closed = 1;
nodes = (
"547 936 LINE SMOOTH",
"565 1042 OFFCURVE",
"584 1160 OFFCURVE",
"604 1272 CURVE SMOOTH",
"620 1366 LINE",
"300 1366 LINE",
"284 1354 LINE",
"46 0 LINE",
"102 -10 OFFCURVE",
"170 -12 OFFCURVE",
"216 -12 CURVE SMOOTH",
"262 -12 OFFCURVE",
"322 -10 OFFCURVE",
"382 0 CURVE"
);
},
{
closed = 1;
nodes = (
"482 1366 LINE",
"433 1084 LINE",
"523 1084 OFFCURVE",
"608 1082 OFFCURVE",
"706 1082 CURVE SMOOTH",
"950 1082 LINE SMOOTH",
"1070 1082 OFFCURVE",
"1137 1128 OFFCURVE",
"1156 1238 CURVE SMOOTH",
"1163 1276 OFFCURVE",
"1168 1330 OFFCURVE",
"1164 1366 CURVE"
);
},
{
closed = 1;
nodes = (
"558 816 LINE SMOOTH",
"500 816 OFFCURVE",
"435 814 OFFCURVE",
"397 812 CURVE",
"350 546 LINE",
"388 544 OFFCURVE",
"451 542 OFFCURVE",
"509 542 CURVE SMOOTH",
"895 542 LINE",
"914 582 OFFCURVE",
"931 642 OFFCURVE",
"938 680 CURVE SMOOTH",
"944 716 OFFCURVE",
"949 778 OFFCURVE",
"944 816 CURVE"
);
}
);
};
layerId = "861B5D7F-E490-44BC-908E-F1CBF79092B0";
paths = (
{
closed = 1;
nodes = (
"262 -12 OFFCURVE",
"322 -10 OFFCURVE",
"382 0 CURVE",
"547 936 LINE SMOOTH",
"566 1042 OFFCURVE",
"585 1160 OFFCURVE",
"604 1272 CURVE SMOOTH",
"620 1366 LINE",
"300 1366 LINE",
"284 1354 LINE",
"46 0 LINE",
"102 -10 OFFCURVE",
"170 -12 OFFCURVE",
"216 -12 CURVE SMOOTH"
);
},
{
closed = 1;
nodes = (
"857 531 LINE",
"893 619 OFFCURVE",
"911 731 OFFCURVE",
"905 803 CURVE",
"555 803 LINE SMOOTH",
"497 803 OFFCURVE",
"432 801 OFFCURVE",
"394 799 CURVE",
"347 535 LINE",
"385 533 OFFCURVE",
"448 531 OFFCURVE",
"506 531 CURVE SMOOTH"
);
},
{
closed = 1;
nodes = (
"912 1082 LINE SMOOTH",
"1082 1082 OFFCURVE",
"1116 1181 OFFCURVE",
"1128 1366 CURVE",
"482 1366 LINE",
"433 1084 LINE",
"523 1084 OFFCURVE",
"608 1082 OFFCURVE",
"706 1082 CURVE SMOOTH"
);
}
);
width = 1000;
},
{
anchors = (
{
name = top;
position = "{724, 1464}";
}
);
background = {
anchors = (
{
name = top;
position = "{724, 1464}";
}
);
paths = (
{
closed = 1;
nodes = (
"407 958 LINE SMOOTH",
"424 1056 OFFCURVE",
"440 1156 OFFCURVE",
"457 1254 CURVE SMOOTH",
"477 1366 LINE",
"360 1366 LINE",
"347 1354 LINE",
"108 0 LINE",
"123 -4 OFFCURVE",
"147 -6 OFFCURVE",
"170 -6 CURVE SMOOTH",
"194 -6 OFFCURVE",
"219 -4 OFFCURVE",
"238 0 CURVE"
);
},
{
closed = 1;
nodes = (
"430 1366 LINE",
"409 1248 LINE",
"478 1241 OFFCURVE",
"571 1240 OFFCURVE",
"655 1240 CURVE SMOOTH",
"944 1240 LINE SMOOTH",
"1003 1240 OFFCURVE",
"1038 1263 OFFCURVE",
"1038 1341 CURVE SMOOTH",
"1038 1350 OFFCURVE",
"1038 1358 OFFCURVE",
"1037 1366 CURVE"
);
},
{
closed = 1;
nodes = (
"473 754 LINE SMOOTH",
"434 754 OFFCURVE",
"374 752 OFFCURVE",
"322 752 CURVE",
"300 632 LINE",
"352 632 OFFCURVE",
"412 630 OFFCURVE",
"451 630 CURVE SMOOTH",
"820 630 LINE",
"828 652 OFFCURVE",
"834 676 OFFCURVE",
"837 692 CURVE SMOOTH",
"840 708 OFFCURVE",
"842 732 OFFCURVE",
"842 754 CURVE"
);
}
);
};
layerId = "1023D002-3304-4399-867A-B886C920D2C0";
paths = (
{
closed = 1;
nodes = (
"193 -6 OFFCURVE",
"219 -4 OFFCURVE",
"238 0 CURVE",
"407 958 LINE SMOOTH",
"424 1056 OFFCURVE",
"440 1156 OFFCURVE",
"457 1254 CURVE SMOOTH",
"477 1366 LINE",
"346 1366 LINE",
"333 1354 LINE",
"94 0 LINE",
"113 -4 OFFCURVE",
"142 -6 OFFCURVE",
"167 -6 CURVE SMOOTH"
);
},
{
closed = 1;
nodes = (
"823 630 LINE",
"841 669 OFFCURVE",
"848 713 OFFCURVE",
"845 754 CURVE",
"473 754 LINE SMOOTH",
"434 754 OFFCURVE",
"374 752 OFFCURVE",
"322 752 CURVE",
"300 632 LINE",
"352 632 OFFCURVE",
"412 630 OFFCURVE",
"451 630 CURVE SMOOTH"
);
},
{
closed = 1;
nodes = (
"948 1240 LINE SMOOTH",
"1027 1240 OFFCURVE",
"1046 1290 OFFCURVE",
"1047 1366 CURVE",
"430 1366 LINE",
"409 1248 LINE",
"478 1241 OFFCURVE",
"571 1240 OFFCURVE",
"655 1240 CURVE SMOOTH"
);
}
);
width = 936;
}
);
leftKerningGroup = H;
leftMetricsKey = H;
rightKerningGroup = F;
unicode = 0046;
},
{
color = 4;
glyphname = G;
lastChange = "2020-10-20 18:27:30 +0000";
layers = (
{
anchors = (
{
name = bottom;
position = "{670, 0}";
},
{
name = top;
position = "{682, 1464}";
}
);
background = {
anchors = (
{
name = bottom;
position = "{670, -40}";
},
{
name = top;
position = "{682, 1464}";
}
);
paths = (
{
closed = 1;
nodes = (
"1018 1334 OFFCURVE",
"842 1390 OFFCURVE",
"682 1390 CURVE SMOOTH",
"404 1390 OFFCURVE",
"116 1196 OFFCURVE",
"116 674 CURVE SMOOTH",
"116 336 OFFCURVE",
"242 -24 OFFCURVE",
"658 -24 CURVE SMOOTH",
"840 -24 OFFCURVE",
"1008 14 OFFCURVE",
"1130 64 CURVE",
"1058 182 LINE",
"992 150 OFFCURVE",
"866 104 OFFCURVE",
"684 104 CURVE SMOOTH",
"408 104 OFFCURVE",
"268 298 OFFCURVE",
"268 672 CURVE SMOOTH",
"268 1114 OFFCURVE",
"462 1260 OFFCURVE",
"670 1260 CURVE SMOOTH",
"820 1260 OFFCURVE",
"950 1208 OFFCURVE",
"1050 1128 CURVE",
"1080 1148 OFFCURVE",
"1116 1190 OFFCURVE",
"1128 1240 CURVE"
);
},
{
closed = 1;
nodes = (
"988 60 LINE",
"1130 64 LINE",
"1130 582 LINE",
"1002 628 LINE",
"992 584 OFFCURVE",
"988 524 OFFCURVE",
"988 432 CURVE"
);
},
{
closed = 1;
nodes = (
"712 682 LINE",
"706 664 OFFCURVE",
"700 636 OFFCURVE",
"700 620 CURVE SMOOTH",
"700 574 OFFCURVE",
"722 552 OFFCURVE",
"766 552 CURVE SMOOTH",
"868 552 OFFCURVE",
"1016 554 OFFCURVE",
"1130 556 CURVE",
"1130 582 LINE SMOOTH",
"1130 652 OFFCURVE",
"1100 682 OFFCURVE",
"1016 682 CURVE SMOOTH"
);
}
);
};
layerId = UUID0;
paths = (
{
closed = 1;
nodes = (
"820 -24 OFFCURVE",
"1008 14 OFFCURVE",
"1130 62 CURVE",
"1058 182 LINE",
"996 150 OFFCURVE",
"851 104 OFFCURVE",
"703 104 CURVE SMOOTH",
"408 104 OFFCURVE",
"268 288 OFFCURVE",
"268 670 CURVE SMOOTH",
"268 1114 OFFCURVE",
"457 1260 OFFCURVE",
"680 1260 CURVE SMOOTH",
"818 1260 OFFCURVE",
"957 1204 OFFCURVE",
"1050 1128 CURVE",
"1080 1148 OFFCURVE",
"1116 1190 OFFCURVE",
"1128 1240 CURVE",
"1020 1333 OFFCURVE",
"841 1390 OFFCURVE",
"687 1390 CURVE SMOOTH",
"402 1390 OFFCURVE",
"116 1196 OFFCURVE",
"116 673 CURVE SMOOTH",
"116 336 OFFCURVE",
"235 -24 OFFCURVE",
"677 -24 CURVE SMOOTH"
);
},
{
closed = 1;
nodes = (
"1130 62 LINE",
"1130 582 LINE",
"1002 628 LINE",
"992 584 OFFCURVE",
"988 524 OFFCURVE",
"988 432 CURVE SMOOTH",
"988 60 LINE"
);
},
{
closed = 1;
nodes = (
"1130 552 LINE",
"1130 582 LINE SMOOTH",
"1130 652 OFFCURVE",
"1100 682 OFFCURVE",
"1016 682 CURVE SMOOTH",
"712 682 LINE",
"706 664 OFFCURVE",
"700 639 OFFCURVE",
"700 617 CURVE SMOOTH",
"700 552 OFFCURVE",
"755 552 OFFCURVE",
"775 552 CURVE SMOOTH"
);
}
);
width = 1272;
},
{
anchors = (
{
name = bottom;
position = "{690, 0}";
},
{
name = top;
position = "{702, 1464}";
}
);
background = {
anchors = (
{
name = bottom;
position = "{690, -40}";
},
{
name = top;
position = "{702, 1464}";
}
);
paths = (
{
closed = 1;
nodes = (
"1070 1338 OFFCURVE",
"898 1396 OFFCURVE",
"702 1396 CURVE SMOOTH",
"384 1396 OFFCURVE",
"68 1156 OFFCURVE",
"68 674 CURVE SMOOTH",
"68 234 OFFCURVE",
"270 -30 OFFCURVE",
"678 -30 CURVE SMOOTH",
"904 -30 OFFCURVE",
"1096 14 OFFCURVE",
"1212 52 CURVE",
"1036 280 LINE",
"968 262 OFFCURVE",
"864 232 OFFCURVE",
"736 232 CURVE SMOOTH",
"528 232 OFFCURVE",
"410 366 OFFCURVE",
"410 672 CURVE SMOOTH",
"410 982 OFFCURVE",
"528 1120 OFFCURVE",
"728 1120 CURVE SMOOTH",
"838 1120 OFFCURVE",
"962 1078 OFFCURVE",
"1060 1014 CURVE",
"1128 1058 OFFCURVE",
"1202 1160 OFFCURVE",
"1208 1254 CURVE"
);
},
{
closed = 1;
nodes = (
"898 48 LINE",
"1212 52 LINE",
"1212 578 LINE",
"928 672 LINE",
"902 578 OFFCURVE",
"898 460 OFFCURVE",
"898 366 CURVE"
);
},
{
closed = 1;
nodes = (
"678 784 LINE",
"664 744 OFFCURVE",
"654 690 OFFCURVE",
"654 646 CURVE SMOOTH",
"654 542 OFFCURVE",
"704 506 OFFCURVE",
"814 506 CURVE SMOOTH",
"892 506 OFFCURVE",
"1086 508 OFFCURVE",
"1212 510 CURVE",
"1212 578 LINE SMOOTH",
"1212 698 OFFCURVE",
"1158 788 OFFCURVE",
"992 786 CURVE SMOOTH"
);
}
);
};
layerId = UUID1;
paths = (
{
closed = 1;
nodes = (
"904 -30 OFFCURVE",
"1096 14 OFFCURVE",
"1212 52 CURVE",
"1036 280 LINE",
"968 262 OFFCURVE",
"864 232 OFFCURVE",
"736 232 CURVE SMOOTH",
"528 232 OFFCURVE",
"410 366 OFFCURVE",
"410 672 CURVE SMOOTH",
"410 982 OFFCURVE",
"533 1120 OFFCURVE",
"733 1120 CURVE SMOOTH",
"843 1120 OFFCURVE",
"962 1078 OFFCURVE",
"1060 1014 CURVE",
"1128 1058 OFFCURVE",
"1202 1160 OFFCURVE",
"1208 1254 CURVE",
"1070 1338 OFFCURVE",
"898 1396 OFFCURVE",
"712 1396 CURVE SMOOTH",
"384 1396 OFFCURVE",
"68 1156 OFFCURVE",
"68 674 CURVE SMOOTH",
"68 234 OFFCURVE",
"270 -30 OFFCURVE",
"678 -30 CURVE SMOOTH"
);
},
{
closed = 1;
nodes = (
"1212 52 LINE",
"1212 578 LINE",
"928 672 LINE",
"902 578 OFFCURVE",
"898 460 OFFCURVE",
"898 366 CURVE SMOOTH",
"898 48 LINE"
);
},
{
closed = 1;
nodes = (
"1212 506 LINE",
"1212 578 LINE SMOOTH",
"1212 698 OFFCURVE",
"1158 784 OFFCURVE",
"992 784 CURVE SMOOTH",
"678 784 LINE",
"664 744 OFFCURVE",
"654 690 OFFCURVE",
"654 646 CURVE SMOOTH",
"654 542 OFFCURVE",
"704 506 OFFCURVE",
"814 506 CURVE SMOOTH"
);
}
);
width = 1312;
},
{
anchors = (
{
name = bottom;
position = "{532, -40}";
},
{
name = top;
position = "{809, 1464}";
}
);
background = {
paths = (
{
closed = 1;
nodes = (
"1160 1338 OFFCURVE",
"1005 1396 OFFCURVE",
"817 1396 CURVE SMOOTH",
"511 1396 OFFCURVE",
"170 1155 OFFCURVE",
"85 674 CURVE SMOOTH",
"8 235 OFFCURVE",
"158 -30 OFFCURVE",
"541 -30 CURVE SMOOTH",
"759 -30 OFFCURVE",
"952 14 OFFCURVE",
"1070 52 CURVE",
"934 280 LINE",
"867 262 OFFCURVE",
"765 232 OFFCURVE",
"645 232 CURVE SMOOTH",
"463 232 OFFCURVE",
"373 367 OFFCURVE",
"427 672 CURVE SMOOTH",
"482 981 OFFCURVE",
"609 1120 OFFCURVE",
"794 1120 CURVE SMOOTH",
"897 1120 OFFCURVE",
"1006 1078 OFFCURVE",
"1087 1014 CURVE",
"1163 1058 OFFCURVE",
"1255 1160 OFFCURVE",
"1278 1254 CURVE"
);
},
{
closed = 1;
nodes = (
"755 48 LINE",
"1070 52 LINE",
"1162 578 LINE",
"895 672 LINE",
"852 578 OFFCURVE",
"828 460 OFFCURVE",
"811 366 CURVE"
);
},
{
closed = 1;
nodes = (
"685 784 LINE",
"664 744 OFFCURVE",
"644 690 OFFCURVE",
"636 646 CURVE SMOOTH",
"618 542 OFFCURVE",
"662 506 OFFCURVE",
"772 506 CURVE SMOOTH",
"830 506 OFFCURVE",
"1024 508 OFFCURVE",
"1150 510 CURVE",
"1162 578 LINE SMOOTH",
"1184 698 OFFCURVE",
"1146 788 OFFCURVE",
"979 786 CURVE SMOOTH"
);
}
);
};
layerId = "861B5D7F-E490-44BC-908E-F1CBF79092B0";
paths = (
{
closed = 1;
nodes = (
"747 -29 OFFCURVE",
"916 2 OFFCURVE",
"1063 45 CURVE",
"876 268 LINE",
"821 249 OFFCURVE",
"731 225 OFFCURVE",
"649 225 CURVE SMOOTH",
"481 225 OFFCURVE",
"411 329 OFFCURVE",
"411 525 CURVE SMOOTH",
"411 774 OFFCURVE",
"514 1124 OFFCURVE",
"824 1124 CURVE SMOOTH",
"935 1124 OFFCURVE",
"1032 1076 OFFCURVE",
"1106 1024 CURVE",
"1191 1071 OFFCURVE",
"1260 1172 OFFCURVE",
"1271 1258 CURVE",
"1175 1337 OFFCURVE",
"1005 1400 OFFCURVE",
"826 1400 CURVE SMOOTH",
"347 1400 OFFCURVE",
"71 975 OFFCURVE",
"71 499 CURVE SMOOTH",
"71 146 OFFCURVE",
"232 -29 OFFCURVE",
"584 -29 CURVE SMOOTH"
);
},
{
closed = 1;
nodes = (
"1063 45 LINE",
"1148 529 LINE SMOOTH",
"1155 567 OFFCURVE",
"1159 599 OFFCURVE",
"1159 624 CURVE SMOOTH",
"1159 743 OFFCURVE",
"1087 793 OFFCURVE",
"990 793 CURVE SMOOTH",
"673 793 LINE",
"646 748 OFFCURVE",
"621 677 OFFCURVE",
"621 619 CURVE SMOOTH",
"621 546 OFFCURVE",
"661 510 OFFCURVE",
"739 510 CURVE SMOOTH",
"904 510 LINE",
"863 590 LINE",
"837 517 OFFCURVE",
"822 441 OFFCURVE",
"814 393 CURVE SMOOTH",
"752 40 LINE"
);
}
);
width = 1231;
},
{
anchors = (
{
name = bottom;
position = "{499, 0}";
},
{
name = top;
position = "{767, 1464}";
}
);
background = {
anchors = (
{
name = bottom;
position = "{499, 0}";
},
{
name = top;
position = "{767, 1464}";
}
);
paths = (
{
closed = 1;
nodes = (
"1095 1333 OFFCURVE",
"934 1390 OFFCURVE",
"787 1390 CURVE SMOOTH",
"532 1390 OFFCURVE",
"226 1196 OFFCURVE",
"134 673 CURVE SMOOTH",
"75 336 OFFCURVE",
"121 -24 OFFCURVE",
"527 -24 CURVE SMOOTH",
"664 -24 OFFCURVE",
"850 14 OFFCURVE",
"976 62 CURVE",
"925 182 LINE",
"861 150 OFFCURVE",
"716 104 OFFCURVE",
"576 104 CURVE SMOOTH",
"314 104 OFFCURVE",
"218 288 OFFCURVE",
"286 670 CURVE SMOOTH",
"364 1114 OFFCURVE",
"565 1260 OFFCURVE",
"757 1260 CURVE SMOOTH",
"887 1260 OFFCURVE",
"1009 1204 OFFCURVE",
"1083 1128 CURVE",
"1117 1148 OFFCURVE",
"1160 1190 OFFCURVE",
"1181 1240 CURVE"
);
},
{
closed = 1;
nodes = (
"833 60 LINE",
"976 62 LINE",
"1067 582 LINE",
"947 628 LINE",
"930 584 OFFCURVE",
"915 524 OFFCURVE",
"899 432 CURVE SMOOTH"
);
},
{
closed = 1;
nodes = (
"677 682 LINE",
"668 664 OFFCURVE",
"657 639 OFFCURVE",
"653 617 CURVE SMOOTH",
"642 552 OFFCURVE",
"697 552 OFFCURVE",
"717 552 CURVE SMOOTH",
"1062 552 LINE",
"1067 582 LINE SMOOTH",
"1079 652 OFFCURVE",
"1055 682 OFFCURVE",
"971 682 CURVE SMOOTH"
);
}
);
};
layerId = "1023D002-3304-4399-867A-B886C920D2C0";
paths = (
{
closed = 1;
nodes = (
"711 -24 OFFCURVE",
"856 13 OFFCURVE",
"976 60 CURVE",
"919 186 LINE",
"840 137 OFFCURVE",
"715 103 OFFCURVE",
"597 103 CURVE SMOOTH",
"373 103 OFFCURVE",
"267 227 OFFCURVE",
"267 498 CURVE SMOOTH",
"267 847 OFFCURVE",
"443 1260 OFFCURVE",
"788 1260 CURVE SMOOTH",
"899 1260 OFFCURVE",
"1010 1210 OFFCURVE",
"1085 1133 CURVE",
"1126 1148 OFFCURVE",
"1164 1187 OFFCURVE",
"1182 1233 CURVE",
"1108 1317 OFFCURVE",
"967 1390 OFFCURVE",
"800 1390 CURVE SMOOTH",
"375 1390 OFFCURVE",
"116 959 OFFCURVE",
"116 496 CURVE SMOOTH",
"116 202 OFFCURVE",
"221 -24 OFFCURVE",
"570 -24 CURVE SMOOTH"
);
},
{
closed = 1;
nodes = (
"976 60 LINE",
"1061 548 LINE SMOOTH",
"1064 565 OFFCURVE",
"1068 590 OFFCURVE",
"1068 606 CURVE SMOOTH",
"1068 655 OFFCURVE",
"1040 682 OFFCURVE",
"979 682 CURVE SMOOTH",
"667 682 LINE",
"656 659 OFFCURVE",
"647 634 OFFCURVE",
"647 609 CURVE SMOOTH",
"647 574 OFFCURVE",
"666 552 OFFCURVE",
"707 552 CURVE SMOOTH",
"969 552 LINE",
"940 592 LINE",
"919 537 OFFCURVE",
"910 481 OFFCURVE",
"901 432 CURVE SMOOTH",
"835 60 LINE"
);
}
);
width = 1180;
}
);
leftKerningGroup = C;
leftMetricsKey = O;
rightKerningGroup = G;
unicode = 0047;
},
{
color = 4;
glyphname = H;
lastChange = "2020-10-20 11:52:29 +0000";
layers = (
{
anchors = (
{
name = bottom;
position = "{667, 0}";
},
{
name = top;
position = "{666, 1464}";
}
);
background = {
anchors = (
{
name = bottom;
position = "{666, -40}";
},
{
name = top;
position = "{666, 1464}";
}
);
paths = (
{
closed = 1;
nodes = (
"870 642 LINE",
"882 642 OFFCURVE",
"978 644 OFFCURVE",
"992 644 CURVE SMOOTH",
"1020 644 OFFCURVE",
"1048 642 OFFCURVE",
"1076 642 CURVE",
"1076 770 LINE",
"1048 770 OFFCURVE",
"1020 768 OFFCURVE",
"992 768 CURVE SMOOTH",
"978 768 OFFCURVE",
"882 770 OFFCURVE",
"870 770 CURVE SMOOTH",
"464 770 LINE SMOOTH",
"452 770 OFFCURVE",
"356 768 OFFCURVE",
"342 768 CURVE SMOOTH",
"314 768 OFFCURVE",
"286 770 OFFCURVE",
"258 770 CURVE",
"258 642 LINE",
"286 642 OFFCURVE",
"314 644 OFFCURVE",
"342 644 CURVE SMOOTH",
"356 644 OFFCURVE",
"452 642 OFFCURVE",
"464 642 CURVE SMOOTH"
);
},
{
closed = 1;
nodes = (
"344 496 LINE SMOOTH",
"344 552 OFFCURVE",
"342 590 OFFCURVE",
"342 644 CURVE SMOOTH",
"342 768 LINE SMOOTH",
"342 822 OFFCURVE",
"344 860 OFFCURVE",
"344 916 CURVE SMOOTH",
"344 1366 LINE",
"324 1370 OFFCURVE",
"298 1372 OFFCURVE",
"270 1372 CURVE SMOOTH",
"244 1372 OFFCURVE",
"218 1370 OFFCURVE",
"200 1366 CURVE",
"200 0 LINE",
"218 -4 OFFCURVE",
"244 -6 OFFCURVE",
"270 -6 CURVE SMOOTH",
"298 -6 OFFCURVE",
"324 -4 OFFCURVE",
"344 0 CURVE"
);
},
{
closed = 1;
nodes = (
"990 0 LINE",
"1008 -4 OFFCURVE",
"1034 -6 OFFCURVE",
"1060 -6 CURVE SMOOTH",
"1088 -6 OFFCURVE",
"1114 -4 OFFCURVE",
"1134 0 CURVE",
"1134 1366 LINE",
"1114 1370 OFFCURVE",
"1088 1372 OFFCURVE",
"1060 1372 CURVE SMOOTH",
"1034 1372 OFFCURVE",
"1008 1370 OFFCURVE",
"990 1366 CURVE",
"990 916 LINE SMOOTH",
"990 860 OFFCURVE",
"992 822 OFFCURVE",
"992 768 CURVE SMOOTH",
"992 644 LINE SMOOTH",
"992 590 OFFCURVE",
"990 552 OFFCURVE",
"990 496 CURVE SMOOTH"
);
}
);
};
layerId = UUID0;
paths = (
{
closed = 1;
nodes = (
"870 642 LINE",
"882 642 OFFCURVE",
"978 644 OFFCURVE",
"992 644 CURVE SMOOTH",
"1020 644 OFFCURVE",
"1048 642 OFFCURVE",
"1076 642 CURVE",
"1076 770 LINE",
"1048 770 OFFCURVE",
"1020 768 OFFCURVE",
"992 768 CURVE SMOOTH",
"978 768 OFFCURVE",
"882 770 OFFCURVE",
"870 770 CURVE SMOOTH",
"464 770 LINE SMOOTH",
"452 770 OFFCURVE",
"356 768 OFFCURVE",
"342 768 CURVE SMOOTH",
"314 768 OFFCURVE",
"286 770 OFFCURVE",
"258 770 CURVE",
"258 642 LINE",
"286 642 OFFCURVE",
"314 644 OFFCURVE",
"342 644 CURVE SMOOTH",
"356 644 OFFCURVE",
"452 642 OFFCURVE",
"464 642 CURVE SMOOTH"
);
},
{
closed = 1;
nodes = (
"344 496 LINE SMOOTH",
"344 552 OFFCURVE",
"342 590 OFFCURVE",
"342 644 CURVE SMOOTH",
"342 768 LINE SMOOTH",
"342 822 OFFCURVE",
"344 860 OFFCURVE",
"344 916 CURVE SMOOTH",
"344 1366 LINE",
"324 1370 OFFCURVE",
"298 1372 OFFCURVE",
"270 1372 CURVE SMOOTH",
"244 1372 OFFCURVE",
"218 1370 OFFCURVE",
"200 1366 CURVE",
"200 0 LINE",
"218 -4 OFFCURVE",
"244 -6 OFFCURVE",
"270 -6 CURVE SMOOTH",
"298 -6 OFFCURVE",
"324 -4 OFFCURVE",
"344 0 CURVE"
);
},
{
closed = 1;
nodes = (
"990 0 LINE",
"1008 -4 OFFCURVE",
"1034 -6 OFFCURVE",
"1060 -6 CURVE SMOOTH",
"1088 -6 OFFCURVE",
"1114 -4 OFFCURVE",
"1134 0 CURVE",
"1134 1366 LINE",
"1114 1370 OFFCURVE",
"1088 1372 OFFCURVE",
"1060 1372 CURVE SMOOTH",
"1034 1372 OFFCURVE",
"1008 1370 OFFCURVE",
"990 1366 CURVE",
"990 916 LINE SMOOTH",
"990 860 OFFCURVE",
"992 822 OFFCURVE",
"992 768 CURVE SMOOTH",
"992 644 LINE SMOOTH",
"992 590 OFFCURVE",
"990 552 OFFCURVE",
"990 496 CURVE SMOOTH"
);
}
);
width = 1334;
},
{
anchors = (
{
name = bottom;
position = "{688, 0}";
},
{
name = top;
position = "{688, 1466}";
}
);
background = {
anchors = (
{
name = bottom;
position = "{688, -40}";
},
{
name = top;
position = "{688, 1466}";
}
);
paths = (
{
closed = 1;
nodes = (
"796 564 LINE",
"826 564 OFFCURVE",
"864 566 OFFCURVE",
"894 566 CURVE SMOOTH",
"960 566 OFFCURVE",
"1030 564 OFFCURVE",
"1096 564 CURVE",
"1096 844 LINE",
"1030 844 OFFCURVE",
"960 842 OFFCURVE",
"894 842 CURVE SMOOTH",
"864 842 OFFCURVE",
"826 844 OFFCURVE",
"796 844 CURVE SMOOTH",
"580 844 LINE SMOOTH",
"550 844 OFFCURVE",
"512 842 OFFCURVE",
"482 842 CURVE SMOOTH",
"416 842 OFFCURVE",
"346 844 OFFCURVE",
"280 844 CURVE",
"280 564 LINE",
"346 564 OFFCURVE",
"416 566 OFFCURVE",
"482 566 CURVE SMOOTH",
"512 566 OFFCURVE",
"550 564 OFFCURVE",
"580 564 CURVE SMOOTH"
);
},
{
closed = 1;
nodes = (
"484 418 LINE SMOOTH",
"484 474 OFFCURVE",
"482 512 OFFCURVE",
"482 566 CURVE SMOOTH",
"482 842 LINE SMOOTH",
"482 896 OFFCURVE",
"484 934 OFFCURVE",
"484 990 CURVE SMOOTH",
"484 1366 LINE",
"428 1376 OFFCURVE",
"360 1378 OFFCURVE",
"316 1378 CURVE SMOOTH",
"276 1378 OFFCURVE",
"202 1376 OFFCURVE",
"148 1366 CURVE",
"148 0 LINE",
"202 -10 OFFCURVE",
"276 -12 OFFCURVE",
"316 -12 CURVE SMOOTH",
"360 -12 OFFCURVE",
"428 -10 OFFCURVE",
"484 0 CURVE"
);
},
{
closed = 1;
nodes = (
"892 0 LINE",
"950 -10 OFFCURVE",
"1018 -12 OFFCURVE",
"1064 -12 CURVE SMOOTH",
"1110 -12 OFFCURVE",
"1170 -10 OFFCURVE",
"1228 0 CURVE",
"1228 1366 LINE",
"1174 1376 OFFCURVE",
"1100 1378 OFFCURVE",
"1060 1378 CURVE SMOOTH",
"1016 1378 OFFCURVE",
"948 1376 OFFCURVE",
"892 1366 CURVE",
"892 990 LINE SMOOTH",
"892 934 OFFCURVE",
"894 896 OFFCURVE",
"894 842 CURVE SMOOTH",
"894 566 LINE SMOOTH",
"894 512 OFFCURVE",
"892 474 OFFCURVE",
"892 418 CURVE SMOOTH"
);
}
);
};
layerId = UUID1;
paths = (
{
closed = 1;
nodes = (
"796 564 LINE",
"826 564 OFFCURVE",
"864 566 OFFCURVE",
"894 566 CURVE SMOOTH",
"960 566 OFFCURVE",
"1030 564 OFFCURVE",
"1096 564 CURVE",
"1096 844 LINE",
"1030 844 OFFCURVE",
"960 842 OFFCURVE",
"894 842 CURVE SMOOTH",
"864 842 OFFCURVE",
"826 844 OFFCURVE",
"796 844 CURVE SMOOTH",
"580 844 LINE SMOOTH",
"550 844 OFFCURVE",
"512 842 OFFCURVE",
"482 842 CURVE SMOOTH",
"416 842 OFFCURVE",
"346 844 OFFCURVE",
"280 844 CURVE",
"280 564 LINE",
"346 564 OFFCURVE",
"416 566 OFFCURVE",
"482 566 CURVE SMOOTH",
"512 566 OFFCURVE",
"550 564 OFFCURVE",
"580 564 CURVE SMOOTH"
);
},
{
closed = 1;
nodes = (
"484 418 LINE SMOOTH",
"484 474 OFFCURVE",
"482 512 OFFCURVE",
"482 566 CURVE SMOOTH",
"482 842 LINE SMOOTH",
"482 896 OFFCURVE",
"484 934 OFFCURVE",
"484 990 CURVE SMOOTH",
"484 1366 LINE",
"428 1376 OFFCURVE",
"360 1378 OFFCURVE",
"316 1378 CURVE SMOOTH",
"276 1378 OFFCURVE",
"202 1376 OFFCURVE",
"148 1366 CURVE",
"148 0 LINE",
"202 -10 OFFCURVE",
"276 -12 OFFCURVE",
"316 -12 CURVE SMOOTH",
"360 -12 OFFCURVE",
"428 -10 OFFCURVE",
"484 0 CURVE"
);
},
{
closed = 1;
nodes = (
"892 0 LINE",
"950 -10 OFFCURVE",
"1018 -12 OFFCURVE",
"1064 -12 CURVE SMOOTH",
"1110 -12 OFFCURVE",
"1170 -10 OFFCURVE",
"1228 0 CURVE",
"1228 1366 LINE",
"1174 1376 OFFCURVE",
"1100 1378 OFFCURVE",
"1060 1378 CURVE SMOOTH",
"1016 1378 OFFCURVE",
"948 1376 OFFCURVE",
"892 1366 CURVE",
"892 990 LINE SMOOTH",
"892 934 OFFCURVE",
"894 896 OFFCURVE",
"894 842 CURVE SMOOTH",
"894 566 LINE SMOOTH",
"894 512 OFFCURVE",
"892 474 OFFCURVE",
"892 418 CURVE SMOOTH"
);
}
);
width = 1376;
},
{
anchors = (
{
name = bottom;
position = "{641, 0}";
},
{
name = top;
position = "{899, 1466}";
}
);
background = {
anchors = (
{
name = bottom;
position = "{641, 0}";
},
{
name = top;
position = "{899, 1466}";
}
);
paths = (
{
closed = 1;
nodes = (
"828 564 LINE",
"857 564 OFFCURVE",
"886 566 OFFCURVE",
"915 566 CURVE SMOOTH",
"978 566 OFFCURVE",
"1044 564 OFFCURVE",
"1107 564 CURVE",
"1157 844 LINE",
"1094 844 OFFCURVE",
"1026 842 OFFCURVE",
"963 842 CURVE SMOOTH",
"934 842 OFFCURVE",
"907 844 OFFCURVE",
"878 844 CURVE SMOOTH",
"703 844 LINE SMOOTH",
"674 844 OFFCURVE",
"644 842 OFFCURVE",
"616 842 CURVE SMOOTH",
"553 842 OFFCURVE",
"486 844 OFFCURVE",
"423 844 CURVE",
"373 564 LINE",
"436 564 OFFCURVE",
"505 566 OFFCURVE",
"568 566 CURVE SMOOTH",
"596 566 OFFCURVE",
"624 564 OFFCURVE",
"653 564 CURVE SMOOTH"
);
},
{
closed = 1;
nodes = (
"544 418 LINE SMOOTH",
"554 474 OFFCURVE",
"559 512 OFFCURVE",
"568 566 CURVE SMOOTH",
"616 842 LINE SMOOTH",
"625 896 OFFCURVE",
"635 934 OFFCURVE",
"645 990 CURVE SMOOTH",
"711 1366 LINE",
"659 1376 OFFCURVE",
"591 1378 OFFCURVE",
"552 1378 CURVE SMOOTH",
"515 1378 OFFCURVE",
"443 1376 OFFCURVE",
"389 1366 CURVE",
"148 0 LINE",
"198 -10 OFFCURVE",
"270 -12 OFFCURVE",
"307 -12 CURVE SMOOTH",
"347 -12 OFFCURVE",
"414 -10 OFFCURVE",
"470 0 CURVE"
);
},
{
closed = 1;
nodes = (
"813 0 LINE",
"867 -10 OFFCURVE",
"932 -12 OFFCURVE",
"976 -12 CURVE SMOOTH",
"1019 -12 OFFCURVE",
"1077 -10 OFFCURVE",
"1135 0 CURVE",
"1376 1366 LINE",
"1326 1376 OFFCURVE",
"1252 1378 OFFCURVE",
"1217 1378 CURVE SMOOTH",
"1176 1378 OFFCURVE",
"1110 1376 OFFCURVE",
"1054 1366 CURVE",
"988 990 LINE SMOOTH",
"978 934 OFFCURVE",
"972 896 OFFCURVE",
"963 842 CURVE SMOOTH",
"915 566 LINE SMOOTH",
"906 512 OFFCURVE",
"897 474 OFFCURVE",
"887 418 CURVE SMOOTH"
);
}
);
};
layerId = "861B5D7F-E490-44BC-908E-F1CBF79092B0";
paths = (
{
closed = 1;
nodes = (
"753 564 LINE SMOOTH",
"783 564 OFFCURVE",
"821 566 OFFCURVE",
"851 566 CURVE SMOOTH",
"917 566 OFFCURVE",
"987 564 OFFCURVE",
"1053 564 CURVE",
"1102 844 LINE",
"1036 844 OFFCURVE",
"966 842 OFFCURVE",
"900 842 CURVE SMOOTH",
"870 842 OFFCURVE",
"832 844 OFFCURVE",
"802 844 CURVE SMOOTH",
"626 844 LINE SMOOTH",
"596 844 OFFCURVE",
"558 842 OFFCURVE",
"528 842 CURVE SMOOTH",
"462 842 OFFCURVE",
"392 844 OFFCURVE",
"326 844 CURVE",
"277 564 LINE",
"343 564 OFFCURVE",
"413 566 OFFCURVE",
"479 566 CURVE SMOOTH",
"509 566 OFFCURVE",
"547 564 OFFCURVE",
"577 564 CURVE SMOOTH"
);
},
{
closed = 1;
nodes = (
"455 418 LINE SMOOTH",
"465 474 OFFCURVE",
"469 512 OFFCURVE",
"479 566 CURVE SMOOTH",
"528 842 LINE SMOOTH",
"538 896 OFFCURVE",
"546 934 OFFCURVE",
"556 990 CURVE SMOOTH",
"622 1366 LINE",
"568 1376 OFFCURVE",
"501 1378 OFFCURVE",
"457 1378 CURVE SMOOTH",
"417 1378 OFFCURVE",
"342 1376 OFFCURVE",
"286 1366 CURVE",
"46 0 LINE",
"98 -10 OFFCURVE",
"171 -12 OFFCURVE",
"211 -12 CURVE SMOOTH",
"255 -12 OFFCURVE",
"324 -10 OFFCURVE",
"382 0 CURVE"
);
},
{
closed = 1;
nodes = (
"750 0 LINE",
"806 -10 OFFCURVE",
"873 -12 OFFCURVE",
"919 -12 CURVE SMOOTH",
"965 -12 OFFCURVE",
"1026 -10 OFFCURVE",
"1086 0 CURVE",
"1326 1366 LINE",
"1274 1376 OFFCURVE",
"1201 1378 OFFCURVE",
"1161 1378 CURVE SMOOTH",
"1117 1378 OFFCURVE",
"1048 1376 OFFCURVE",
"990 1366 CURVE",
"924 990 LINE SMOOTH",
"914 934 OFFCURVE",
"910 896 OFFCURVE",
"900 842 CURVE SMOOTH",
"851 566 LINE SMOOTH",
"841 512 OFFCURVE",
"833 474 OFFCURVE",
"823 418 CURVE SMOOTH"
);
}
);
width = 1307;
},
{
anchors = (
{
name = bottom;
position = "{533, 0}";
},
{
name = top;
position = "{790, 1464}";
}
);
background = {
anchors = (
{
name = bottom;
position = "{533, 0}";
},
{
name = top;
position = "{790, 1464}";
}
);
paths = (
{
closed = 1;
nodes = (
"822 642 LINE",
"834 642 OFFCURVE",
"930 644 OFFCURVE",
"944 644 CURVE SMOOTH",
"972 644 OFFCURVE",
"1000 642 OFFCURVE",
"1028 642 CURVE",
"1050 770 LINE",
"1022 770 OFFCURVE",
"994 768 OFFCURVE",
"966 768 CURVE SMOOTH",
"952 768 OFFCURVE",
"856 770 OFFCURVE",
"844 770 CURVE SMOOTH",
"493 770 LINE SMOOTH",
"481 770 OFFCURVE",
"385 768 OFFCURVE",
"371 768 CURVE SMOOTH",
"343 768 OFFCURVE",
"315 770 OFFCURVE",
"287 770 CURVE",
"265 642 LINE",
"293 642 OFFCURVE",
"321 644 OFFCURVE",
"349 644 CURVE SMOOTH",
"363 644 OFFCURVE",
"459 642 OFFCURVE",
"471 642 CURVE SMOOTH"
);
},
{
closed = 1;
nodes = (
"325 496 LINE SMOOTH",
"335 552 OFFCURVE",
"339 590 OFFCURVE",
"349 644 CURVE SMOOTH",
"371 768 LINE SMOOTH",
"381 822 OFFCURVE",
"389 860 OFFCURVE",
"399 916 CURVE SMOOTH",
"478 1366 LINE",
"459 1370 OFFCURVE",
"433 1372 OFFCURVE",
"405 1372 CURVE SMOOTH",
"379 1372 OFFCURVE",
"353 1370 OFFCURVE",
"334 1366 CURVE",
"94 0 LINE",
"111 -4 OFFCURVE",
"137 -6 OFFCURVE",
"163 -6 CURVE SMOOTH",
"191 -6 OFFCURVE",
"217 -4 OFFCURVE",
"238 0 CURVE"
);
},
{
closed = 1;
nodes = (
"829 0 LINE",
"846 -4 OFFCURVE",
"872 -6 OFFCURVE",
"898 -6 CURVE SMOOTH",
"926 -6 OFFCURVE",
"952 -4 OFFCURVE",
"973 0 CURVE",
"1213 1366 LINE",
"1194 1370 OFFCURVE",
"1168 1372 OFFCURVE",
"1140 1372 CURVE SMOOTH",
"1114 1372 OFFCURVE",
"1088 1370 OFFCURVE",
"1069 1366 CURVE",
"990 916 LINE SMOOTH",
"980 860 OFFCURVE",
"976 822 OFFCURVE",
"966 768 CURVE SMOOTH",
"944 644 LINE SMOOTH",
"934 590 OFFCURVE",
"926 552 OFFCURVE",
"916 496 CURVE SMOOTH"
);
}
);
};
layerId = "1023D002-3304-4399-867A-B886C920D2C0";
paths = (
{
closed = 1;
nodes = (
"834 642 LINE",
"846 642 OFFCURVE",
"929 644 OFFCURVE",
"948 644 CURVE SMOOTH",
"967 644 OFFCURVE",
"995 642 OFFCURVE",
"1019 642 CURVE",
"1042 770 LINE",
"1018 770 OFFCURVE",
"988 768 OFFCURVE",
"969 768 CURVE SMOOTH",
"950 768 OFFCURVE",
"869 770 OFFCURVE",
"857 770 CURVE SMOOTH",
"482 770 LINE SMOOTH",
"470 770 OFFCURVE",
"386 768 OFFCURVE",
"368 768 CURVE SMOOTH",
"350 768 OFFCURVE",
"319 770 OFFCURVE",
"296 770 CURVE",
"273 642 LINE",
"296 642 OFFCURVE",
"329 644 OFFCURVE",
"347 644 CURVE SMOOTH",
"365 644 OFFCURVE",
"447 642 OFFCURVE",
"459 642 CURVE SMOOTH"
);
},
{
closed = 1;
nodes = (
"325 494 LINE SMOOTH",
"335 550 OFFCURVE",
"341 596 OFFCURVE",
"350 644 CURVE SMOOTH",
"372 768 LINE SMOOTH",
"382 822 OFFCURVE",
"390 860 OFFCURVE",
"400 916 CURVE SMOOTH",
"479 1366 LINE",
"460 1370 OFFCURVE",
"432 1372 OFFCURVE",
"407 1372 CURVE SMOOTH",
"381 1372 OFFCURVE",
"354 1370 OFFCURVE",
"335 1366 CURVE",
"94 0 LINE",
"113 -4 OFFCURVE",
"142 -6 OFFCURVE",
"167 -6 CURVE SMOOTH",
"193 -6 OFFCURVE",
"219 -4 OFFCURVE",
"238 0 CURVE"
);
},
{
closed = 1;
nodes = (
"829 0 LINE",
"848 -4 OFFCURVE",
"877 -6 OFFCURVE",
"902 -6 CURVE SMOOTH",
"928 -6 OFFCURVE",
"954 -4 OFFCURVE",
"973 0 CURVE",
"1214 1366 LINE",
"1195 1370 OFFCURVE",
"1167 1372 OFFCURVE",
"1142 1372 CURVE SMOOTH",
"1116 1372 OFFCURVE",
"1089 1370 OFFCURVE",
"1070 1366 CURVE",
"991 916 LINE SMOOTH",
"981 860 OFFCURVE",
"976 822 OFFCURVE",
"966 768 CURVE SMOOTH",
"944 644 LINE SMOOTH",
"934 590 OFFCURVE",
"926 549 OFFCURVE",
"916 493 CURVE SMOOTH"
);
}
);
width = 1240;
}
);
leftKerningGroup = H;
rightKerningGroup = H;
rightMetricsKey = "=|";
unicode = 0048;
},
{
color = 4;
glyphname = I;
lastChange = "2020-10-20 12:32:11 +0000";
layers = (
{
anchors = (
{
name = bottom;
position = "{278, 0}";
},
{
name = ogonek;
position = "{352, 0}";
},
{
name = top;
position = "{280, 1464}";
}
);
background = {
anchors = (
{
name = bottom;
position = "{278, -40}";
},
{
name = top;
position = "{280, 1464}";
}
);
paths = (
{
closed = 1;
nodes = (
"208 0 LINE",
"226 -4 OFFCURVE",
"252 -6 OFFCURVE",
"278 -6 CURVE SMOOTH",
"306 -6 OFFCURVE",
"332 -4 OFFCURVE",
"352 0 CURVE",
"352 1366 LINE",
"332 1370 OFFCURVE",
"306 1372 OFFCURVE",
"278 1372 CURVE SMOOTH",
"252 1372 OFFCURVE",
"226 1370 OFFCURVE",
"208 1366 CURVE"
);
}
);
};
layerId = UUID0;
paths = (
{
closed = 1;
nodes = (
"208 0 LINE",
"226 -4 OFFCURVE",
"252 -6 OFFCURVE",
"278 -6 CURVE SMOOTH",
"306 -6 OFFCURVE",
"332 -4 OFFCURVE",
"352 0 CURVE",
"352 1366 LINE",
"332 1370 OFFCURVE",
"306 1372 OFFCURVE",
"278 1372 CURVE SMOOTH",
"252 1372 OFFCURVE",
"226 1370 OFFCURVE",
"208 1366 CURVE"
);
}
);
width = 560;
},
{
anchors = (
{
name = bottom;
position = "{320, 0}";
},
{
name = ogonek;
position = "{488, 0}";
},
{
name = top;
position = "{320, 1466}";
}
);
background = {
anchors = (
{
name = bottom;
position = "{320, -40}";
},
{
name = top;
position = "{320, 1466}";
}
);
paths = (
{
closed = 1;
nodes = (
"152 0 LINE",
"206 -10 OFFCURVE",
"280 -12 OFFCURVE",
"320 -12 CURVE SMOOTH",
"364 -12 OFFCURVE",
"432 -10 OFFCURVE",
"488 0 CURVE",
"488 1366 LINE",
"432 1376 OFFCURVE",
"364 1378 OFFCURVE",
"320 1378 CURVE SMOOTH",
"280 1378 OFFCURVE",
"206 1376 OFFCURVE",
"152 1366 CURVE"
);
}
);
};
layerId = UUID1;
paths = (
{
closed = 1;
nodes = (
"152 0 LINE",
"206 -10 OFFCURVE",
"280 -12 OFFCURVE",
"320 -12 CURVE SMOOTH",
"364 -12 OFFCURVE",
"432 -10 OFFCURVE",
"488 0 CURVE",
"488 1366 LINE",
"432 1376 OFFCURVE",
"364 1378 OFFCURVE",
"320 1378 CURVE SMOOTH",
"280 1378 OFFCURVE",
"206 1376 OFFCURVE",
"152 1366 CURVE"
);
}
);
width = 640;
},
{
anchors = (
{
name = bottom;
position = "{217, 0}";
},
{
name = ogonek;
position = "{378, 0}";
},
{
name = top;
position = "{475, 1466}";
}
);
background = {
anchors = (
{
name = bottom;
position = "{217, 0}";
},
{
name = ogonek;
position = "{378, 0}";
},
{
name = top;
position = "{475, 1466}";
}
);
paths = (
{
closed = 1;
nodes = (
"56 0 LINE",
"106 -10 OFFCURVE",
"179 -12 OFFCURVE",
"215 -12 CURVE SMOOTH",
"255 -12 OFFCURVE",
"322 -10 OFFCURVE",
"378 0 CURVE",
"619 1366 LINE",
"567 1376 OFFCURVE",
"499 1378 OFFCURVE",
"460 1378 CURVE SMOOTH",
"423 1378 OFFCURVE",
"351 1376 OFFCURVE",
"297 1366 CURVE"
);
}
);
};
layerId = "861B5D7F-E490-44BC-908E-F1CBF79092B0";
paths = (
{
closed = 1;
nodes = (
"50 0 LINE",
"102 -10 OFFCURVE",
"175 -12 OFFCURVE",
"215 -12 CURVE SMOOTH",
"259 -12 OFFCURVE",
"328 -10 OFFCURVE",
"386 0 CURVE",
"626 1366 LINE",
"572 1376 OFFCURVE",
"505 1378 OFFCURVE",
"461 1378 CURVE SMOOTH",
"421 1378 OFFCURVE",
"346 1376 OFFCURVE",
"290 1366 CURVE"
);
}
);
width = 611;
},
{
anchors = (
{
name = bottom;
position = "{170, 0}";
},
{
name = ogonek;
position = "{237, 0}";
},
{
name = top;
position = "{430, 1464}";
}
);
background = {
anchors = (
{
name = bottom;
position = "{170, 0}";
},
{
name = ogonek;
position = "{237, 0}";
},
{
name = top;
position = "{430, 1464}";
}
);
paths = (
{
closed = 1;
nodes = (
"107 0 LINE",
"122 -4 OFFCURVE",
"146 -6 OFFCURVE",
"169 -6 CURVE SMOOTH",
"193 -6 OFFCURVE",
"218 -4 OFFCURVE",
"237 0 CURVE",
"478 1366 LINE",
"461 1370 OFFCURVE",
"435 1372 OFFCURVE",
"412 1372 CURVE SMOOTH",
"389 1372 OFFCURVE",
"365 1370 OFFCURVE",
"348 1366 CURVE"
);
}
);
};
layerId = "1023D002-3304-4399-867A-B886C920D2C0";
paths = (
{
closed = 1;
nodes = (
"100 0 LINE",
"119 -4 OFFCURVE",
"148 -6 OFFCURVE",
"173 -6 CURVE SMOOTH",
"199 -6 OFFCURVE",
"225 -4 OFFCURVE",
"244 0 CURVE",
"485 1366 LINE",
"466 1370 OFFCURVE",
"437 1372 OFFCURVE",
"412 1372 CURVE SMOOTH",
"386 1372 OFFCURVE",
"360 1370 OFFCURVE",
"341 1366 CURVE"
);
}
);
width = 517;
}
);
leftKerningGroup = H;
rightKerningGroup = H;
rightMetricsKey = "=|";
unicode = 0049;
},
{
color = 4;
glyphname = J;
lastChange = "2020-10-21 10:57:19 +0000";
layers = (
{
anchors = (
{
name = top;
position = "{626, 1464}";
}
);
background = {
anchors = (
{
name = bottom;
position = "{382, -40}";
},
{
name = top;
position = "{626, 1464}";
}
);
paths = (
{
closed = 1;
nodes = (
"50 142 OFFCURVE",
"30 106 OFFCURVE",
"20 62 CURVE",
"102 12 OFFCURVE",
"220 -20 OFFCURVE",
"322 -20 CURVE SMOOTH",
"650 -20 OFFCURVE",
"696 202 OFFCURVE",
"696 480 CURVE SMOOTH",
"696 1366 LINE",
"678 1370 OFFCURVE",
"652 1372 OFFCURVE",
"626 1372 CURVE SMOOTH",
"598 1372 OFFCURVE",
"572 1370 OFFCURVE",
"552 1366 CURVE",
"552 450 LINE",
"552 200 OFFCURVE",
"492 104 OFFCURVE",
"316 104 CURVE SMOOTH",
"236 104 OFFCURVE",
"142 134 OFFCURVE",
"80 172 CURVE"
);
}
);
};
layerId = UUID0;
paths = (
{
closed = 1;
nodes = (
"50 142 OFFCURVE",
"30 106 OFFCURVE",
"20 62 CURVE",
"102 12 OFFCURVE",
"220 -20 OFFCURVE",
"322 -20 CURVE SMOOTH",
"650 -20 OFFCURVE",
"696 202 OFFCURVE",
"696 480 CURVE SMOOTH",
"696 1366 LINE",
"678 1370 OFFCURVE",
"652 1372 OFFCURVE",
"626 1372 CURVE SMOOTH",
"598 1372 OFFCURVE",
"572 1370 OFFCURVE",
"552 1366 CURVE",
"552 450 LINE SMOOTH",
"552 200 OFFCURVE",
"492 104 OFFCURVE",
"316 104 CURVE SMOOTH",
"236 104 OFFCURVE",
"142 134 OFFCURVE",
"80 172 CURVE"
);
}
);
width = 868;
},
{
anchors = (
{
name = top;
position = "{652, 1464}";
}
);
background = {
anchors = (
{
name = bottom;
position = "{434, -40}";
},
{
name = top;
position = "{652, 1464}";
}
);
paths = (
{
closed = 1;
nodes = (
"74 248 OFFCURVE",
"32 152 OFFCURVE",
"20 68 CURVE",
"116 8 OFFCURVE",
"242 -20 OFFCURVE",
"348 -20 CURVE SMOOTH",
"728 -20 OFFCURVE",
"820 210 OFFCURVE",
"820 528 CURVE SMOOTH",
"820 1366 LINE",
"764 1376 OFFCURVE",
"696 1378 OFFCURVE",
"652 1378 CURVE SMOOTH",
"612 1378 OFFCURVE",
"538 1376 OFFCURVE",
"484 1366 CURVE",
"484 498 LINE",
"484 348 OFFCURVE",
"452 256 OFFCURVE",
"310 256 CURVE SMOOTH",
"248 256 OFFCURVE",
"190 282 OFFCURVE",
"134 316 CURVE"
);
}
);
};
layerId = UUID1;
paths = (
{
closed = 1;
nodes = (
"74 248 OFFCURVE",
"32 152 OFFCURVE",
"20 68 CURVE",
"116 8 OFFCURVE",
"242 -20 OFFCURVE",
"348 -20 CURVE SMOOTH",
"728 -20 OFFCURVE",
"820 210 OFFCURVE",
"820 528 CURVE SMOOTH",
"820 1366 LINE",
"764 1376 OFFCURVE",
"696 1378 OFFCURVE",
"652 1378 CURVE SMOOTH",
"612 1378 OFFCURVE",
"538 1376 OFFCURVE",
"484 1366 CURVE",
"484 498 LINE SMOOTH",
"484 348 OFFCURVE",
"452 256 OFFCURVE",
"310 256 CURVE SMOOTH",
"248 256 OFFCURVE",
"190 282 OFFCURVE",
"134 316 CURVE"
);
}
);
width = 948;
},
{
anchors = (
{
name = top;
position = "{826, 1464}";
}
);
background = {
anchors = (
{
name = top;
position = "{771, 1464}";
}
);
paths = (
{
closed = 1;
nodes = (
"10 235 OFFCURVE",
"-43 142 OFFCURVE",
"-71 48 CURVE",
"8 3 OFFCURVE",
"111 -20 OFFCURVE",
"223 -20 CURVE SMOOTH",
"687 -20 OFFCURVE",
"756 372 OFFCURVE",
"783 528 CURVE SMOOTH",
"931 1366 LINE",
"877 1376 OFFCURVE",
"809 1378 OFFCURVE",
"765 1378 CURVE SMOOTH",
"725 1378 OFFCURVE",
"651 1376 OFFCURVE",
"595 1366 CURVE",
"442 498 LINE SMOOTH",
"427 412 OFFCURVE",
"399 256 OFFCURVE",
"228 256 CURVE SMOOTH",
"169 256 OFFCURVE",
"123 275 OFFCURVE",
"77 298 CURVE"
);
}
);
};
layerId = "861B5D7F-E490-44BC-908E-F1CBF79092B0";
paths = (
{
closed = 1;
nodes = (
"-1 248 OFFCURVE",
"-52 142 OFFCURVE",
"-64 56 CURVE",
"17 4 OFFCURVE",
"126 -20 OFFCURVE",
"239 -20 CURVE SMOOTH",
"666 -20 OFFCURVE",
"746 317 OFFCURVE",
"784 534 CURVE SMOOTH",
"930 1366 LINE",
"876 1376 OFFCURVE",
"808 1378 OFFCURVE",
"764 1378 CURVE SMOOTH",
"724 1378 OFFCURVE",
"650 1376 OFFCURVE",
"594 1366 CURVE",
"447 527 LINE SMOOTH",
"428 417 OFFCURVE",
"395 257 OFFCURVE",
"224 257 CURVE SMOOTH",
"167 257 OFFCURVE",
"106 276 OFFCURVE",
"59 305 CURVE"
);
}
);
width = 889;
},
{
anchors = (
{
name = top;
position = "{740, 1464}";
}
);
background = {
anchors = (
{
name = top;
position = "{750, 1464}";
}
);
paths = (
{
closed = 1;
nodes = (
"-60 142 OFFCURVE",
"-87 106 OFFCURVE",
"-104 62 CURVE",
"-31 12 OFFCURVE",
"81 -20 OFFCURVE",
"183 -20 CURVE SMOOTH",
"511 -20 OFFCURVE",
"596 202 OFFCURVE",
"645 480 CURVE SMOOTH",
"802 1366 LINE",
"784 1370 OFFCURVE",
"759 1372 OFFCURVE",
"733 1372 CURVE SMOOTH",
"705 1372 OFFCURVE",
"678 1370 OFFCURVE",
"658 1366 CURVE",
"496 450 LINE SMOOTH",
"452 200 OFFCURVE",
"375 104 OFFCURVE",
"199 104 CURVE SMOOTH",
"119 104 OFFCURVE",
"30 134 OFFCURVE",
"-25 172 CURVE"
);
}
);
};
layerId = "1023D002-3304-4399-867A-B886C920D2C0";
paths = (
{
closed = 1;
nodes = (
"-25 153 OFFCURVE",
"-46 118 OFFCURVE",
"-58 74 CURVE",
"11 16 OFFCURVE",
"125 -20 OFFCURVE",
"225 -20 CURVE SMOOTH",
"525 -20 OFFCURVE",
"595 195 OFFCURVE",
"645 480 CURVE SMOOTH",
"801 1366 LINE",
"786 1370 OFFCURVE",
"761 1372 OFFCURVE",
"737 1372 CURVE SMOOTH",
"707 1372 OFFCURVE",
"680 1370 OFFCURVE",
"657 1366 CURVE",
"504 500 LINE SMOOTH",
"471 315 OFFCURVE",
"435 106 OFFCURVE",
"235 106 CURVE SMOOTH",
"158 106 OFFCURVE",
"70 137 OFFCURVE",
"10 181 CURVE"
);
}
);
width = 803;
}
);
leftKerningGroup = J;
rightKerningGroup = U;
unicode = 004A;
},
{
color = 4;
glyphname = K;
lastChange = "2020-10-21 16:20:41 +0000";
layers = (
{
anchors = (
{
name = bottom;
position = "{606, 0}";
},
{
name = top;
position = "{600, 1464}";
}
);
background = {
anchors = (
{
name = bottom;
position = "{606, -40}";
},
{
name = top;
position = "{600, 1464}";
}
);
paths = (
{
closed = 1;
nodes = (
"200 0 LINE",
"218 -4 OFFCURVE",
"244 -6 OFFCURVE",
"270 -6 CURVE SMOOTH",
"298 -6 OFFCURVE",
"324 -4 OFFCURVE",
"344 0 CURVE",
"344 1366 LINE",
"324 1370 OFFCURVE",
"298 1372 OFFCURVE",
"270 1372 CURVE SMOOTH",
"244 1372 OFFCURVE",
"218 1370 OFFCURVE",
"200 1366 CURVE"
);
},
{
closed = 1;
nodes = (
"1088 62 OFFCURVE",
"1062 94 OFFCURVE",
"1036 158 CURVE SMOOTH",
"910 474 LINE SMOOTH",
"837 658 OFFCURVE",
"768 738 OFFCURVE",
"576 738 CURVE SMOOTH",
"268 738 LINE",
"268 634 LINE",
"402 640 OFFCURVE",
"480 640 OFFCURVE",
"510 640 CURVE SMOOTH",
"644 640 OFFCURVE",
"714 584 OFFCURVE",
"780 416 CURVE SMOOTH",
"910 86 LINE SMOOTH",
"934 24 OFFCURVE",
"952 -10 OFFCURVE",
"1016 -10 CURVE SMOOTH",
"1048 -10 OFFCURVE",
"1096 8 OFFCURVE",
"1116 40 CURVE"
);
},
{
closed = 1;
nodes = (
"562 816 LINE",
"542 784 OFFCURVE",
"528 768 OFFCURVE",
"494 768 CURVE SMOOTH",
"433 768 OFFCURVE",
"333 766 OFFCURVE",
"268 762 CURVE",
"268 676 LINE",
"500 676 LINE SMOOTH",
"594 676 OFFCURVE",
"664 726 OFFCURVE",
"712 802 CURVE SMOOTH",
"1054 1350 LINE",
"1042 1366 LINE",
"1014 1368 OFFCURVE",
"992 1370 OFFCURVE",
"966 1370 CURVE SMOOTH",
"908 1370 OFFCURVE",
"890 1344 OFFCURVE",
"862 1298 CURVE SMOOTH"
);
}
);
};
layerId = UUID0;
paths = (
{
closed = 1;
nodes = (
"1048 -10 OFFCURVE",
"1096 8 OFFCURVE",
"1116 40 CURVE",
"1090 61 OFFCURVE",
"1061 94 OFFCURVE",
"1036 158 CURVE SMOOTH",
"910 474 LINE SMOOTH",
"828 679 OFFCURVE",
"751 738 OFFCURVE",
"576 738 CURVE SMOOTH",
"268 738 LINE",
"268 634 LINE",
"402 640 OFFCURVE",
"480 640 OFFCURVE",
"510 640 CURVE SMOOTH",
"655 640 OFFCURVE",
"719 571 OFFCURVE",
"780 416 CURVE SMOOTH",
"910 86 LINE SMOOTH",
"934 24 OFFCURVE",
"953 -10 OFFCURVE",
"1016 -10 CURVE SMOOTH"
);
},
{
closed = 1;
nodes = (
"298 -6 OFFCURVE",
"324 -4 OFFCURVE",
"344 0 CURVE",
"344 1366 LINE",
"324 1370 OFFCURVE",
"298 1372 OFFCURVE",
"270 1372 CURVE SMOOTH",
"244 1372 OFFCURVE",
"218 1370 OFFCURVE",
"200 1366 CURVE",
"200 0 LINE",
"218 -4 OFFCURVE",
"244 -6 OFFCURVE",
"270 -6 CURVE SMOOTH"
);
},
{
closed = 1;
nodes = (
"500 676 LINE SMOOTH",
"593 676 OFFCURVE",
"664 725 OFFCURVE",
"712 802 CURVE SMOOTH",
"1054 1350 LINE",
"1042 1366 LINE",
"1014 1368 OFFCURVE",
"992 1370 OFFCURVE",
"966 1370 CURVE SMOOTH",
"906 1370 OFFCURVE",
"888 1340 OFFCURVE",
"862 1298 CURVE SMOOTH",
"562 816 LINE SMOOTH",
"542 784 OFFCURVE",
"528 768 OFFCURVE",
"494 768 CURVE SMOOTH",
"433 768 OFFCURVE",
"333 766 OFFCURVE",
"268 762 CURVE",
"268 676 LINE"
);
}
);
width = 1162;
},
{
anchors = (
{
name = bottom;
position = "{662, 0}";
},
{
name = top;
position = "{654, 1464}";
}
);
background = {
anchors = (
{
name = bottom;
position = "{662, -40}";
},
{
name = top;
position = "{654, 1464}";
}
);
paths = (
{
closed = 1;
nodes = (
"148 0 LINE",
"202 -10 OFFCURVE",
"276 -12 OFFCURVE",
"316 -12 CURVE SMOOTH",
"360 -12 OFFCURVE",
"428 -10 OFFCURVE",
"484 0 CURVE",
"484 1366 LINE",
"428 1376 OFFCURVE",
"360 1378 OFFCURVE",
"316 1378 CURVE SMOOTH",
"276 1378 OFFCURVE",
"202 1376 OFFCURVE",
"148 1366 CURVE"
);
},
{
closed = 1;
nodes = (
"1190 126 OFFCURVE",
"1172 155 OFFCURVE",
"1132 276 CURVE SMOOTH",
"1054 518 LINE SMOOTH",
"1013 646 OFFCURVE",
"948 754 OFFCURVE",
"720 754 CURVE SMOOTH",
"314 754 LINE",
"314 550 LINE",
"412 560 OFFCURVE",
"502 568 OFFCURVE",
"564 568 CURVE SMOOTH",
"656 568 OFFCURVE",
"706 520 OFFCURVE",
"744 398 CURVE SMOOTH",
"814 172 LINE SMOOTH",
"854 44 OFFCURVE",
"896 -18 OFFCURVE",
"1016 -18 CURVE SMOOTH",
"1106 -18 OFFCURVE",
"1194 18 OFFCURVE",
"1238 82 CURVE"
);
},
{
closed = 1;
nodes = (
"618 916 LINE",
"590 860 OFFCURVE",
"578 846 OFFCURVE",
"526 846 CURVE SMOOTH",
"455 845 OFFCURVE",
"385 843 OFFCURVE",
"314 842 CURVE",
"314 654 LINE",
"558 654 LINE SMOOTH",
"764 654 OFFCURVE",
"876 744 OFFCURVE",
"954 894 CURVE SMOOTH",
"1188 1346 LINE",
"1170 1368 LINE",
"1104 1374 OFFCURVE",
"1022 1378 OFFCURVE",
"968 1378 CURVE SMOOTH",
"872 1378 OFFCURVE",
"838 1342 OFFCURVE",
"798 1264 CURVE SMOOTH"
);
}
);
};
guideLines = (
{
angle = 242.6501;
position = "{618, 916}";
},
{
angle = 242.6501;
position = "{954, 894}";
}
);
layerId = UUID1;
paths = (
{
closed = 1;
nodes = (
"1106 -18 OFFCURVE",
"1194 18 OFFCURVE",
"1238 82 CURVE",
"1185 130 OFFCURVE",
"1167 168 OFFCURVE",
"1132 276 CURVE SMOOTH",
"1054 518 LINE SMOOTH",
"1010 655 OFFCURVE",
"939 754 OFFCURVE",
"720 754 CURVE SMOOTH",
"314 754 LINE",
"314 550 LINE",
"412 560 OFFCURVE",
"502 568 OFFCURVE",
"564 568 CURVE SMOOTH",
"656 568 OFFCURVE",
"706 520 OFFCURVE",
"744 398 CURVE SMOOTH",
"814 172 LINE SMOOTH",
"853 45 OFFCURVE",
"895 -18 OFFCURVE",
"1016 -18 CURVE SMOOTH"
);
},
{
closed = 1;
nodes = (
"360 -12 OFFCURVE",
"428 -10 OFFCURVE",
"484 0 CURVE",
"484 1366 LINE",
"428 1376 OFFCURVE",
"360 1378 OFFCURVE",
"316 1378 CURVE SMOOTH",
"276 1378 OFFCURVE",
"202 1376 OFFCURVE",
"148 1366 CURVE",
"148 0 LINE",
"202 -10 OFFCURVE",
"276 -12 OFFCURVE",
"316 -12 CURVE SMOOTH"
);
},
{
closed = 1;
nodes = (
"558 654 LINE SMOOTH",
"778 654 OFFCURVE",
"883 757 OFFCURVE",
"954 894 CURVE SMOOTH",
"1188 1346 LINE",
"1170 1368 LINE",
"1104 1374 OFFCURVE",
"1022 1378 OFFCURVE",
"968 1378 CURVE SMOOTH",
"866 1378 OFFCURVE",
"834 1333 OFFCURVE",
"798 1264 CURVE SMOOTH",
"618 916 LINE SMOOTH",
"591 863 OFFCURVE",
"579 846 OFFCURVE",
"526 846 CURVE SMOOTH",
"455 846 OFFCURVE",
"385 843 OFFCURVE",
"314 842 CURVE",
"314 654 LINE"
);
}
);
width = 1248;
},
{
anchors = (
{
name = bottom;
position = "{559, 0}";
},
{
name = top;
position = "{809, 1464}";
}
);
background = {
anchors = (
{
name = bottom;
position = "{559, 0}";
},
{
name = top;
position = "{809, 1464}";
}
);
paths = (
{
closed = 1;
nodes = (
"1000 -18 OFFCURVE",
"1094 18 OFFCURVE",
"1150 82 CURVE",
"1105 130 OFFCURVE",
"1094 168 OFFCURVE",
"1078 276 CURVE SMOOTH",
"1042 518 LINE SMOOTH",
"1023 655 OFFCURVE",
"969 754 OFFCURVE",
"750 754 CURVE SMOOTH",
"344 754 LINE",
"308 550 LINE",
"408 560 OFFCURVE",
"499 568 OFFCURVE",
"561 568 CURVE SMOOTH",
"653 568 OFFCURVE",
"695 520 OFFCURVE",
"711 398 CURVE SMOOTH",
"741 172 LINE SMOOTH",
"758 45 OFFCURVE",
"789 -18 OFFCURVE",
"910 -18 CURVE SMOOTH"
);
},
{
closed = 1;
nodes = (
"255 -12 OFFCURVE",
"323 -10 OFFCURVE",
"381 0 CURVE",
"622 1366 LINE",
"568 1376 OFFCURVE",
"500 1378 OFFCURVE",
"456 1378 CURVE SMOOTH",
"416 1378 OFFCURVE",
"342 1376 OFFCURVE",
"286 1366 CURVE",
"45 0 LINE",
"97 -10 OFFCURVE",
"171 -12 OFFCURVE",
"211 -12 CURVE SMOOTH"
);
},
{
closed = 1;
nodes = (
"570 654 LINE SMOOTH",
"790 654 OFFCURVE",
"914 757 OFFCURVE",
"1009 894 CURVE SMOOTH",
"1322 1346 LINE",
"1308 1368 LINE",
"1243 1374 OFFCURVE",
"1162 1378 OFFCURVE",
"1108 1378 CURVE SMOOTH",
"1006 1378 OFFCURVE",
"966 1333 OFFCURVE",
"918 1264 CURVE SMOOTH",
"677 916 LINE SMOOTH",
"640 863 OFFCURVE",
"625 846 OFFCURVE",
"572 846 CURVE SMOOTH",
"501 846 OFFCURVE",
"431 843 OFFCURVE",
"360 842 CURVE",
"326 654 LINE"
);
}
);
};
guideLines = (
{
angle = -82.026;
position = "{1001, 512}";
},
{
angle = -82.026;
position = "{683, 410}";
}
);
layerId = "861B5D7F-E490-44BC-908E-F1CBF79092B0";
paths = (
{
closed = 1;
nodes = (
"979 -23 OFFCURVE",
"1078 13 OFFCURVE",
"1117 71 CURVE",
"1071 119 OFFCURVE",
"1057 159 OFFCURVE",
"1040 269 CURVE SMOOTH",
"1003 512 LINE SMOOTH",
"978 673 OFFCURVE",
"882 752 OFFCURVE",
"713 750 CURVE SMOOTH",
"342 746 LINE",
"311 560 LINE",
"401 562 OFFCURVE",
"483 568 OFFCURVE",
"535 568 CURVE SMOOTH",
"625 568 OFFCURVE",
"667 531 OFFCURVE",
"685 410 CURVE SMOOTH",
"722 155 LINE SMOOTH",
"740 32 OFFCURVE",
"785 -23 OFFCURVE",
"893 -23 CURVE SMOOTH"
);
},
{
closed = 1;
nodes = (
"254 -12 OFFCURVE",
"323 -10 OFFCURVE",
"381 0 CURVE",
"622 1366 LINE",
"570 1376 OFFCURVE",
"497 1378 OFFCURVE",
"457 1378 CURVE SMOOTH",
"413 1378 OFFCURVE",
"344 1376 OFFCURVE",
"286 1366 CURVE",
"45 0 LINE",
"97 -10 OFFCURVE",
"170 -12 OFFCURVE",
"210 -12 CURVE SMOOTH"
);
},
{
closed = 1;
nodes = (
"691 704 LINE SMOOTH",
"839 706 OFFCURVE",
"915 773 OFFCURVE",
"985 880 CURVE SMOOTH",
"1288 1339 LINE",
"1273 1364 LINE",
"1219 1370 OFFCURVE",
"1133 1378 OFFCURVE",
"1070 1378 CURVE SMOOTH",
"968 1378 OFFCURVE",
"933 1347 OFFCURVE",
"880 1264 CURVE SMOOTH",
"656 916 LINE SMOOTH",
"617 855 OFFCURVE",
"601 849 OFFCURVE",
"548 846 CURVE SMOOTH",
"484 842 OFFCURVE",
"428 839 OFFCURVE",
"364 838 CURVE",
"339 700 LINE"
);
}
);
width = 1196;
},
{
anchors = (
{
name = bottom;
position = "{475, 0}";
},
{
name = top;
position = "{727, 1464}";
}
);
background = {
anchors = (
{
name = bottom;
position = "{475, 0}";
},
{
name = top;
position = "{727, 1464}";
}
);
paths = (
{
closed = 1;
nodes = (
"94 0 LINE",
"111 -4 OFFCURVE",
"137 -6 OFFCURVE",
"163 -6 CURVE SMOOTH",
"191 -6 OFFCURVE",
"217 -4 OFFCURVE",
"238 0 CURVE",
"479 1366 LINE",
"459 1370 OFFCURVE",
"434 1372 OFFCURVE",
"406 1372 CURVE SMOOTH",
"380 1372 OFFCURVE",
"353 1370 OFFCURVE",
"335 1366 CURVE"
);
},
{
closed = 1;
nodes = (
"945 61 OFFCURVE",
"917 92 OFFCURVE",
"908 158 CURVE SMOOTH",
"863 474 LINE SMOOTH",
"833 683 OFFCURVE",
"750 738 OFFCURVE",
"575 738 CURVE SMOOTH",
"287 738 LINE",
"269 634 LINE",
"393 640 OFFCURVE",
"464 640 OFFCURVE",
"492 640 CURVE SMOOTH",
"637 640 OFFCURVE",
"700 574 OFFCURVE",
"722 416 CURVE SMOOTH",
"769 86 LINE SMOOTH",
"778 23 OFFCURVE",
"795 -10 OFFCURVE",
"858 -10 CURVE SMOOTH",
"890 -10 OFFCURVE",
"941 8 OFFCURVE",
"967 40 CURVE"
);
},
{
closed = 1;
nodes = (
"575 816 LINE SMOOTH",
"551 784 OFFCURVE",
"532 768 OFFCURVE",
"498 768 CURVE SMOOTH",
"443 768 OFFCURVE",
"351 766 OFFCURVE",
"291 762 CURVE",
"276 676 LINE",
"488 676 LINE SMOOTH",
"581 676 OFFCURVE",
"663 723 OFFCURVE",
"722 802 CURVE SMOOTH",
"1136 1350 LINE",
"1127 1366 LINE",
"1099 1368 OFFCURVE",
"1077 1370 OFFCURVE",
"1051 1370 CURVE SMOOTH",
"991 1370 OFFCURVE",
"966 1340 OFFCURVE",
"935 1298 CURVE SMOOTH"
);
}
);
};
guideLines = (
{
angle = 233.8124;
position = "{1131, 1350}";
},
{
angle = 99.8983;
position = "{774, 84}";
}
);
layerId = "1023D002-3304-4399-867A-B886C920D2C0";
paths = (
{
closed = 1;
nodes = (
"901 -12 OFFCURVE",
"946 7 OFFCURVE",
"969 38 CURVE",
"938 67 OFFCURVE",
"917 106 OFFCURVE",
"903 186 CURVE SMOOTH",
"852 484 LINE SMOOTH",
"816 692 OFFCURVE",
"711 743 OFFCURVE",
"519 740 CURVE SMOOTH",
"287 736 LINE",
"269 635 LINE",
"333 636 OFFCURVE",
"409 639 OFFCURVE",
"475 640 CURVE SMOOTH",
"677 643 OFFCURVE",
"696 540 OFFCURVE",
"714 433 CURVE SMOOTH",
"774 84 LINE SMOOTH",
"778 59 OFFCURVE",
"791 -12 OFFCURVE",
"863 -12 CURVE SMOOTH"
);
},
{
closed = 1;
nodes = (
"193 -6 OFFCURVE",
"219 -4 OFFCURVE",
"238 0 CURVE",
"479 1366 LINE",
"460 1370 OFFCURVE",
"432 1372 OFFCURVE",
"407 1372 CURVE SMOOTH",
"381 1372 OFFCURVE",
"354 1370 OFFCURVE",
"335 1366 CURVE",
"94 0 LINE",
"113 -4 OFFCURVE",
"142 -6 OFFCURVE",
"167 -6 CURVE SMOOTH"
);
},
{
closed = 1;
nodes = (
"493 691 LINE SMOOTH",
"615 693 OFFCURVE",
"669 723 OFFCURVE",
"723 796 CURVE SMOOTH",
"1133 1350 LINE",
"1124 1366 LINE",
"1094 1368 OFFCURVE",
"1062 1370 OFFCURVE",
"1042 1370 CURVE SMOOTH",
"977 1370 OFFCURVE",
"959 1348 OFFCURVE",
"923 1298 CURVE SMOOTH",
"566 810 LINE SMOOTH",
"540 775 OFFCURVE",
"534 770 OFFCURVE",
"484 768 CURVE SMOOTH",
"410 765 OFFCURVE",
"348 764 OFFCURVE",
"287 762 CURVE",
"272 687 LINE"
);
}
);
width = 1079;
}
);
leftKerningGroup = H;
leftMetricsKey = H;
rightKerningGroup = K;
unicode = 004B;
},
{
color = 4;
glyphname = L;
lastChange = "2020-10-20 12:04:16 +0000";
layers = (
{
anchors = (
{
name = bottom;
position = "{578, 0}";
},
{
name = periodcentered;
position = "{1009, 786}";
},
{
name = top;
position = "{270, 1464}";
},
{
name = topright;
position = "{458, 870}";
}
);
background = {
anchors = (
{
name = bottom;
position = "{578, -40}";
},
{
name = top;
position = "{270, 1464}";
}
);
paths = (
{
closed = 1;
nodes = (
"344 1278 LINE",
"344 1340 OFFCURVE",
"334 1372 OFFCURVE",
"270 1372 CURVE SMOOTH",
"212 1372 LINE",
"200 1360 LINE",
"200 98 LINE SMOOTH",
"200 32 OFFCURVE",
"238 0 OFFCURVE",
"284 0 CURVE SMOOTH",
"344 0 LINE"
);
},
{
closed = 1;
nodes = (
"516 128 LINE",
"426 128 OFFCURVE",
"304 122 OFFCURVE",
"214 108 CURVE",
"284 0 LINE",
"850 0 LINE SMOOTH",
"917 0 OFFCURVE",
"946 23 OFFCURVE",
"946 128 CURVE"
);
}
);
};
layerId = UUID0;
paths = (
{
closed = 1;
nodes = (
"344 0 LINE",
"344 1278 LINE SMOOTH",
"344 1340 OFFCURVE",
"334 1372 OFFCURVE",
"270 1372 CURVE SMOOTH",
"212 1372 LINE",
"200 1360 LINE",
"200 98 LINE SMOOTH",
"200 32 OFFCURVE",
"238 0 OFFCURVE",
"284 0 CURVE SMOOTH"
);
},
{
closed = 1;
nodes = (
"850 0 LINE SMOOTH",
"917 0 OFFCURVE",
"946 23 OFFCURVE",
"946 128 CURVE",
"516 128 LINE SMOOTH",
"426 128 OFFCURVE",
"304 122 OFFCURVE",
"214 108 CURVE",
"284 0 LINE"
);
}
);
width = 1010;
},
{
anchors = (
{
name = bottom;
position = "{570, 0}";
},
{
name = periodcentered;
position = "{1048, 786}";
},
{
name = top;
position = "{312, 1454}";
},
{
name = topright;
position = "{517, 898}";
}
);
background = {
anchors = (
{
name = bottom;
position = "{570, -40}";
},
{
name = top;
position = "{312, 1454}";
}
);
paths = (
{
closed = 1;
nodes = (
"482 1168 LINE",
"482 1318 OFFCURVE",
"410 1380 OFFCURVE",
"282 1380 CURVE SMOOTH",
"160 1380 LINE",
"146 1366 LINE",
"146 188 LINE SMOOTH",
"146 68 OFFCURVE",
"220 -6 OFFCURVE",
"340 -6 CURVE SMOOTH",
"482 -6 LINE"
);
},
{
closed = 1;
nodes = (
"670 282 LINE",
"524 282 OFFCURVE",
"342 268 OFFCURVE",
"160 236 CURVE",
"340 -6 LINE",
"782 -6 LINE SMOOTH",
"948 -6 OFFCURVE",
"1010 71 OFFCURVE",
"1010 282 CURVE"
);
}
);
};
layerId = UUID1;
paths = (
{
closed = 1;
nodes = (
"482 -6 LINE",
"482 1168 LINE SMOOTH",
"482 1318 OFFCURVE",
"410 1380 OFFCURVE",
"282 1380 CURVE SMOOTH",
"160 1380 LINE",
"146 1366 LINE",
"146 188 LINE SMOOTH",
"146 68 OFFCURVE",
"220 -6 OFFCURVE",
"340 -6 CURVE SMOOTH"
);
},
{
closed = 1;
nodes = (
"782 -6 LINE SMOOTH",
"948 -6 OFFCURVE",
"1010 71 OFFCURVE",
"1010 282 CURVE",
"670 282 LINE SMOOTH",
"524 282 OFFCURVE",
"342 268 OFFCURVE",
"160 236 CURVE",
"340 -6 LINE"
);
}
);
width = 1048;
},
{
anchors = (
{
name = bottom;
position = "{424, 0}";
},
{
name = periodcentered;
position = "{997, 786}";
},
{
name = top;
position = "{453, 1454}";
},
{
name = topright;
position = "{541, 898}";
}
);
background = {
anchors = (
{
name = bottom;
position = "{462, 0}";
},
{
name = periodcentered;
position = "{1078, 786}";
},
{
name = top;
position = "{460, 1454}";
},
{
name = topright;
position = "{567, 898}";
}
);
paths = (
{
closed = 1;
nodes = (
"580 1168 LINE SMOOTH",
"606 1318 OFFCURVE",
"545 1380 OFFCURVE",
"417 1380 CURVE SMOOTH",
"295 1380 LINE",
"279 1366 LINE",
"71 188 LINE SMOOTH",
"50 68 OFFCURVE",
"111 -6 OFFCURVE",
"231 -6 CURVE SMOOTH",
"373 -6 LINE"
);
},
{
closed = 1;
nodes = (
"612 282 LINE SMOOTH",
"466 282 OFFCURVE",
"281 268 OFFCURVE",
"93 236 CURVE",
"231 -6 LINE",
"633 -6 LINE SMOOTH",
"799 -6 OFFCURVE",
"874 71 OFFCURVE",
"912 282 CURVE"
);
}
);
};
layerId = "861B5D7F-E490-44BC-908E-F1CBF79092B0";
paths = (
{
closed = 1;
nodes = (
"373 -6 LINE",
"575 1144 LINE SMOOTH",
"580 1171 OFFCURVE",
"586 1211 OFFCURVE",
"586 1235 CURVE SMOOTH",
"586 1325 OFFCURVE",
"534 1380 OFFCURVE",
"423 1380 CURVE SMOOTH",
"296 1380 LINE",
"279 1366 LINE",
"78 230 LINE SMOOTH",
"73 203 OFFCURVE",
"67 163 OFFCURVE",
"67 139 CURVE SMOOTH",
"67 49 OFFCURVE",
"119 -6 OFFCURVE",
"230 -6 CURVE SMOOTH"
);
},
{
closed = 1;
nodes = (
"645 -6 LINE SMOOTH",
"833 -6 OFFCURVE",
"877 85 OFFCURVE",
"894 282 CURVE",
"606 282 LINE SMOOTH",
"511 282 OFFCURVE",
"395 276 OFFCURVE",
"301 264 CURVE",
"253 -6 LINE"
);
}
);
width = 974;
},
{
anchors = (
{
name = bottom;
position = "{434, 0}";
},
{
name = periodcentered;
position = "{960, 786}";
},
{
name = top;
position = "{415, 1464}";
},
{
name = topright;
position = "{479, 870}";
}
);
background = {
anchors = (
{
name = bottom;
position = "{472, 0}";
},
{
name = periodcentered;
position = "{1042, 786}";
},
{
name = top;
position = "{422, 1464}";
},
{
name = topright;
position = "{505, 870}";
}
);
paths = (
{
closed = 1;
nodes = (
"463 1278 LINE SMOOTH",
"474 1340 OFFCURVE",
"470 1372 OFFCURVE",
"406 1372 CURVE SMOOTH",
"348 1372 LINE",
"334 1360 LINE",
"111 98 LINE SMOOTH",
"100 32 OFFCURVE",
"132 0 OFFCURVE",
"178 0 CURVE SMOOTH",
"238 0 LINE"
);
},
{
closed = 1;
nodes = (
"433 128 LINE SMOOTH",
"343 128 OFFCURVE",
"220 122 OFFCURVE",
"127 108 CURVE",
"178 0 LINE",
"744 0 LINE SMOOTH",
"811 0 OFFCURVE",
"844 23 OFFCURVE",
"863 128 CURVE"
);
}
);
};
layerId = "1023D002-3304-4399-867A-B886C920D2C0";
paths = (
{
closed = 1;
nodes = (
"238 0 LINE",
"464 1279 LINE SMOOTH",
"467 1296 OFFCURVE",
"469 1309 OFFCURVE",
"469 1323 CURVE SMOOTH",
"469 1356 OFFCURVE",
"449 1372 OFFCURVE",
"404 1372 CURVE SMOOTH",
"347 1372 LINE",
"334 1360 LINE",
"116 129 LINE SMOOTH",
"112 107 OFFCURVE",
"110 91 OFFCURVE",
"110 78 CURVE SMOOTH",
"110 23 OFFCURVE",
"144 0 OFFCURVE",
"194 0 CURVE SMOOTH"
);
},
{
closed = 1;
nodes = (
"682 0 LINE SMOOTH",
"775 0 OFFCURVE",
"805 21 OFFCURVE",
"813 128 CURVE",
"428 128 LINE SMOOTH",
"348 128 OFFCURVE",
"237 127 OFFCURVE",
"181 113 CURVE",
"209 0 LINE"
);
}
);
width = 941;
}
);
leftKerningGroup = E;
leftMetricsKey = E;
rightKerningGroup = L;
unicode = 004C;
},
{
color = 4;
glyphname = M;
lastChange = "2020-10-21 10:46:06 +0000";
layers = (
{
anchors = (
{
name = bottom;
position = "{791, 0}";
},
{
name = top;
position = "{790, 1464}";
}
);
background = {
anchors = (
{
name = bottom;
position = "{790, -40}";
},
{
name = top;
position = "{790, 1464}";
}
);
paths = (
{
closed = 1;
nodes = (
"172 2 LINE",
"190 -4 OFFCURVE",
"218 -8 OFFCURVE",
"242 -8 CURVE SMOOTH",
"266 -8 OFFCURVE",
"290 -6 OFFCURVE",
"312 -2 CURVE",
"370 842 LINE SMOOTH",
"376 930 OFFCURVE",
"380 1102 OFFCURVE",
"386 1214 CURVE",
"396 1214 LINE",
"720 214 LINE",
"740 210 OFFCURVE",
"764 208 OFFCURVE",
"790 208 CURVE SMOOTH",
"814 208 OFFCURVE",
"840 210 OFFCURVE",
"862 214 CURVE",
"1186 1214 LINE",
"1196 1214 LINE",
"1200 1102 OFFCURVE",
"1206 930 OFFCURVE",
"1212 842 CURVE SMOOTH",
"1270 -2 LINE",
"1292 -6 OFFCURVE",
"1312 -8 OFFCURVE",
"1336 -8 CURVE SMOOTH",
"1360 -8 OFFCURVE",
"1390 -4 OFFCURVE",
"1410 2 CURVE",
"1304 1366 LINE",
"1264 1372 OFFCURVE",
"1224 1372 OFFCURVE",
"1206 1372 CURVE SMOOTH",
"1186 1372 OFFCURVE",
"1154 1372 OFFCURVE",
"1114 1366 CURVE",
"878 652 LINE SMOOTH",
"854 582 OFFCURVE",
"800 390 OFFCURVE",
"796 364 CURVE",
"786 364 LINE",
"782 390 OFFCURVE",
"728 582 OFFCURVE",
"704 652 CURVE SMOOTH",
"468 1366 LINE",
"434 1372 OFFCURVE",
"396 1372 OFFCURVE",
"376 1372 CURVE SMOOTH",
"358 1372 OFFCURVE",
"314 1372 OFFCURVE",
"278 1366 CURVE"
);
}
);
};
layerId = UUID0;
paths = (
{
closed = 1;
nodes = (
"266 -8 OFFCURVE",
"290 -6 OFFCURVE",
"312 -2 CURVE",
"370 842 LINE SMOOTH",
"376 930 OFFCURVE",
"380 1102 OFFCURVE",
"386 1214 CURVE",
"396 1214 LINE",
"720 214 LINE",
"740 210 OFFCURVE",
"764 208 OFFCURVE",
"790 208 CURVE SMOOTH",
"814 208 OFFCURVE",
"840 210 OFFCURVE",
"862 214 CURVE",
"1186 1214 LINE",
"1196 1214 LINE",
"1200 1102 OFFCURVE",
"1206 930 OFFCURVE",
"1212 842 CURVE SMOOTH",
"1270 -2 LINE",
"1292 -6 OFFCURVE",
"1312 -8 OFFCURVE",
"1336 -8 CURVE SMOOTH",
"1360 -8 OFFCURVE",
"1390 -4 OFFCURVE",
"1410 2 CURVE",
"1304 1366 LINE",
"1264 1372 OFFCURVE",
"1224 1372 OFFCURVE",
"1206 1372 CURVE SMOOTH",
"1186 1372 OFFCURVE",
"1154 1372 OFFCURVE",
"1114 1366 CURVE",
"878 652 LINE SMOOTH",
"855 582 OFFCURVE",
"801 391 OFFCURVE",
"796 364 CURVE",
"786 364 LINE",
"782 390 OFFCURVE",
"727 582 OFFCURVE",
"704 652 CURVE SMOOTH",
"468 1366 LINE",
"434 1372 OFFCURVE",
"396 1372 OFFCURVE",
"376 1372 CURVE SMOOTH",
"358 1372 OFFCURVE",
"314 1372 OFFCURVE",
"278 1366 CURVE",
"172 2 LINE",
"190 -4 OFFCURVE",
"218 -8 OFFCURVE",
"242 -8 CURVE SMOOTH"
);
}
);
width = 1582;
},
{
anchors = (
{
name = bottom;
position = "{837, 0}";
},
{
name = top;
position = "{838, 1464}";
}
);
background = {
anchors = (
{
name = bottom;
position = "{838, -40}";
},
{
name = top;
position = "{838, 1464}";
}
);
paths = (
{
closed = 1;
nodes = (
"104 4 LINE",
"152 -8 OFFCURVE",
"220 -12 OFFCURVE",
"274 -12 CURVE SMOOTH",
"324 -12 OFFCURVE",
"372 -10 OFFCURVE",
"420 -2 CURVE",
"448 530 LINE SMOOTH",
"456 676 OFFCURVE",
"464 866 OFFCURVE",
"464 998 CURVE",
"478 998 LINE",
"664 200 LINE",
"714 192 OFFCURVE",
"794 188 OFFCURVE",
"836 188 CURVE SMOOTH",
"882 188 OFFCURVE",
"960 192 OFFCURVE",
"1010 200 CURVE",
"1196 998 LINE",
"1210 998 LINE",
"1210 866 OFFCURVE",
"1218 676 OFFCURVE",
"1226 530 CURVE SMOOTH",
"1254 -2 LINE",
"1302 -10 OFFCURVE",
"1350 -12 OFFCURVE",
"1400 -12 CURVE SMOOTH",
"1454 -12 OFFCURVE",
"1522 -8 OFFCURVE",
"1570 4 CURVE",
"1464 1364 LINE",
"1394 1376 OFFCURVE",
"1300 1380 OFFCURVE",
"1238 1380 CURVE SMOOTH",
"1176 1380 OFFCURVE",
"1096 1376 OFFCURVE",
"1026 1364 CURVE",
"918 894 LINE SMOOTH",
"908 848 OFFCURVE",
"862 632 OFFCURVE",
"844 524 CURVE",
"830 524 LINE",
"812 632 OFFCURVE",
"766 848 OFFCURVE",
"756 894 CURVE SMOOTH",
"648 1364 LINE",
"578 1376 OFFCURVE",
"498 1380 OFFCURVE",
"436 1380 CURVE SMOOTH",
"374 1380 OFFCURVE",
"280 1376 OFFCURVE",
"210 1364 CURVE"
);
}
);
};
layerId = UUID1;
paths = (
{
closed = 1;
nodes = (
"324 -12 OFFCURVE",
"372 -10 OFFCURVE",
"420 -2 CURVE",
"448 530 LINE SMOOTH",
"456 676 OFFCURVE",
"464 877 OFFCURVE",
"464 998 CURVE",
"478 998 LINE",
"664 200 LINE",
"714 192 OFFCURVE",
"794 188 OFFCURVE",
"836 188 CURVE SMOOTH",
"882 188 OFFCURVE",
"960 192 OFFCURVE",
"1010 200 CURVE",
"1196 998 LINE",
"1210 998 LINE",
"1210 877 OFFCURVE",
"1218 676 OFFCURVE",
"1226 530 CURVE SMOOTH",
"1254 -2 LINE",
"1302 -10 OFFCURVE",
"1350 -12 OFFCURVE",
"1400 -12 CURVE SMOOTH",
"1454 -12 OFFCURVE",
"1522 -8 OFFCURVE",
"1570 4 CURVE",
"1464 1364 LINE",
"1394 1376 OFFCURVE",
"1300 1380 OFFCURVE",
"1238 1380 CURVE SMOOTH",
"1176 1380 OFFCURVE",
"1096 1376 OFFCURVE",
"1026 1364 CURVE",
"918 894 LINE SMOOTH",
"907 845 OFFCURVE",
"863 637 OFFCURVE",
"844 524 CURVE",
"830 524 LINE",
"812 632 OFFCURVE",
"767 848 OFFCURVE",
"756 894 CURVE SMOOTH",
"648 1364 LINE",
"578 1376 OFFCURVE",
"498 1380 OFFCURVE",
"436 1380 CURVE SMOOTH",
"374 1380 OFFCURVE",
"280 1376 OFFCURVE",
"210 1364 CURVE",
"104 4 LINE",
"152 -8 OFFCURVE",
"220 -12 OFFCURVE",
"274 -12 CURVE SMOOTH"
);
}
);
width = 1674;
},
{
anchors = (
{
name = bottom;
position = "{685, 0}";
},
{
name = top;
position = "{937, 1464}";
}
);
background = {
anchors = (
{
name = bottom;
position = "{714, 0}";
},
{
name = top;
position = "{974, 1464}";
}
);
paths = (
{
closed = 1;
nodes = (
"220 -12 OFFCURVE",
"267 -10 OFFCURVE",
"314 -2 CURVE",
"435 530 LINE SMOOTH",
"468 676 OFFCURVE",
"511 877 OFFCURVE",
"533 998 CURVE",
"546 998 LINE",
"584 200 LINE",
"630 192 OFFCURVE",
"706 188 OFFCURVE",
"747 188 CURVE SMOOTH",
"791 188 OFFCURVE",
"866 192 OFFCURVE",
"916 200 CURVE",
"1235 998 LINE",
"1248 998 LINE",
"1227 877 OFFCURVE",
"1199 676 OFFCURVE",
"1181 530 CURVE SMOOTH",
"1114 -2 LINE",
"1159 -10 OFFCURVE",
"1204 -12 OFFCURVE",
"1252 -12 CURVE SMOOTH",
"1304 -12 OFFCURVE",
"1370 -8 OFFCURVE",
"1418 4 CURVE",
"1556 1364 LINE",
"1491 1376 OFFCURVE",
"1402 1380 OFFCURVE",
"1342 1380 CURVE SMOOTH",
"1283 1380 OFFCURVE",
"1205 1376 OFFCURVE",
"1136 1364 CURVE",
"950 894 LINE SMOOTH",
"931 845 OFFCURVE",
"852 637 OFFCURVE",
"814 524 CURVE",
"800 524 LINE",
"802 632 OFFCURVE",
"797 848 OFFCURVE",
"794 894 CURVE SMOOTH",
"774 1364 LINE",
"709 1376 OFFCURVE",
"633 1380 OFFCURVE",
"573 1380 CURVE SMOOTH",
"514 1380 OFFCURVE",
"423 1376 OFFCURVE",
"354 1364 CURVE",
"12 4 LINE",
"56 -8 OFFCURVE",
"121 -12 OFFCURVE",
"172 -12 CURVE SMOOTH"
);
}
);
};
guideLines = (
{
angle = 248.7842;
position = "{1249, 998}";
},
{
angle = 76.627;
position = "{318, 0}";
},
{
angle = 262.0088;
position = "{1115, 0}";
},
{
angle = 262.0088;
position = "{1423, 0}";
},
{
angle = 76.627;
position = "{7, 0}";
},
{
angle = -88.7046;
position = "{559, 998}";
},
{
angle = -88.7046;
position = "{798, 1363}";
},
{
angle = 248.7842;
position = "{1130, 1364}";
}
);
layerId = "861B5D7F-E490-44BC-908E-F1CBF79092B0";
paths = (
{
closed = 1;
nodes = (
"230 -12 OFFCURVE",
"292 -8 OFFCURVE",
"328 0 CURVE",
"446 530 LINE SMOOTH",
"490 728 OFFCURVE",
"514 856 OFFCURVE",
"541 998 CURVE",
"555 998 LINE",
"584 202 LINE",
"624 193 OFFCURVE",
"686 188 OFFCURVE",
"762 188 CURVE SMOOTH",
"836 188 OFFCURVE",
"907 193 OFFCURVE",
"947 202 CURVE",
"1245 998 LINE",
"1259 998 LINE",
"1235 851 OFFCURVE",
"1211 691 OFFCURVE",
"1190 520 CURVE SMOOTH",
"1125 0 LINE",
"1166 -9 OFFCURVE",
"1225 -12 OFFCURVE",
"1273 -12 CURVE SMOOTH",
"1333 -12 OFFCURVE",
"1392 -8 OFFCURVE",
"1433 0 CURVE",
"1574 1364 LINE",
"1511 1375 OFFCURVE",
"1422 1380 OFFCURVE",
"1344 1380 CURVE SMOOTH",
"1273 1380 OFFCURVE",
"1188 1376 OFFCURVE",
"1121 1364 CURVE",
"948 894 LINE SMOOTH",
"905 777 OFFCURVE",
"858 651 OFFCURVE",
"817 521 CURVE",
"803 521 LINE",
"805 657 OFFCURVE",
"803 779 OFFCURVE",
"800 903 CURVE SMOOTH",
"789 1363 LINE",
"716 1375 OFFCURVE",
"630 1380 OFFCURVE",
"557 1380 CURVE SMOOTH",
"496 1380 OFFCURVE",
"410 1376 OFFCURVE",
"349 1364 CURVE",
"17 0 LINE",
"61 -10 OFFCURVE",
"126 -12 OFFCURVE",
"169 -12 CURVE SMOOTH"
);
}
);
width = 1626;
},
{
anchors = (
{
name = bottom;
position = "{643, 0}";
},
{
name = top;
position = "{900, 1464}";
}
);
background = {
anchors = (
{
name = bottom;
position = "{643, 0}";
},
{
name = top;
position = "{900, 1464}";
}
);
paths = (
{
closed = 1;
nodes = (
"86 2 LINE",
"101 -4 OFFCURVE",
"127 -8 OFFCURVE",
"147 -8 CURVE SMOOTH",
"169 -8 OFFCURVE",
"191 -6 OFFCURVE",
"211 -2 CURVE",
"412 842 LINE SMOOTH",
"433 930 OFFCURVE",
"467 1102 OFFCURVE",
"493 1214 CURVE",
"502 1214 LINE",
"616 214 LINE",
"634 210 OFFCURVE",
"655 208 OFFCURVE",
"678 208 CURVE SMOOTH",
"699 208 OFFCURVE",
"724 210 OFFCURVE",
"744 214 CURVE",
"1213 1214 LINE",
"1222 1214 LINE",
"1198 1056 OFFCURVE",
"1181 932 OFFCURVE",
"1170 842 CURVE SMOOTH",
"1073 -2 LINE",
"1093 -6 OFFCURVE",
"1110 -8 OFFCURVE",
"1132 -8 CURVE SMOOTH",
"1153 -8 OFFCURVE",
"1181 -4 OFFCURVE",
"1200 2 CURVE",
"1346 1366 LINE",
"1311 1372 OFFCURVE",
"1273 1372 OFFCURVE",
"1259 1372 CURVE SMOOTH",
"1241 1372 OFFCURVE",
"1212 1372 OFFCURVE",
"1175 1366 CURVE",
"836 652 LINE SMOOTH",
"804 585 OFFCURVE",
"720 387 OFFCURVE",
"712 364 CURVE",
"703 364 LINE",
"703 392 OFFCURVE",
"689 578 OFFCURVE",
"680 652 CURVE SMOOTH",
"593 1366 LINE",
"564 1372 OFFCURVE",
"529 1372 OFFCURVE",
"512 1372 CURVE SMOOTH",
"497 1372 OFFCURVE",
"456 1372 OFFCURVE",
"422 1366 CURVE"
);
}
);
};
guideLines = (
{
angle = 96.1379;
position = "{677, 654}";
},
{
angle = 64.8106;
position = "{836, 658}";
},
{
angle = 96.1379;
position = "{613, 214}";
},
{
angle = 84.1067;
position = "{1226, 0}";
},
{
angle = 75.9046;
position = "{59, 0}";
},
{
angle = 75.9046;
position = "{198, 0}";
},
{
angle = 84.1067;
position = "{1088, 0}";
},
{
angle = 64.8106;
position = "{752, 214}";
}
);
layerId = "1023D002-3304-4399-867A-B886C920D2C0";
paths = (
{
closed = 1;
nodes = (
"159 -7 OFFCURVE",
"186 -4 OFFCURVE",
"199 0 CURVE",
"400 838 LINE SMOOTH",
"427 949 OFFCURVE",
"455 1053 OFFCURVE",
"488 1205 CURVE",
"498 1205 LINE",
"613 214 LINE",
"628 210 OFFCURVE",
"656 208 OFFCURVE",
"684 208 CURVE SMOOTH",
"713 208 OFFCURVE",
"738 210 OFFCURVE",
"754 214 CURVE",
"1218 1205 LINE",
"1228 1205 LINE",
"1206 1055 OFFCURVE",
"1192 943 OFFCURVE",
"1180 837 CURVE SMOOTH",
"1090 0 LINE",
"1103 -4 OFFCURVE",
"1130 -7 OFFCURVE",
"1154 -7 CURVE SMOOTH",
"1181 -7 OFFCURVE",
"1211 -5 OFFCURVE",
"1228 0 CURVE",
"1365 1366 LINE",
"1339 1370 OFFCURVE",
"1308 1372 OFFCURVE",
"1268 1372 CURVE SMOOTH",
"1226 1372 OFFCURVE",
"1190 1370 OFFCURVE",
"1166 1366 CURVE",
"839 664 LINE SMOOTH",
"803 586 OFFCURVE",
"743 456 OFFCURVE",
"714 378 CURVE",
"704 378 LINE",
"700 455 OFFCURVE",
"686 596 OFFCURVE",
"677 676 CURVE SMOOTH",
"598 1366 LINE",
"572 1370 OFFCURVE",
"541 1372 OFFCURVE",
"501 1372 CURVE SMOOTH",
"460 1372 OFFCURVE",
"424 1370 OFFCURVE",
"400 1366 CURVE",
"61 0 LINE",
"77 -4 OFFCURVE",
"109 -7 OFFCURVE",
"135 -7 CURVE SMOOTH"
);
}
);
width = 1461;
}
);
leftKerningGroup = M;
rightKerningGroup = M;
rightMetricsKey = "=|";
unicode = 004D;
},
{
color = 4;
glyphname = N;
lastChange = "2020-10-20 11:53:54 +0000";
layers = (
{
anchors = (
{
name = bottom;
position = "{670, 0}";
},
{
name = top;
position = "{674, 1464}";
}
);
background = {
anchors = (
{
name = bottom;
position = "{664, -40}";
},
{
name = top;
position = "{674, 1464}";
}
);
paths = (
{
closed = 1;
nodes = (
"200 0 LINE",
"224 -4 OFFCURVE",
"246 -6 OFFCURVE",
"266 -6 CURVE SMOOTH",
"286 -6 OFFCURVE",
"308 -4 OFFCURVE",
"334 0 CURVE",
"334 770 LINE SMOOTH",
"334 908 OFFCURVE",
"326 1072 OFFCURVE",
"322 1192 CURVE",
"336 1192 LINE",
"376 1366 LINE",
"352 1370 OFFCURVE",
"306 1372 OFFCURVE",
"286 1372 CURVE SMOOTH",
"270 1372 OFFCURVE",
"224 1370 OFFCURVE",
"200 1366 CURVE"
);
},
{
closed = 1;
nodes = (
"962 0 LINE",
"1140 40 LINE",
"1012 168 LINE",
"968 256 OFFCURVE",
"924 352 OFFCURVE",
"872 448 CURVE SMOOTH",
"376 1366 LINE",
"200 1346 LINE",
"328 1192 LINE",
"372 1102 OFFCURVE",
"414 1014 OFFCURVE",
"466 918 CURVE SMOOTH"
);
},
{
closed = 1;
nodes = (
"1128 1372 LINE",
"1080 1372 LINE SMOOTH",
"1016 1372 OFFCURVE",
"1006 1340 OFFCURVE",
"1006 1278 CURVE SMOOTH",
"1006 616 LINE SMOOTH",
"1006 478 OFFCURVE",
"1012 312 OFFCURVE",
"1018 168 CURVE",
"1004 168 LINE",
"962 0 LINE",
"986 -4 OFFCURVE",
"1034 -6 OFFCURVE",
"1052 -6 CURVE SMOOTH",
"1070 -6 OFFCURVE",
"1116 -4 OFFCURVE",
"1140 0 CURVE",
"1140 1362 LINE"
);
}
);
};
layerId = UUID0;
paths = (
{
closed = 1;
nodes = (
"1081 99 LINE",
"1012 168 LINE",
"963 267 OFFCURVE",
"924 351 OFFCURVE",
"872 448 CURVE SMOOTH",
"376 1366 LINE",
"259 1280 LINE",
"328 1192 LINE",
"372 1102 OFFCURVE",
"414 1014 OFFCURVE",
"466 918 CURVE SMOOTH",
"962 0 LINE"
);
},
{
closed = 1;
nodes = (
"286 -6 OFFCURVE",
"308 -4 OFFCURVE",
"334 0 CURVE",
"334 770 LINE SMOOTH",
"334 908 OFFCURVE",
"326 1072 OFFCURVE",
"322 1192 CURVE",
"336 1192 LINE",
"376 1366 LINE",
"352 1370 OFFCURVE",
"316 1372 OFFCURVE",
"286 1372 CURVE SMOOTH",
"260 1372 OFFCURVE",
"224 1370 OFFCURVE",
"200 1366 CURVE",
"200 0 LINE",
"224 -4 OFFCURVE",
"246 -6 OFFCURVE",
"266 -6 CURVE SMOOTH"
);
},
{
closed = 1;
nodes = (
"1090 -6 OFFCURVE",
"1116 -4 OFFCURVE",
"1140 0 CURVE",
"1140 1362 LINE",
"1128 1372 LINE",
"1080 1372 LINE SMOOTH",
"1016 1372 OFFCURVE",
"1006 1340 OFFCURVE",
"1006 1278 CURVE SMOOTH",
"1006 616 LINE SMOOTH",
"1006 478 OFFCURVE",
"1012 312 OFFCURVE",
"1018 168 CURVE",
"1004 168 LINE",
"962 0 LINE",
"986 -4 OFFCURVE",
"1014 -6 OFFCURVE",
"1052 -6 CURVE SMOOTH"
);
}
);
width = 1340;
},
{
anchors = (
{
name = bottom;
position = "{698, 0}";
},
{
name = top;
position = "{706, 1464}";
}
);
background = {
anchors = (
{
name = bottom;
position = "{686, -40}";
},
{
name = top;
position = "{706, 1464}";
}
);
paths = (
{
closed = 1;
nodes = (
"148 0 LINE",
"200 -10 OFFCURVE",
"268 -12 OFFCURVE",
"308 -12 CURVE SMOOTH",
"350 -12 OFFCURVE",
"406 -10 OFFCURVE",
"460 0 CURVE",
"460 366 LINE SMOOTH",
"460 534 OFFCURVE",
"450 804 OFFCURVE",
"434 978 CURVE",
"456 986 LINE",
"540 1366 LINE",
"466 1376 OFFCURVE",
"388 1378 OFFCURVE",
"346 1378 CURVE SMOOTH",
"304 1378 OFFCURVE",
"200 1372 OFFCURVE",
"148 1360 CURVE"
);
},
{
closed = 1;
nodes = (
"852 0 LINE",
"1248 46 LINE",
"956 364 LINE",
"928 436 OFFCURVE",
"882 550 OFFCURVE",
"832 670 CURVE SMOOTH",
"540 1366 LINE",
"148 1320 LINE",
"442 982 LINE",
"468 906 OFFCURVE",
"508 802 OFFCURVE",
"552 698 CURVE SMOOTH"
);
},
{
closed = 1;
nodes = (
"1234 1380 LINE",
"1126 1380 LINE SMOOTH",
"998 1380 OFFCURVE",
"938 1328 OFFCURVE",
"938 1178 CURVE SMOOTH",
"938 970 LINE SMOOTH",
"938 832 OFFCURVE",
"946 558 OFFCURVE",
"964 368 CURVE",
"940 360 LINE",
"852 0 LINE",
"926 -10 OFFCURVE",
"1004 -12 OFFCURVE",
"1046 -12 CURVE SMOOTH",
"1088 -12 OFFCURVE",
"1194 -6 OFFCURVE",
"1248 6 CURVE",
"1248 1366 LINE"
);
}
);
};
guideLines = (
{
angle = -66.742;
position = "{702, 349}";
},
{
angle = 90;
position = "{460, 183}";
}
);
layerId = UUID1;
paths = (
{
closed = 1;
nodes = (
"1126 179 LINE",
"956 364 LINE",
"928 436 OFFCURVE",
"882 550 OFFCURVE",
"832 670 CURVE SMOOTH",
"540 1366 LINE",
"287 1160 LINE",
"442 982 LINE",
"468 906 OFFCURVE",
"507 802 OFFCURVE",
"552 698 CURVE SMOOTH",
"852 0 LINE"
);
},
{
closed = 1;
nodes = (
"350 -12 OFFCURVE",
"406 -10 OFFCURVE",
"460 0 CURVE",
"460 366 LINE SMOOTH",
"460 534 OFFCURVE",
"450 804 OFFCURVE",
"434 978 CURVE",
"456 986 LINE",
"540 1366 LINE",
"466 1376 OFFCURVE",
"388 1378 OFFCURVE",
"346 1378 CURVE SMOOTH",
"304 1378 OFFCURVE",
"200 1372 OFFCURVE",
"148 1360 CURVE",
"148 0 LINE",
"200 -10 OFFCURVE",
"268 -12 OFFCURVE",
"308 -12 CURVE SMOOTH"
);
},
{
closed = 1;
nodes = (
"1088 -12 OFFCURVE",
"1194 -6 OFFCURVE",
"1248 6 CURVE",
"1248 1366 LINE",
"1234 1380 LINE",
"1126 1380 LINE SMOOTH",
"998 1380 OFFCURVE",
"938 1328 OFFCURVE",
"938 1178 CURVE SMOOTH",
"938 970 LINE SMOOTH",
"938 832 OFFCURVE",
"946 558 OFFCURVE",
"964 368 CURVE",
"940 360 LINE",
"852 0 LINE",
"926 -10 OFFCURVE",
"1004 -12 OFFCURVE",
"1046 -12 CURVE SMOOTH"
);
}
);
width = 1396;
},
{
anchors = (
{
name = bottom;
position = "{575, 0}";
},
{
name = top;
position = "{842, 1464}";
}
);
background = {
anchors = (
{
name = bottom;
position = "{572, 0}";
},
{
name = top;
position = "{839, 1464}";
}
);
paths = (
{
closed = 1;
nodes = (
"1032 179 LINE",
"895 364 LINE",
"879 436 OFFCURVE",
"853 550 OFFCURVE",
"825 670 CURVE SMOOTH",
"655 1366 LINE",
"366 1160 LINE",
"490 982 LINE",
"502 906 OFFCURVE",
"523 802 OFFCURVE",
"549 698 CURVE SMOOTH",
"726 0 LINE"
);
},
{
closed = 1;
nodes = (
"222 -12 OFFCURVE",
"279 -10 OFFCURVE",
"334 0 CURVE",
"399 366 LINE SMOOTH",
"429 534 OFFCURVE",
"466 804 OFFCURVE",
"481 978 CURVE",
"504 986 LINE",
"655 1366 LINE",
"583 1376 OFFCURVE",
"505 1378 OFFCURVE",
"463 1378 CURVE SMOOTH",
"421 1378 OFFCURVE",
"316 1372 OFFCURVE",
"262 1360 CURVE",
"22 0 LINE",
"73 -10 OFFCURVE",
"140 -12 OFFCURVE",
"180 -12 CURVE SMOOTH"
);
},
{
closed = 1;
nodes = (
"960 -12 OFFCURVE",
"1067 -6 OFFCURVE",
"1123 6 CURVE",
"1363 1366 LINE",
"1352 1380 LINE",
"1244 1380 LINE SMOOTH",
"1116 1380 OFFCURVE",
"1047 1328 OFFCURVE",
"1020 1178 CURVE SMOOTH",
"983 970 LINE SMOOTH",
"959 832 OFFCURVE",
"919 558 OFFCURVE",
"903 368 CURVE",
"878 360 LINE",
"726 0 LINE",
"799 -10 OFFCURVE",
"876 -12 OFFCURVE",
"918 -12 CURVE SMOOTH"
);
}
);
};
guideLines = (
{
angle = 101.7611;
position = "{706, 0}";
},
{
angle = 101.7611;
position = "{676, 1366}";
}
);
layerId = "861B5D7F-E490-44BC-908E-F1CBF79092B0";
paths = (
{
closed = 1;
nodes = (
"967 -12 OFFCURVE",
"1046 -6 OFFCURVE",
"1101 6 CURVE",
"1341 1366 LINE",
"1330 1380 LINE",
"1210 1380 LINE SMOOTH",
"1069 1380 OFFCURVE",
"1029 1311 OFFCURVE",
"1010 1202 CURVE SMOOTH",
"969 970 LINE SMOOTH",
"936 786 OFFCURVE",
"906 595 OFFCURVE",
"886 357 CURVE",
"861 352 LINE",
"706 0 LINE",
"768 -9 OFFCURVE",
"846 -12 OFFCURVE",
"897 -12 CURVE SMOOTH"
);
},
{
closed = 1;
nodes = (
"234 -12 OFFCURVE",
"295 -10 OFFCURVE",
"349 0 CURVE",
"414 366 LINE SMOOTH",
"447 554 OFFCURVE",
"479 762 OFFCURVE",
"500 986 CURVE",
"522 992 LINE",
"676 1366 LINE",
"615 1375 OFFCURVE",
"538 1378 OFFCURVE",
"488 1378 CURVE SMOOTH",
"418 1378 OFFCURVE",
"339 1372 OFFCURVE",
"285 1360 CURVE",
"45 0 LINE",
"86 -9 OFFCURVE",
"147 -12 OFFCURVE",
"194 -12 CURVE SMOOTH"
);
},
{
closed = 1;
nodes = (
"1014 179 LINE",
"877 356 LINE",
"859 487 OFFCURVE",
"834 608 OFFCURVE",
"814 702 CURVE SMOOTH",
"676 1366 LINE",
"386 1160 LINE",
"509 988 LINE",
"532 826 OFFCURVE",
"552 739 OFFCURVE",
"574 634 CURVE SMOOTH",
"706 0 LINE"
);
}
);
width = 1321;
},
{
anchors = (
{
name = bottom;
position = "{523, 0}";
},
{
name = top;
position = "{785, 1464}";
}
);
background = {
anchors = (
{
name = bottom;
position = "{523, 0}";
},
{
name = top;
position = "{785, 1464}";
}
);
paths = (
{
closed = 1;
nodes = (
"100 0 LINE",
"121 -4 OFFCURVE",
"139 -6 OFFCURVE",
"158 -6 CURVE SMOOTH",
"176 -6 OFFCURVE",
"196 -4 OFFCURVE",
"221 0 CURVE",
"357 770 LINE SMOOTH",
"383 918 OFFCURVE",
"401 1064 OFFCURVE",
"420 1192 CURVE",
"432 1192 LINE",
"499 1366 LINE",
"479 1370 OFFCURVE",
"445 1372 OFFCURVE",
"419 1372 CURVE SMOOTH",
"395 1372 OFFCURVE",
"364 1370 OFFCURVE",
"341 1366 CURVE"
);
},
{
closed = 1;
nodes = (
"786 0 LINE",
"910 99 LINE",
"861 168 LINE",
"836 256 OFFCURVE",
"814 352 OFFCURVE",
"784 448 CURVE SMOOTH",
"499 1366 LINE",
"379 1280 LINE",
"425 1192 LINE",
"449 1102 OFFCURVE",
"472 1010 OFFCURVE",
"501 918 CURVE SMOOTH"
);
},
{
closed = 1;
nodes = (
"1177 1372 LINE",
"1134 1372 LINE SMOOTH",
"1073 1372 OFFCURVE",
"1060 1334 OFFCURVE",
"1050 1278 CURVE SMOOTH",
"934 616 LINE SMOOTH",
"912 488 OFFCURVE",
"894 371 OFFCURVE",
"866 168 CURVE",
"854 168 LINE",
"786 0 LINE",
"806 -4 OFFCURVE",
"834 -6 OFFCURVE",
"866 -6 CURVE SMOOTH",
"902 -6 OFFCURVE",
"923 -4 OFFCURVE",
"946 0 CURVE",
"1186 1362 LINE"
);
}
);
};
guideLines = (
{
angle = -72.5252;
position = "{807, 0}";
},
{
angle = -72.5252;
position = "{508, 1366}";
}
);
layerId = "1023D002-3304-4399-867A-B886C920D2C0";
paths = (
{
closed = 1;
nodes = (
"921 -6 OFFCURVE",
"959 -4 OFFCURVE",
"981 0 CURVE",
"1221 1362 LINE",
"1212 1372 LINE",
"1156 1372 LINE SMOOTH",
"1095 1372 OFFCURVE",
"1082 1334 OFFCURVE",
"1072 1278 CURVE SMOOTH",
"956 619 LINE SMOOTH",
"933 491 OFFCURVE",
"900 308 OFFCURVE",
"885 162 CURVE",
"873 162 LINE",
"804 0 LINE",
"827 -4 OFFCURVE",
"861 -6 OFFCURVE",
"891 -6 CURVE SMOOTH"
);
},
{
closed = 1;
nodes = (
"186 -6 OFFCURVE",
"211 -4 OFFCURVE",
"228 0 CURVE",
"364 770 LINE SMOOTH",
"391 923 OFFCURVE",
"415 1070 OFFCURVE",
"432 1198 CURVE",
"444 1198 LINE",
"511 1366 LINE",
"490 1370 OFFCURVE",
"454 1372 OFFCURVE",
"426 1372 CURVE SMOOTH",
"400 1372 OFFCURVE",
"360 1370 OFFCURVE",
"335 1366 CURVE",
"94 0 LINE",
"110 -4 OFFCURVE",
"141 -6 OFFCURVE",
"163 -6 CURVE SMOOTH"
);
},
{
closed = 1;
nodes = (
"935 99 LINE",
"880 162 LINE",
"858 250 OFFCURVE",
"829 349 OFFCURVE",
"799 445 CURVE SMOOTH",
"511 1366 LINE",
"380 1280 LINE",
"437 1198 LINE",
"464 1101 OFFCURVE",
"488 1010 OFFCURVE",
"517 918 CURVE SMOOTH",
"804 0 LINE"
);
}
);
width = 1247;
}
);
leftKerningGroup = H;
leftMetricsKey = H;
rightKerningGroup = H;
rightMetricsKey = H;
unicode = 004E;
},
{
color = 4;
glyphname = O;
lastChange = "2020-10-21 12:37:28 +0000";
layers = (
{
anchors = (
{
name = bottom;
position = "{652, 0}";
},
{
name = ogonek;
position = "{836, 8}";
},
{
name = top;
position = "{652, 1464}";
},
{
name = topright;
position = "{996, 1346}";
}
);
background = {
anchors = (
{
name = bottom;
position = "{652, -40}";
},
{
name = top;
position = "{652, 1464}";
}
);
paths = (
{
closed = 1;
nodes = (
"268 946 OFFCURVE",
"342 1268 OFFCURVE",
"652 1268 CURVE SMOOTH",
"962 1268 OFFCURVE",
"1034 946 OFFCURVE",
"1034 684 CURVE SMOOTH",
"1034 422 OFFCURVE",
"962 98 OFFCURVE",
"652 98 CURVE SMOOTH",
"342 98 OFFCURVE",
"268 422 OFFCURVE",
"268 684 CURVE SMOOTH"
);
},
{
closed = 1;
nodes = (
"116 297 OFFCURVE",
"285 -24 OFFCURVE",
"652 -24 CURVE SMOOTH",
"1017 -24 OFFCURVE",
"1188 294 OFFCURVE",
"1188 684 CURVE SMOOTH",
"1188 1070 OFFCURVE",
"1018 1390 OFFCURVE",
"652 1390 CURVE SMOOTH",
"288 1390 OFFCURVE",
"116 1072 OFFCURVE",
"116 684 CURVE SMOOTH"
);
}
);
};
layerId = UUID0;
paths = (
{
closed = 1;
nodes = (
"1017 -24 OFFCURVE",
"1188 294 OFFCURVE",
"1188 684 CURVE SMOOTH",
"1188 1070 OFFCURVE",
"1018 1390 OFFCURVE",
"652 1390 CURVE SMOOTH",
"288 1390 OFFCURVE",
"116 1072 OFFCURVE",
"116 684 CURVE SMOOTH",
"116 297 OFFCURVE",
"285 -24 OFFCURVE",
"652 -24 CURVE SMOOTH"
);
},
{
closed = 1;
nodes = (
"342 98 OFFCURVE",
"268 422 OFFCURVE",
"268 684 CURVE SMOOTH",
"268 946 OFFCURVE",
"342 1268 OFFCURVE",
"652 1268 CURVE SMOOTH",
"962 1268 OFFCURVE",
"1034 946 OFFCURVE",
"1034 684 CURVE SMOOTH",
"1034 422 OFFCURVE",
"962 98 OFFCURVE",
"652 98 CURVE SMOOTH"
);
}
);
width = 1304;
},
{
anchors = (
{
name = bottom;
position = "{668, 0}";
},
{
name = ogonek;
position = "{877, 0}";
},
{
name = top;
position = "{668, 1464}";
},
{
name = topright;
position = "{1112, 1336}";
}
);
background = {
anchors = (
{
name = bottom;
position = "{668, -40}";
},
{
name = top;
position = "{668, 1464}";
}
);
paths = (
{
closed = 1;
nodes = (
"418 890 OFFCURVE",
"444 1140 OFFCURVE",
"668 1140 CURVE SMOOTH",
"892 1140 OFFCURVE",
"918 890 OFFCURVE",
"918 684 CURVE SMOOTH",
"918 478 OFFCURVE",
"892 226 OFFCURVE",
"668 226 CURVE SMOOTH",
"444 226 OFFCURVE",
"418 478 OFFCURVE",
"418 684 CURVE SMOOTH"
);
},
{
closed = 1;
nodes = (
"68 255 OFFCURVE",
"258 -30 OFFCURVE",
"668 -30 CURVE SMOOTH",
"1075 -30 OFFCURVE",
"1268 251 OFFCURVE",
"1268 684 CURVE SMOOTH",
"1268 1112 OFFCURVE",
"1078 1396 OFFCURVE",
"668 1396 CURVE SMOOTH",
"261 1396 OFFCURVE",
"68 1116 OFFCURVE",
"68 684 CURVE SMOOTH"
);
}
);
};
layerId = UUID1;
paths = (
{
closed = 1;
nodes = (
"1075 -30 OFFCURVE",
"1268 251 OFFCURVE",
"1268 684 CURVE SMOOTH",
"1268 1112 OFFCURVE",
"1078 1396 OFFCURVE",
"668 1396 CURVE SMOOTH",
"261 1396 OFFCURVE",
"68 1116 OFFCURVE",
"68 684 CURVE SMOOTH",
"68 255 OFFCURVE",
"258 -30 OFFCURVE",
"668 -30 CURVE SMOOTH"
);
},
{
closed = 1;
nodes = (
"444 226 OFFCURVE",
"418 478 OFFCURVE",
"418 684 CURVE SMOOTH",
"418 890 OFFCURVE",
"444 1140 OFFCURVE",
"668 1140 CURVE SMOOTH",
"892 1140 OFFCURVE",
"918 890 OFFCURVE",
"918 684 CURVE SMOOTH",
"918 478 OFFCURVE",
"892 226 OFFCURVE",
"668 226 CURVE SMOOTH"
);
}
);
width = 1336;
},
{
anchors = (
{
name = bottom;
position = "{535, 0}";
},
{
name = ogonek;
position = "{726, 0}";
},
{
name = top;
position = "{793, 1464}";
},
{
name = topright;
position = "{1180, 1336}";
}
);
background = {
anchors = (
{
name = bottom;
position = "{535, 0}";
},
{
name = ogonek;
position = "{726, 0}";
},
{
name = top;
position = "{793, 1464}";
},
{
name = topright;
position = "{1180, 1336}";
}
);
paths = (
{
closed = 1;
nodes = (
"919 -30 OFFCURVE",
"1152 251 OFFCURVE",
"1228 684 CURVE SMOOTH",
"1304 1112 OFFCURVE",
"1173 1396 OFFCURVE",
"784 1396 CURVE SMOOTH",
"397 1396 OFFCURVE",
"164 1116 OFFCURVE",
"88 684 CURVE SMOOTH",
"13 255 OFFCURVE",
"143 -30 OFFCURVE",
"532 -30 CURVE SMOOTH"
);
},
{
closed = 1;
nodes = (
"380 226 OFFCURVE",
"402 478 OFFCURVE",
"438 684 CURVE SMOOTH",
"474 890 OFFCURVE",
"541 1140 OFFCURVE",
"739 1140 CURVE SMOOTH",
"936 1140 OFFCURVE",
"914 890 OFFCURVE",
"878 684 CURVE SMOOTH",
"842 478 OFFCURVE",
"775 226 OFFCURVE",
"577 226 CURVE SMOOTH"
);
}
);
};
layerId = "861B5D7F-E490-44BC-908E-F1CBF79092B0";
paths = (
{
closed = 1;
nodes = (
"1054 -30 OFFCURVE",
"1242 501 OFFCURVE",
"1242 885 CURVE SMOOTH",
"1242 1177 OFFCURVE",
"1101 1396 OFFCURVE",
"770 1396 CURVE SMOOTH",
"255 1396 OFFCURVE",
"68 857 OFFCURVE",
"68 478 CURVE SMOOTH",
"68 186 OFFCURVE",
"211 -30 OFFCURVE",
"541 -30 CURVE SMOOTH"
);
},
{
closed = 1;
nodes = (
"442 226 OFFCURVE",
"414 361 OFFCURVE",
"414 478 CURVE SMOOTH",
"414 695 OFFCURVE",
"500 1140 OFFCURVE",
"728 1140 CURVE SMOOTH",
"866 1140 OFFCURVE",
"896 1005 OFFCURVE",
"896 884 CURVE SMOOTH",
"896 667 OFFCURVE",
"809 226 OFFCURVE",
"580 226 CURVE SMOOTH"
);
}
);
width = 1246;
},
{
anchors = (
{
name = bottom;
position = "{513, 0}";
},
{
name = ogonek;
position = "{680, 8}";
},
{
name = top;
position = "{771, 1464}";
},
{
name = topright;
position = "{1060, 1346}";
}
);
background = {
anchors = (
{
name = bottom;
position = "{513, 0}";
},
{
name = ogonek;
position = "{680, 8}";
},
{
name = top;
position = "{771, 1464}";
},
{
name = topright;
position = "{1060, 1346}";
}
);
paths = (
{
closed = 1;
nodes = (
"856 -24 OFFCURVE",
"1073 294 OFFCURVE",
"1142 684 CURVE SMOOTH",
"1210 1070 OFFCURVE",
"1106 1390 OFFCURVE",
"761 1390 CURVE SMOOTH",
"417 1390 OFFCURVE",
"199 1072 OFFCURVE",
"130 684 CURVE SMOOTH",
"62 297 OFFCURVE",
"165 -24 OFFCURVE",
"511 -24 CURVE SMOOTH"
);
},
{
closed = 1;
nodes = (
"247 98 OFFCURVE",
"236 422 OFFCURVE",
"282 684 CURVE SMOOTH",
"328 946 OFFCURVE",
"453 1268 OFFCURVE",
"739 1268 CURVE SMOOTH",
"1025 1268 OFFCURVE",
"1034 946 OFFCURVE",
"988 684 CURVE SMOOTH",
"942 422 OFFCURVE",
"819 98 OFFCURVE",
"533 98 CURVE SMOOTH"
);
}
);
};
layerId = "1023D002-3304-4399-867A-B886C920D2C0";
paths = (
{
closed = 1;
nodes = (
"947 -24 OFFCURVE",
"1158 466 OFFCURVE",
"1158 886 CURVE SMOOTH",
"1158 1203 OFFCURVE",
"1007 1390 OFFCURVE",
"753 1390 CURVE SMOOTH",
"325 1390 OFFCURVE",
"114 900 OFFCURVE",
"114 480 CURVE SMOOTH",
"114 163 OFFCURVE",
"265 -24 OFFCURVE",
"519 -24 CURVE SMOOTH"
);
},
{
closed = 1;
nodes = (
"348 97 OFFCURVE",
"265 251 OFFCURVE",
"265 490 CURVE SMOOTH",
"265 832 OFFCURVE",
"418 1269 OFFCURVE",
"732 1269 CURVE SMOOTH",
"924 1269 OFFCURVE",
"1007 1115 OFFCURVE",
"1007 876 CURVE SMOOTH",
"1007 534 OFFCURVE",
"854 97 OFFCURVE",
"540 97 CURVE SMOOTH"
);
}
);
width = 1204;
}
);
leftKerningGroup = C;
rightKerningGroup = O;
rightMetricsKey = "=|";
unicode = 004F;
},
{
color = 4;
glyphname = P;
lastChange = "2020-10-21 10:55:34 +0000";
layers = (
{
anchors = (
{
name = top;
position = "{576, 1464}";
}
);
background = {
anchors = (
{
name = bottom;
position = "{270, -40}";
},
{
name = top;
position = "{576, 1464}";
}
);
paths = (
{
closed = 1;
nodes = (
"1028 1228 OFFCURVE",
"844 1372 OFFCURVE",
"590 1372 CURVE SMOOTH",
"464 1372 OFFCURVE",
"350 1368 OFFCURVE",
"212 1366 CURVE",
"200 1354 LINE",
"200 0 LINE",
"218 -4 OFFCURVE",
"244 -6 OFFCURVE",
"270 -6 CURVE SMOOTH",
"298 -6 OFFCURVE",
"324 -4 OFFCURVE",
"344 0 CURVE",
"344 1252 LINE",
"418 1250 OFFCURVE",
"528 1250 OFFCURVE",
"596 1250 CURVE SMOOTH",
"820 1250 OFFCURVE",
"874 1086 OFFCURVE",
"874 946 CURVE SMOOTH",
"874 810 OFFCURVE",
"820 640 OFFCURVE",
"596 640 CURVE SMOOTH",
"528 640 OFFCURVE",
"358 640 OFFCURVE",
"284 638 CURVE",
"284 518 LINE",
"590 518 LINE",
"848 518 OFFCURVE",
"1028 666 OFFCURVE",
"1028 946 CURVE SMOOTH"
);
}
);
};
layerId = UUID0;
paths = (
{
closed = 1;
nodes = (
"1028 1228 OFFCURVE",
"844 1372 OFFCURVE",
"590 1372 CURVE SMOOTH",
"464 1372 OFFCURVE",
"350 1368 OFFCURVE",
"212 1366 CURVE",
"200 1354 LINE",
"200 0 LINE",
"218 -4 OFFCURVE",
"244 -6 OFFCURVE",
"270 -6 CURVE SMOOTH",
"298 -6 OFFCURVE",
"324 -4 OFFCURVE",
"344 0 CURVE",
"344 1252 LINE",
"418 1250 OFFCURVE",
"528 1250 OFFCURVE",
"596 1250 CURVE SMOOTH",
"820 1250 OFFCURVE",
"874 1086 OFFCURVE",
"874 946 CURVE SMOOTH",
"874 810 OFFCURVE",
"820 640 OFFCURVE",
"596 640 CURVE SMOOTH",
"528 640 OFFCURVE",
"358 640 OFFCURVE",
"284 638 CURVE",
"284 518 LINE",
"590 518 LINE SMOOTH",
"848 518 OFFCURVE",
"1028 666 OFFCURVE",
"1028 946 CURVE SMOOTH"
);
}
);
width = 1108;
},
{
anchors = (
{
name = top;
position = "{602, 1464}";
}
);
background = {
anchors = (
{
name = bottom;
position = "{316, -40}";
},
{
name = top;
position = "{602, 1464}";
}
);
paths = (
{
closed = 1;
nodes = (
"1128 1226 OFFCURVE",
"920 1378 OFFCURVE",
"634 1378 CURVE SMOOTH",
"480 1378 OFFCURVE",
"336 1374 OFFCURVE",
"162 1370 CURVE",
"148 1356 LINE",
"148 0 LINE",
"202 -10 OFFCURVE",
"276 -12 OFFCURVE",
"316 -12 CURVE SMOOTH",
"360 -12 OFFCURVE",
"428 -10 OFFCURVE",
"484 0 CURVE",
"484 1124 LINE",
"536 1122 OFFCURVE",
"566 1122 OFFCURVE",
"604 1122 CURVE SMOOTH",
"758 1122 OFFCURVE",
"786 988 OFFCURVE",
"786 898 CURVE SMOOTH",
"786 806 OFFCURVE",
"758 674 OFFCURVE",
"604 674 CURVE SMOOTH",
"566 674 OFFCURVE",
"394 668 OFFCURVE",
"342 664 CURVE",
"342 420 LINE",
"634 420 LINE",
"920 420 OFFCURVE",
"1128 582 OFFCURVE",
"1128 898 CURVE SMOOTH"
);
}
);
};
layerId = UUID1;
paths = (
{
closed = 1;
nodes = (
"1128 1226 OFFCURVE",
"920 1378 OFFCURVE",
"634 1378 CURVE SMOOTH",
"480 1378 OFFCURVE",
"336 1374 OFFCURVE",
"162 1370 CURVE",
"148 1356 LINE",
"148 0 LINE",
"202 -10 OFFCURVE",
"276 -12 OFFCURVE",
"316 -12 CURVE SMOOTH",
"360 -12 OFFCURVE",
"428 -10 OFFCURVE",
"484 0 CURVE",
"484 1124 LINE",
"536 1122 OFFCURVE",
"566 1122 OFFCURVE",
"604 1122 CURVE SMOOTH",
"758 1122 OFFCURVE",
"786 988 OFFCURVE",
"786 898 CURVE SMOOTH",
"786 806 OFFCURVE",
"758 674 OFFCURVE",
"604 674 CURVE SMOOTH",
"566 674 OFFCURVE",
"394 668 OFFCURVE",
"342 664 CURVE",
"342 420 LINE",
"634 420 LINE SMOOTH",
"920 420 OFFCURVE",
"1128 582 OFFCURVE",
"1128 898 CURVE SMOOTH"
);
}
);
width = 1184;
},
{
anchors = (
{
name = top;
position = "{799, 1464}";
}
);
background = {
paths = (
{
closed = 1;
nodes = (
"630 1122 OFFCURVE",
"660 1122 OFFCURVE",
"698 1122 CURVE SMOOTH",
"809 1122 OFFCURVE",
"817 987 OFFCURVE",
"801 898 CURVE SMOOTH",
"785 807 OFFCURVE",
"745 664 OFFCURVE",
"619 664 CURVE SMOOTH",
"581 664 OFFCURVE",
"408 658 OFFCURVE",
"356 654 CURVE",
"313 410 LINE",
"605 410 LINE SMOOTH",
"871 410 OFFCURVE",
"1087 583 OFFCURVE",
"1143 898 CURVE SMOOTH",
"1201 1225 OFFCURVE",
"1032 1378 OFFCURVE",
"774 1378 CURVE SMOOTH",
"620 1378 OFFCURVE",
"475 1374 OFFCURVE",
"300 1370 CURVE",
"284 1356 LINE",
"46 0 LINE",
"102 -10 OFFCURVE",
"170 -12 OFFCURVE",
"216 -12 CURVE SMOOTH",
"262 -12 OFFCURVE",
"322 -10 OFFCURVE",
"382 0 CURVE",
"579 1124 LINE"
);
}
);
};
layerId = "861B5D7F-E490-44BC-908E-F1CBF79092B0";
paths = (
{
closed = 1;
nodes = (
"262 -12 OFFCURVE",
"322 -10 OFFCURVE",
"382 0 CURVE",
"581 1127 LINE",
"611 1125 OFFCURVE",
"630 1125 OFFCURVE",
"661 1125 CURVE SMOOTH",
"765 1125 OFFCURVE",
"807 1074 OFFCURVE",
"807 963 CURVE SMOOTH",
"807 822 OFFCURVE",
"748 661 OFFCURVE",
"606 660 CURVE SMOOTH",
"548 660 OFFCURVE",
"470 660 OFFCURVE",
"416 658 CURVE",
"373 410 LINE",
"590 410 LINE SMOOTH",
"977 410 OFFCURVE",
"1150 679 OFFCURVE",
"1150 1010 CURVE SMOOTH",
"1150 1275 OFFCURVE",
"957 1377 OFFCURVE",
"730 1377 CURVE SMOOTH",
"560 1377 OFFCURVE",
"378 1372 OFFCURVE",
"300 1370 CURVE",
"284 1356 LINE",
"46 0 LINE",
"102 -10 OFFCURVE",
"170 -12 OFFCURVE",
"216 -12 CURVE SMOOTH"
);
}
);
width = 1114;
},
{
anchors = (
{
name = top;
position = "{704, 1464}";
}
);
background = {
anchors = (
{
name = top;
position = "{704, 1464}";
}
);
paths = (
{
closed = 1;
nodes = (
"1030 1264 OFFCURVE",
"898 1372 OFFCURVE",
"701 1372 CURVE SMOOTH",
"588 1372 OFFCURVE",
"484 1368 OFFCURVE",
"360 1366 CURVE",
"347 1354 LINE",
"108 0 LINE",
"123 -4 OFFCURVE",
"147 -6 OFFCURVE",
"170 -6 CURVE SMOOTH",
"194 -6 OFFCURVE",
"219 -4 OFFCURVE",
"238 0 CURVE",
"459 1252 LINE",
"524 1250 OFFCURVE",
"623 1250 OFFCURVE",
"684 1250 CURVE SMOOTH",
"844 1250 OFFCURVE",
"890 1147 OFFCURVE",
"890 1035 CURVE SMOOTH",
"890 817 OFFCURVE",
"768 640 OFFCURVE",
"577 640 CURVE SMOOTH",
"516 640 OFFCURVE",
"363 640 OFFCURVE",
"296 638 CURVE",
"275 518 LINE",
"550 518 LINE SMOOTH",
"827 518 OFFCURVE",
"1030 744 OFFCURVE",
"1030 1053 CURVE SMOOTH"
);
}
);
};
layerId = "1023D002-3304-4399-867A-B886C920D2C0";
paths = (
{
closed = 1;
nodes = (
"193 -6 OFFCURVE",
"219 -4 OFFCURVE",
"238 0 CURVE",
"459 1252 LINE",
"521 1250 OFFCURVE",
"615 1250 OFFCURVE",
"674 1250 CURVE SMOOTH",
"853 1250 OFFCURVE",
"900 1157 OFFCURVE",
"900 1024 CURVE SMOOTH",
"900 823 OFFCURVE",
"782 640 OFFCURVE",
"556 640 CURVE SMOOTH",
"463 640 OFFCURVE",
"392 638 OFFCURVE",
"296 638 CURVE",
"275 518 LINE",
"543 518 LINE SMOOTH",
"871 518 OFFCURVE",
"1049 757 OFFCURVE",
"1049 1038 CURVE SMOOTH",
"1049 1280 OFFCURVE",
"914 1372 OFFCURVE",
"656 1372 CURVE SMOOTH",
"592 1372 OFFCURVE",
"390 1367 OFFCURVE",
"346 1366 CURVE",
"333 1354 LINE",
"94 0 LINE",
"113 -4 OFFCURVE",
"143 -6 OFFCURVE",
"167 -6 CURVE SMOOTH"
);
}
);
width = 1005;
}
);
leftKerningGroup = H;
leftMetricsKey = H;
rightKerningGroup = P;
unicode = 0050;
},
{
color = 4;
glyphname = Q;
lastChange = "2020-10-20 12:38:29 +0000";
layers = (
{
background = {
paths = (
{
closed = 1;
nodes = (
"268 950 OFFCURVE",
"330 1268 OFFCURVE",
"640 1268 CURVE SMOOTH",
"950 1268 OFFCURVE",
"1010 950 OFFCURVE",
"1010 684 CURVE SMOOTH",
"1010 418 OFFCURVE",
"950 104 OFFCURVE",
"640 104 CURVE SMOOTH",
"330 104 OFFCURVE",
"268 418 OFFCURVE",
"268 684 CURVE SMOOTH"
);
},
{
closed = 1;
nodes = (
"116 282 OFFCURVE",
"265 -24 OFFCURVE",
"652 -24 CURVE SMOOTH",
"716 -24 OFFCURVE",
"732 -8 OFFCURVE",
"766 8 CURVE SMOOTH",
"1037 16 OFFCURVE",
"1164 373 OFFCURVE",
"1164 684 CURVE SMOOTH",
"1164 1077 OFFCURVE",
"1014 1390 OFFCURVE",
"640 1390 CURVE SMOOTH",
"268 1390 OFFCURVE",
"116 1080 OFFCURVE",
"116 684 CURVE SMOOTH"
);
},
{
closed = 1;
nodes = (
"928 -196 LINE",
"964 -220 OFFCURVE",
"998 -234 OFFCURVE",
"1044 -234 CURVE SMOOTH",
"1090 -234 OFFCURVE",
"1144 -206 OFFCURVE",
"1150 -126 CURVE",
"1088 -124 OFFCURVE",
"1036 -104 OFFCURVE",
"896 -4 CURVE SMOOTH",
"782 78 LINE",
"612 26 LINE"
);
}
);
};
layerId = UUID0;
paths = (
{
closed = 1;
nodes = (
"716 -24 OFFCURVE",
"724 0 OFFCURVE",
"767 3 CURVE SMOOTH",
"1023 23 OFFCURVE",
"1164 346 OFFCURVE",
"1164 684 CURVE SMOOTH",
"1164 1077 OFFCURVE",
"1014 1390 OFFCURVE",
"640 1390 CURVE SMOOTH",
"268 1390 OFFCURVE",
"116 1080 OFFCURVE",
"116 684 CURVE SMOOTH",
"116 282 OFFCURVE",
"265 -24 OFFCURVE",
"652 -24 CURVE SMOOTH"
);
},
{
closed = 1;
nodes = (
"1090 -234 OFFCURVE",
"1144 -206 OFFCURVE",
"1150 -126 CURVE",
"1080 -124 OFFCURVE",
"1020 -93 OFFCURVE",
"896 -4 CURVE SMOOTH",
"782 78 LINE",
"612 26 LINE",
"928 -196 LINE SMOOTH",
"963 -221 OFFCURVE",
"998 -234 OFFCURVE",
"1044 -234 CURVE SMOOTH"
);
},
{
closed = 1;
nodes = (
"330 104 OFFCURVE",
"268 418 OFFCURVE",
"268 684 CURVE SMOOTH",
"268 950 OFFCURVE",
"330 1268 OFFCURVE",
"640 1268 CURVE SMOOTH",
"950 1268 OFFCURVE",
"1010 950 OFFCURVE",
"1010 684 CURVE SMOOTH",
"1010 418 OFFCURVE",
"950 104 OFFCURVE",
"640 104 CURVE SMOOTH"
);
}
);
width = 1280;
},
{
background = {
paths = (
{
closed = 1;
nodes = (
"412 892 OFFCURVE",
"446 1140 OFFCURVE",
"672 1140 CURVE SMOOTH",
"898 1140 OFFCURVE",
"930 892 OFFCURVE",
"930 684 CURVE SMOOTH",
"930 478 OFFCURVE",
"898 226 OFFCURVE",
"672 226 CURVE SMOOTH",
"446 226 OFFCURVE",
"412 478 OFFCURVE",
"412 684 CURVE SMOOTH"
);
},
{
closed = 1;
nodes = (
"68 265 OFFCURVE",
"260 -30 OFFCURVE",
"670 -30 CURVE SMOOTH",
"738 -30 OFFCURVE",
"798 4 OFFCURVE",
"848 44 CURVE SMOOTH",
"1151 44 OFFCURVE",
"1276 347 OFFCURVE",
"1276 682 CURVE SMOOTH",
"1276 1104 OFFCURVE",
"1085 1396 OFFCURVE",
"672 1396 CURVE SMOOTH",
"261 1396 OFFCURVE",
"68 1107 OFFCURVE",
"68 684 CURVE SMOOTH"
);
},
{
closed = 1;
nodes = (
"866 -210 LINE",
"922 -260 OFFCURVE",
"990 -294 OFFCURVE",
"1088 -294 CURVE SMOOTH",
"1200 -294 OFFCURVE",
"1296 -202 OFFCURVE",
"1298 -56 CURVE",
"1214 -56 OFFCURVE",
"1148 -36 OFFCURVE",
"1046 36 CURVE SMOOTH",
"852 174 LINE",
"552 72 LINE"
);
}
);
};
layerId = UUID1;
paths = (
{
closed = 1;
nodes = (
"738 -30 OFFCURVE",
"792 24 OFFCURVE",
"849 30 CURVE SMOOTH",
"1150 64 OFFCURVE",
"1276 345 OFFCURVE",
"1276 682 CURVE SMOOTH",
"1276 1104 OFFCURVE",
"1085 1396 OFFCURVE",
"672 1396 CURVE SMOOTH",
"261 1396 OFFCURVE",
"68 1107 OFFCURVE",
"68 684 CURVE SMOOTH",
"68 265 OFFCURVE",
"260 -30 OFFCURVE",
"670 -30 CURVE SMOOTH"
);
},
{
closed = 1;
nodes = (
"1200 -294 OFFCURVE",
"1296 -202 OFFCURVE",
"1298 -56 CURVE",
"1207 -56 OFFCURVE",
"1140 -31 OFFCURVE",
"1046 36 CURVE SMOOTH",
"852 174 LINE",
"552 72 LINE",
"866 -210 LINE SMOOTH",
"922 -260 OFFCURVE",
"990 -294 OFFCURVE",
"1088 -294 CURVE SMOOTH"
);
},
{
closed = 1;
nodes = (
"446 226 OFFCURVE",
"412 478 OFFCURVE",
"412 684 CURVE SMOOTH",
"412 892 OFFCURVE",
"446 1140 OFFCURVE",
"672 1140 CURVE SMOOTH",
"898 1140 OFFCURVE",
"930 892 OFFCURVE",
"930 684 CURVE SMOOTH",
"930 478 OFFCURVE",
"898 226 OFFCURVE",
"672 226 CURVE SMOOTH"
);
}
);
width = 1344;
},
{
background = {
paths = (
{
closed = 1;
nodes = (
"463 892 OFFCURVE",
"537 1140 OFFCURVE",
"737 1140 CURVE SMOOTH",
"937 1140 OFFCURVE",
"921 892 OFFCURVE",
"884 684 CURVE SMOOTH",
"848 478 OFFCURVE",
"776 226 OFFCURVE",
"576 226 CURVE SMOOTH",
"376 226 OFFCURVE",
"390 478 OFFCURVE",
"426 684 CURVE SMOOTH"
);
},
{
closed = 1;
nodes = (
"9 265 OFFCURVE",
"139 -30 OFFCURVE",
"529 -30 CURVE SMOOTH",
"597 -30 OFFCURVE",
"660 24 OFFCURVE",
"718 30 CURVE SMOOTH",
"1004 62 OFFCURVE",
"1171 345 OFFCURVE",
"1230 682 CURVE SMOOTH",
"1305 1104 OFFCURVE",
"1174 1396 OFFCURVE",
"782 1396 CURVE SMOOTH",
"391 1396 OFFCURVE",
"157 1107 OFFCURVE",
"82 684 CURVE SMOOTH"
);
},
{
closed = 1;
nodes = (
"673 -210 LINE SMOOTH",
"720 -260 OFFCURVE",
"782 -294 OFFCURVE",
"880 -294 CURVE SMOOTH",
"992 -294 OFFCURVE",
"1104 -202 OFFCURVE",
"1132 -56 CURVE",
"1041 -56 OFFCURVE",
"978 -31 OFFCURVE",
"896 36 CURVE SMOOTH",
"747 174 LINE",
"429 72 LINE"
);
}
);
};
layerId = "861B5D7F-E490-44BC-908E-F1CBF79092B0";
paths = (
{
closed = 1;
nodes = (
"598 -30 OFFCURVE",
"667 -22 OFFCURVE",
"733 29 CURVE",
"1098 85 OFFCURVE",
"1243 562 OFFCURVE",
"1243 874 CURVE SMOOTH",
"1243 1180 OFFCURVE",
"1103 1396 OFFCURVE",
"775 1396 CURVE SMOOTH",
"255 1396 OFFCURVE",
"69 849 OFFCURVE",
"69 486 CURVE SMOOTH",
"69 157 OFFCURVE",
"240 -30 OFFCURVE",
"537 -30 CURVE SMOOTH"
);
},
{
closed = 1;
nodes = (
"1024 -294 OFFCURVE",
"1107 -198 OFFCURVE",
"1124 -63 CURVE",
"1061 -59 OFFCURVE",
"998 -42 OFFCURVE",
"935 2 CURVE SMOOTH",
"877 43 OFFCURVE",
"835 71 OFFCURVE",
"782 94 CURVE",
"466 -19 LINE",
"531 -35 OFFCURVE",
"619 -135 OFFCURVE",
"695 -205 CURVE SMOOTH",
"760 -264 OFFCURVE",
"821 -294 OFFCURVE",
"896 -294 CURVE SMOOTH"
);
},
{
closed = 1;
nodes = (
"444 226 OFFCURVE",
"415 361 OFFCURVE",
"415 485 CURVE SMOOTH",
"415 695 OFFCURVE",
"499 1140 OFFCURVE",
"736 1140 CURVE SMOOTH",
"866 1140 OFFCURVE",
"897 1005 OFFCURVE",
"897 878 CURVE SMOOTH",
"897 667 OFFCURVE",
"812 226 OFFCURVE",
"575 226 CURVE SMOOTH"
);
}
);
width = 1254;
},
{
background = {
paths = (
{
closed = 1;
nodes = (
"568 -24 OFFCURVE",
"610 -19 OFFCURVE",
"649 -9 CURVE SMOOTH",
"989 76 OFFCURVE",
"1160 510 OFFCURVE",
"1160 869 CURVE SMOOTH",
"1160 1209 OFFCURVE",
"1006 1390 OFFCURVE",
"751 1390 CURVE SMOOTH",
"329 1390 OFFCURVE",
"116 897 OFFCURVE",
"116 497 CURVE SMOOTH",
"116 157 OFFCURVE",
"270 -24 OFFCURVE",
"525 -24 CURVE SMOOTH"
);
},
{
closed = 1;
nodes = (
"938 -232 OFFCURVE",
"984 -191 OFFCURVE",
"998 -122 CURVE",
"955 -119 OFFCURVE",
"911 -107 OFFCURVE",
"851 -66 CURVE SMOOTH",
"776 -14 OFFCURVE",
"739 12 OFFCURVE",
"672 41 CURVE",
"513 -22 LINE",
"597 -38 OFFCURVE",
"668 -106 OFFCURVE",
"749 -168 CURVE SMOOTH",
"805 -211 OFFCURVE",
"840 -232 OFFCURVE",
"884 -232 CURVE SMOOTH"
);
},
{
closed = 1;
nodes = (
"351 97 OFFCURVE",
"267 251 OFFCURVE",
"267 494 CURVE SMOOTH",
"267 811 OFFCURVE",
"409 1269 OFFCURVE",
"736 1269 CURVE SMOOTH",
"925 1269 OFFCURVE",
"1009 1115 OFFCURVE",
"1009 872 CURVE SMOOTH",
"1009 555 OFFCURVE",
"867 97 OFFCURVE",
"540 97 CURVE SMOOTH"
);
}
);
};
layerId = "1023D002-3304-4399-867A-B886C920D2C0";
paths = (
{
closed = 1;
nodes = (
"568 -24 OFFCURVE",
"610 -14 OFFCURVE",
"649 0 CURVE",
"979 59 OFFCURVE",
"1160 510 OFFCURVE",
"1160 869 CURVE SMOOTH",
"1160 1209 OFFCURVE",
"1006 1390 OFFCURVE",
"751 1390 CURVE SMOOTH",
"329 1390 OFFCURVE",
"116 897 OFFCURVE",
"116 497 CURVE SMOOTH",
"116 157 OFFCURVE",
"270 -24 OFFCURVE",
"525 -24 CURVE SMOOTH"
);
},
{
closed = 1;
nodes = (
"938 -232 OFFCURVE",
"984 -191 OFFCURVE",
"998 -122 CURVE",
"955 -119 OFFCURVE",
"911 -107 OFFCURVE",
"851 -66 CURVE SMOOTH",
"776 -14 OFFCURVE",
"739 12 OFFCURVE",
"672 41 CURVE",
"513 -22 LINE",
"597 -38 OFFCURVE",
"668 -106 OFFCURVE",
"749 -168 CURVE SMOOTH",
"805 -211 OFFCURVE",
"840 -232 OFFCURVE",
"884 -232 CURVE SMOOTH"
);
},
{
closed = 1;
nodes = (
"351 97 OFFCURVE",
"267 251 OFFCURVE",
"267 494 CURVE SMOOTH",
"267 811 OFFCURVE",
"409 1269 OFFCURVE",
"736 1269 CURVE SMOOTH",
"925 1269 OFFCURVE",
"1009 1115 OFFCURVE",
"1009 872 CURVE SMOOTH",
"1009 555 OFFCURVE",
"867 97 OFFCURVE",
"540 97 CURVE SMOOTH"
);
}
);
width = 1207;
}
);
leftKerningGroup = C;
leftMetricsKey = O;
rightKerningGroup = O;
unicode = 0051;
},
{
color = 4;
glyphname = R;
lastChange = "2020-10-21 12:33:15 +0000";
layers = (
{
anchors = (
{
name = bottom;
position = "{606, 0}";
},
{
name = top;
position = "{590, 1464}";
}
);
background = {
anchors = (
{
name = bottom;
position = "{606, -40}";
},
{
name = top;
position = "{590, 1464}";
}
);
paths = (
{
closed = 1;
nodes = (
"1044 1220 OFFCURVE",
"890 1372 OFFCURVE",
"612 1372 CURVE SMOOTH",
"486 1372 OFFCURVE",
"350 1368 OFFCURVE",
"212 1366 CURVE",
"200 1354 LINE",
"200 0 LINE",
"218 -4 OFFCURVE",
"244 -6 OFFCURVE",
"270 -6 CURVE SMOOTH",
"298 -6 OFFCURVE",
"324 -4 OFFCURVE",
"344 0 CURVE",
"344 1252 LINE",
"418 1250 OFFCURVE",
"544 1250 OFFCURVE",
"612 1250 CURVE SMOOTH",
"836 1250 OFFCURVE",
"892 1110 OFFCURVE",
"892 978 CURVE SMOOTH",
"892 850 OFFCURVE",
"836 706 OFFCURVE",
"612 706 CURVE SMOOTH",
"512 706 OFFCURVE",
"378 704 OFFCURVE",
"284 700 CURVE",
"284 580 LINE",
"558 580 LINE SMOOTH",
"694 580 OFFCURVE",
"742 500 OFFCURVE",
"782 394 CURVE SMOOTH",
"900 84 LINE SMOOTH",
"924 22 OFFCURVE",
"946 -12 OFFCURVE",
"1004 -12 CURVE SMOOTH",
"1036 -12 OFFCURVE",
"1084 2 OFFCURVE",
"1104 36 CURVE",
"1072 61 OFFCURVE",
"1054 89 OFFCURVE",
"1020 178 CURVE SMOOTH",
"914 454 LINE SMOOTH",
"886 526 OFFCURVE",
"840 594 OFFCURVE",
"780 614 CURVE",
"944 662 OFFCURVE",
"1044 798 OFFCURVE",
"1044 978 CURVE SMOOTH"
);
}
);
};
layerId = UUID0;
paths = (
{
closed = 1;
nodes = (
"1044 1220 OFFCURVE",
"890 1372 OFFCURVE",
"612 1372 CURVE SMOOTH",
"486 1372 OFFCURVE",
"350 1368 OFFCURVE",
"212 1366 CURVE",
"200 1354 LINE",
"200 0 LINE",
"218 -4 OFFCURVE",
"244 -6 OFFCURVE",
"270 -6 CURVE SMOOTH",
"298 -6 OFFCURVE",
"324 -4 OFFCURVE",
"344 0 CURVE",
"344 1252 LINE",
"418 1250 OFFCURVE",
"544 1250 OFFCURVE",
"612 1250 CURVE SMOOTH",
"836 1250 OFFCURVE",
"892 1110 OFFCURVE",
"892 978 CURVE SMOOTH",
"892 850 OFFCURVE",
"836 706 OFFCURVE",
"612 706 CURVE SMOOTH",
"512 706 OFFCURVE",
"378 704 OFFCURVE",
"284 700 CURVE",
"284 580 LINE",
"558 580 LINE SMOOTH",
"699 580 OFFCURVE",
"746 490 OFFCURVE",
"782 394 CURVE SMOOTH",
"900 84 LINE SMOOTH",
"924 22 OFFCURVE",
"946 -12 OFFCURVE",
"1004 -12 CURVE SMOOTH",
"1036 -12 OFFCURVE",
"1084 2 OFFCURVE",
"1104 36 CURVE",
"1064 67 OFFCURVE",
"1047 107 OFFCURVE",
"1020 178 CURVE SMOOTH",
"914 454 LINE SMOOTH",
"886 526 OFFCURVE",
"840 593 OFFCURVE",
"780 614 CURVE",
"944 662 OFFCURVE",
"1044 798 OFFCURVE",
"1044 978 CURVE SMOOTH"
);
}
);
width = 1182;
},
{
anchors = (
{
name = bottom;
position = "{654, 0}";
},
{
name = top;
position = "{605, 1464}";
}
);
background = {
anchors = (
{
name = bottom;
position = "{654, -40}";
},
{
name = top;
position = "{610, 1464}";
}
);
paths = (
{
closed = 1;
nodes = (
"1140 1248 OFFCURVE",
"926 1378 OFFCURVE",
"648 1378 CURVE SMOOTH",
"494 1378 OFFCURVE",
"336 1374 OFFCURVE",
"162 1370 CURVE",
"148 1356 LINE",
"148 0 LINE",
"202 -10 OFFCURVE",
"274 -12 OFFCURVE",
"314 -12 CURVE SMOOTH",
"358 -12 OFFCURVE",
"424 -10 OFFCURVE",
"480 0 CURVE",
"480 1128 LINE",
"536 1126 OFFCURVE",
"580 1126 OFFCURVE",
"618 1126 CURVE SMOOTH",
"764 1126 OFFCURVE",
"798 1042 OFFCURVE",
"798 940 CURVE SMOOTH",
"798 842 OFFCURVE",
"764 754 OFFCURVE",
"618 754 CURVE SMOOTH",
"580 754 OFFCURVE",
"420 748 OFFCURVE",
"344 744 CURVE",
"344 494 LINE",
"552 494 LINE SMOOTH",
"656 494 OFFCURVE",
"694 440 OFFCURVE",
"716 374 CURVE SMOOTH",
"784 174 LINE SMOOTH",
"828 46 OFFCURVE",
"868 -18 OFFCURVE",
"988 -18 CURVE SMOOTH",
"1078 -18 OFFCURVE",
"1168 24 OFFCURVE",
"1210 80 CURVE",
"1166 114 OFFCURVE",
"1131 167 OFFCURVE",
"1110 228 CURVE SMOOTH",
"1054 388 LINE SMOOTH",
"1023 477 OFFCURVE",
"974 546 OFFCURVE",
"898 574 CURVE",
"1008 618 OFFCURVE",
"1140 746 OFFCURVE",
"1140 940 CURVE SMOOTH"
);
}
);
};
layerId = UUID1;
paths = (
{
closed = 1;
nodes = (
"1140 1248 OFFCURVE",
"926 1378 OFFCURVE",
"648 1378 CURVE SMOOTH",
"494 1378 OFFCURVE",
"336 1374 OFFCURVE",
"162 1370 CURVE",
"148 1356 LINE",
"148 0 LINE",
"202 -10 OFFCURVE",
"274 -12 OFFCURVE",
"314 -12 CURVE SMOOTH",
"358 -12 OFFCURVE",
"424 -10 OFFCURVE",
"480 0 CURVE",
"480 1128 LINE",
"536 1126 OFFCURVE",
"580 1126 OFFCURVE",
"618 1126 CURVE SMOOTH",
"764 1126 OFFCURVE",
"798 1042 OFFCURVE",
"798 940 CURVE SMOOTH",
"798 842 OFFCURVE",
"764 754 OFFCURVE",
"618 754 CURVE SMOOTH",
"580 754 OFFCURVE",
"420 748 OFFCURVE",
"344 744 CURVE",
"344 494 LINE",
"552 494 LINE SMOOTH",
"656 494 OFFCURVE",
"694 440 OFFCURVE",
"716 374 CURVE SMOOTH",
"784 174 LINE SMOOTH",
"827 47 OFFCURVE",
"867 -18 OFFCURVE",
"988 -18 CURVE SMOOTH",
"1078 -18 OFFCURVE",
"1168 24 OFFCURVE",
"1210 80 CURVE",
"1166 114 OFFCURVE",
"1131 167 OFFCURVE",
"1110 228 CURVE SMOOTH",
"1054 388 LINE SMOOTH",
"1023 477 OFFCURVE",
"974 547 OFFCURVE",
"898 574 CURVE",
"1008 618 OFFCURVE",
"1140 746 OFFCURVE",
"1140 940 CURVE SMOOTH"
);
}
);
width = 1234;
},
{
anchors = (
{
name = bottom;
position = "{531, 0}";
},
{
name = top;
position = "{740, 1464}";
}
);
background = {
anchors = (
{
name = bottom;
position = "{555, 0}";
},
{
name = top;
position = "{764, 1464}";
}
);
paths = (
{
closed = 1;
nodes = (
"1217 1248 OFFCURVE",
"1029 1378 OFFCURVE",
"758 1378 CURVE SMOOTH",
"613 1378 OFFCURVE",
"464 1374 OFFCURVE",
"301 1370 CURVE",
"284 1356 LINE",
"45 0 LINE",
"97 -10 OFFCURVE",
"169 -12 OFFCURVE",
"209 -12 CURVE SMOOTH",
"253 -12 OFFCURVE",
"319 -10 OFFCURVE",
"377 0 CURVE",
"576 1128 LINE",
"620 1126 OFFCURVE",
"654 1126 OFFCURVE",
"684 1126 CURVE SMOOTH",
"820 1126 OFFCURVE",
"839 1042 OFFCURVE",
"821 940 CURVE SMOOTH",
"804 842 OFFCURVE",
"754 754 OFFCURVE",
"608 754 CURVE SMOOTH",
"575 754 OFFCURVE",
"438 748 OFFCURVE",
"372 744 CURVE",
"328 494 LINE",
"506 494 LINE SMOOTH",
"603 494 OFFCURVE",
"628 440 OFFCURVE",
"639 374 CURVE SMOOTH",
"672 174 LINE SMOOTH",
"693 47 OFFCURVE",
"721 -18 OFFCURVE",
"842 -18 CURVE SMOOTH",
"932 -18 OFFCURVE",
"1029 24 OFFCURVE",
"1081 80 CURVE",
"1043 114 OFFCURVE",
"1017 167 OFFCURVE",
"1007 228 CURVE SMOOTH",
"980 388 LINE SMOOTH",
"965 477 OFFCURVE",
"928 547 OFFCURVE",
"856 574 CURVE",
"984 618 OFFCURVE",
"1139 746 OFFCURVE",
"1163 940 CURVE SMOOTH"
);
}
);
};
layerId = "861B5D7F-E490-44BC-908E-F1CBF79092B0";
paths = (
{
closed = 1;
nodes = (
"1003 630 OFFCURVE",
"1170 777 OFFCURVE",
"1170 1015 CURVE SMOOTH",
"1170 1256 OFFCURVE",
"1006 1378 OFFCURVE",
"731 1378 CURVE SMOOTH",
"553 1378 OFFCURVE",
"419 1374 OFFCURVE",
"301 1370 CURVE",
"284 1356 LINE",
"45 0 LINE",
"97 -10 OFFCURVE",
"170 -12 OFFCURVE",
"210 -12 CURVE SMOOTH",
"253 -12 OFFCURVE",
"320 -10 OFFCURVE",
"377 0 CURVE",
"576 1128 LINE",
"619 1126 OFFCURVE",
"648 1126 OFFCURVE",
"685 1126 CURVE SMOOTH",
"791 1126 OFFCURVE",
"829 1072 OFFCURVE",
"829 987 CURVE SMOOTH",
"829 848 OFFCURVE",
"757 757 OFFCURVE",
"621 757 CURVE SMOOTH",
"555 757 OFFCURVE",
"470 757 OFFCURVE",
"357 757 CURVE",
"313 497 LINE",
"510 497 LINE SMOOTH",
"614 497 OFFCURVE",
"644 452 OFFCURVE",
"658 358 CURVE SMOOTH",
"689 151 LINE SMOOTH",
"705 46 OFFCURVE",
"740 -23 OFFCURVE",
"862 -23 CURVE SMOOTH",
"954 -23 OFFCURVE",
"1051 20 OFFCURVE",
"1085 71 CURVE",
"1046 111 OFFCURVE",
"1026 146 OFFCURVE",
"1009 259 CURVE SMOOTH",
"989 391 LINE SMOOTH",
"976 477 OFFCURVE",
"931 559 OFFCURVE",
"853 591 CURVE"
);
}
);
width = 1171;
},
{
anchors = (
{
name = bottom;
position = "{466, 0}";
},
{
name = top;
position = "{708, 1464}";
}
);
background = {
anchors = (
{
name = bottom;
position = "{459, 0}";
},
{
name = top;
position = "{703, 1464}";
}
);
paths = (
{
closed = 1;
nodes = (
"1103 1220 OFFCURVE",
"986 1372 OFFCURVE",
"708 1372 CURVE SMOOTH",
"595 1372 OFFCURVE",
"472 1368 OFFCURVE",
"347 1366 CURVE",
"333 1354 LINE",
"94 0 LINE",
"111 -4 OFFCURVE",
"137 -6 OFFCURVE",
"163 -6 CURVE SMOOTH",
"191 -6 OFFCURVE",
"217 -4 OFFCURVE",
"238 0 CURVE",
"459 1252 LINE",
"521 1250 OFFCURVE",
"629 1250 OFFCURVE",
"687 1250 CURVE SMOOTH",
"911 1250 OFFCURVE",
"932 1110 OFFCURVE",
"909 978 CURVE SMOOTH",
"886 850 OFFCURVE",
"815 706 OFFCURVE",
"591 706 CURVE SMOOTH",
"503 706 OFFCURVE",
"385 704 OFFCURVE",
"302 700 CURVE",
"280 580 LINE",
"514 580 LINE SMOOTH",
"655 580 OFFCURVE",
"689 491 OFFCURVE",
"706 394 CURVE SMOOTH",
"759 84 LINE SMOOTH",
"770 21 OFFCURVE",
"788 -12 OFFCURVE",
"846 -12 CURVE SMOOTH",
"878 -12 OFFCURVE",
"928 2 OFFCURVE",
"954 36 CURVE",
"920 67 OFFCURVE",
"908 106 OFFCURVE",
"895 178 CURVE SMOOTH",
"848 454 LINE SMOOTH",
"836 527 OFFCURVE",
"799 593 OFFCURVE",
"742 614 CURVE",
"915 662 OFFCURVE",
"1029 798 OFFCURVE",
"1061 978 CURVE SMOOTH"
);
}
);
};
layerId = "1023D002-3304-4399-867A-B886C920D2C0";
paths = (
{
closed = 1;
nodes = (
"931 653 OFFCURVE",
"1065 827 OFFCURVE",
"1065 1050 CURVE SMOOTH",
"1065 1252 OFFCURVE",
"934 1372 OFFCURVE",
"676 1372 CURVE SMOOTH",
"577 1372 OFFCURVE",
"462 1368 OFFCURVE",
"347 1366 CURVE",
"333 1354 LINE",
"94 0 LINE",
"113 -4 OFFCURVE",
"143 -6 OFFCURVE",
"167 -6 CURVE SMOOTH",
"193 -6 OFFCURVE",
"219 -4 OFFCURVE",
"238 0 CURVE",
"459 1252 LINE",
"512 1250 OFFCURVE",
"602 1250 OFFCURVE",
"651 1250 CURVE SMOOTH",
"853 1250 OFFCURVE",
"915 1173 OFFCURVE",
"915 1037 CURVE SMOOTH",
"915 841 OFFCURVE",
"788 706 OFFCURVE",
"560 706 CURVE SMOOTH",
"489 706 OFFCURVE",
"379 705 OFFCURVE",
"302 702 CURVE",
"280 580 LINE",
"484 580 LINE SMOOTH",
"635 580 OFFCURVE",
"680 520 OFFCURVE",
"705 380 CURVE SMOOTH",
"757 84 LINE SMOOTH",
"767 25 OFFCURVE",
"792 -12 OFFCURVE",
"845 -12 CURVE SMOOTH",
"885 -12 OFFCURVE",
"927 8 OFFCURVE",
"950 38 CURVE",
"916 69 OFFCURVE",
"897 115 OFFCURVE",
"884 186 CURVE SMOOTH",
"841 424 LINE SMOOTH",
"823 526 OFFCURVE",
"783 585 OFFCURVE",
"723 615 CURVE"
);
}
);
width = 1086;
}
);
leftKerningGroup = H;
leftMetricsKey = H;
rightKerningGroup = R;
unicode = 0052;
},
{
color = 4;
glyphname = S;
lastChange = "2020-10-21 11:56:17 +0000";
layers = (
{
anchors = (
{
name = bottom;
position = "{556, 0}";
},
{
name = top;
position = "{565, 1464}";
}
);
background = {
anchors = (
{
name = bottom;
position = "{546, -40}";
},
{
name = top;
position = "{576, 1464}";
}
);
paths = (
{
closed = 1;
nodes = (
"204 36 OFFCURVE",
"374 -24 OFFCURVE",
"542 -24 CURVE SMOOTH",
"860 -24 OFFCURVE",
"1010 138 OFFCURVE",
"1010 360 CURVE SMOOTH",
"1010 544 OFFCURVE",
"868 652 OFFCURVE",
"712 720 CURVE SMOOTH",
"486 818 LINE SMOOTH",
"380 864 OFFCURVE",
"288 922 OFFCURVE",
"288 1034 CURVE SMOOTH",
"288 1172 OFFCURVE",
"408 1266 OFFCURVE",
"578 1266 CURVE SMOOTH",
"678 1266 OFFCURVE",
"802 1228 OFFCURVE",
"908 1174 CURVE",
"942 1202 OFFCURVE",
"966 1252 OFFCURVE",
"966 1294 CURVE",
"862 1344 OFFCURVE",
"724 1390 OFFCURVE",
"572 1390 CURVE SMOOTH",
"306 1390 OFFCURVE",
"142 1220 OFFCURVE",
"142 1022 CURVE SMOOTH",
"142 864 OFFCURVE",
"240 762 OFFCURVE",
"410 688 CURVE SMOOTH",
"644 586 LINE SMOOTH",
"764 534 OFFCURVE",
"862 454 OFFCURVE",
"862 328 CURVE SMOOTH",
"862 188 OFFCURVE",
"738 104 OFFCURVE",
"548 104 CURVE SMOOTH",
"414 104 OFFCURVE",
"266 160 OFFCURVE",
"148 242 CURVE",
"116 218 OFFCURVE",
"84 170 OFFCURVE",
"80 126 CURVE"
);
}
);
};
layerId = UUID0;
paths = (
{
closed = 1;
nodes = (
"204 36 OFFCURVE",
"374 -24 OFFCURVE",
"542 -24 CURVE SMOOTH",
"860 -24 OFFCURVE",
"1010 138 OFFCURVE",
"1010 360 CURVE SMOOTH",
"1010 543 OFFCURVE",
"868 655 OFFCURVE",
"712 720 CURVE SMOOTH",
"478 818 LINE SMOOTH",
"380 859 OFFCURVE",
"280 917 OFFCURVE",
"280 1034 CURVE SMOOTH",
"280 1172 OFFCURVE",
"400 1266 OFFCURVE",
"570 1266 CURVE SMOOTH",
"670 1266 OFFCURVE",
"794 1228 OFFCURVE",
"900 1174 CURVE",
"934 1202 OFFCURVE",
"958 1252 OFFCURVE",
"958 1294 CURVE",
"854 1344 OFFCURVE",
"716 1390 OFFCURVE",
"564 1390 CURVE SMOOTH",
"298 1390 OFFCURVE",
"134 1220 OFFCURVE",
"134 1022 CURVE SMOOTH",
"134 864 OFFCURVE",
"232 760 OFFCURVE",
"402 688 CURVE SMOOTH",
"644 586 LINE SMOOTH",
"764 535 OFFCURVE",
"862 454 OFFCURVE",
"862 328 CURVE SMOOTH",
"862 188 OFFCURVE",
"738 104 OFFCURVE",
"548 104 CURVE SMOOTH",
"414 104 OFFCURVE",
"266 160 OFFCURVE",
"148 242 CURVE",
"116 218 OFFCURVE",
"84 170 OFFCURVE",
"80 126 CURVE"
);
}
);
width = 1110;
},
{
anchors = (
{
name = bottom;
position = "{550, 0}";
},
{
name = top;
position = "{565, 1464}";
}
);
background = {
anchors = (
{
name = bottom;
position = "{540, -40}";
},
{
name = top;
position = "{570, 1464}";
}
);
paths = (
{
closed = 1;
nodes = (
"176 22 OFFCURVE",
"374 -30 OFFCURVE",
"536 -30 CURVE SMOOTH",
"888 -30 OFFCURVE",
"1066 158 OFFCURVE",
"1066 402 CURVE SMOOTH",
"1066 574 OFFCURVE",
"960 716 OFFCURVE",
"764 800 CURVE SMOOTH",
"522 902 LINE SMOOTH",
"436 938 OFFCURVE",
"412 974 OFFCURVE",
"412 1020 CURVE SMOOTH",
"412 1066 OFFCURVE",
"450 1128 OFFCURVE",
"560 1128 CURVE SMOOTH",
"668 1128 OFFCURVE",
"822 1078 OFFCURVE",
"924 1030 CURVE",
"988 1090 OFFCURVE",
"1030 1184 OFFCURVE",
"1036 1280 CURVE",
"932 1334 OFFCURVE",
"752 1396 OFFCURVE",
"560 1396 CURVE SMOOTH",
"288 1396 OFFCURVE",
"68 1228 OFFCURVE",
"68 974 CURVE SMOOTH",
"68 780 OFFCURVE",
"192 674 OFFCURVE",
"356 602 CURVE SMOOTH",
"592 502 LINE SMOOTH",
"702 454 OFFCURVE",
"710 398 OFFCURVE",
"710 362 CURVE SMOOTH",
"710 304 OFFCURVE",
"670 238 OFFCURVE",
"560 238 CURVE SMOOTH",
"416 238 OFFCURVE",
"266 302 OFFCURVE",
"154 368 CURVE",
"90 312 OFFCURVE",
"34 212 OFFCURVE",
"26 118 CURVE"
);
}
);
};
layerId = UUID1;
paths = (
{
closed = 1;
nodes = (
"176 22 OFFCURVE",
"374 -30 OFFCURVE",
"536 -30 CURVE SMOOTH",
"888 -30 OFFCURVE",
"1066 158 OFFCURVE",
"1066 402 CURVE SMOOTH",
"1066 573 OFFCURVE",
"961 719 OFFCURVE",
"764 800 CURVE SMOOTH",
"517 902 LINE SMOOTH",
"431 938 OFFCURVE",
"407 973 OFFCURVE",
"407 1020 CURVE SMOOTH",
"407 1066 OFFCURVE",
"445 1128 OFFCURVE",
"555 1128 CURVE SMOOTH",
"663 1128 OFFCURVE",
"817 1078 OFFCURVE",
"919 1030 CURVE",
"983 1090 OFFCURVE",
"1025 1184 OFFCURVE",
"1031 1280 CURVE",
"927 1334 OFFCURVE",
"747 1396 OFFCURVE",
"555 1396 CURVE SMOOTH",
"283 1396 OFFCURVE",
"63 1228 OFFCURVE",
"63 974 CURVE SMOOTH",
"63 778 OFFCURVE",
"189 669 OFFCURVE",
"351 602 CURVE SMOOTH",
"592 502 LINE SMOOTH",
"692 461 OFFCURVE",
"710 407 OFFCURVE",
"710 362 CURVE SMOOTH",
"710 304 OFFCURVE",
"670 238 OFFCURVE",
"560 238 CURVE SMOOTH",
"416 238 OFFCURVE",
"266 302 OFFCURVE",
"154 368 CURVE",
"90 312 OFFCURVE",
"34 212 OFFCURVE",
"26 118 CURVE"
);
}
);
width = 1114;
},
{
anchors = (
{
name = bottom;
position = "{430, 0}";
},
{
name = top;
position = "{703, 1464}";
}
);
background = {
paths = (
{
closed = 1;
nodes = (
"75 22 OFFCURVE",
"245 -30 OFFCURVE",
"390 -30 CURVE SMOOTH",
"742 -30 OFFCURVE",
"953 158 OFFCURVE",
"996 402 CURVE SMOOTH",
"1027 573 OFFCURVE",
"940 716 OFFCURVE",
"765 805 CURVE SMOOTH",
"586 896 LINE SMOOTH",
"510 935 OFFCURVE",
"488 973 OFFCURVE",
"496 1020 CURVE SMOOTH",
"505 1066 OFFCURVE",
"553 1128 OFFCURVE",
"663 1128 CURVE SMOOTH",
"755 1128 OFFCURVE",
"880 1078 OFFCURVE",
"960 1030 CURVE",
"1035 1090 OFFCURVE",
"1093 1184 OFFCURVE",
"1116 1280 CURVE",
"1032 1334 OFFCURVE",
"882 1396 OFFCURVE",
"711 1396 CURVE SMOOTH",
"439 1396 OFFCURVE",
"189 1228 OFFCURVE",
"144 974 CURVE SMOOTH",
"110 778 OFFCURVE",
"221 671 OFFCURVE",
"367 596 CURVE SMOOTH",
"540 507 LINE SMOOTH",
"628 462 OFFCURVE",
"641 407 OFFCURVE",
"633 362 CURVE SMOOTH",
"623 304 OFFCURVE",
"572 238 OFFCURVE",
"462 238 CURVE SMOOTH",
"337 238 OFFCURVE",
"216 302 OFFCURVE",
"128 368 CURVE",
"55 312 OFFCURVE",
"-19 212 OFFCURVE",
"-44 118 CURVE"
);
}
);
};
layerId = "861B5D7F-E490-44BC-908E-F1CBF79092B0";
paths = (
{
closed = 1;
nodes = (
"74 28 OFFCURVE",
"251 -32 OFFCURVE",
"422 -32 CURVE SMOOTH",
"791 -32 OFFCURVE",
"1001 195 OFFCURVE",
"1001 454 CURVE SMOOTH",
"1001 677 OFFCURVE",
"833 766 OFFCURVE",
"741 808 CURVE SMOOTH",
"631 858 LINE SMOOTH",
"559 891 OFFCURVE",
"495 926 OFFCURVE",
"495 994 CURVE SMOOTH",
"495 1070 OFFCURVE",
"560 1131 OFFCURVE",
"685 1131 CURVE SMOOTH",
"778 1131 OFFCURVE",
"882 1098 OFFCURVE",
"963 1046 CURVE",
"1036 1096 OFFCURVE",
"1093 1195 OFFCURVE",
"1102 1288 CURVE",
"994 1357 OFFCURVE",
"845 1398 OFFCURVE",
"709 1398 CURVE SMOOTH",
"360 1398 OFFCURVE",
"146 1180 OFFCURVE",
"146 925 CURVE SMOOTH",
"146 720 OFFCURVE",
"309 640 OFFCURVE",
"388 603 CURVE SMOOTH",
"492 554 LINE SMOOTH",
"557 523 OFFCURVE",
"646 479 OFFCURVE",
"646 389 CURVE SMOOTH",
"646 319 OFFCURVE",
"595 237 OFFCURVE",
"449 237 CURVE SMOOTH",
"342 237 OFFCURVE",
"224 279 OFFCURVE",
"127 357 CURVE",
"55 307 OFFCURVE",
"-9 212 OFFCURVE",
"-29 120 CURVE"
);
}
);
width = 1069;
},
{
anchors = (
{
name = bottom;
position = "{412, 0}";
},
{
name = top;
position = "{679, 1464}";
}
);
background = {
anchors = (
{
name = bottom;
position = "{412, 0}";
},
{
name = top;
position = "{679, 1464}";
}
);
paths = (
{
closed = 1;
nodes = (
"89 34 OFFCURVE",
"231 -24 OFFCURVE",
"395 -24 CURVE SMOOTH",
"683 -24 OFFCURVE",
"854 147 OFFCURVE",
"890 347 CURVE SMOOTH",
"930 575 OFFCURVE",
"764 668 OFFCURVE",
"671 720 CURVE SMOOTH",
"494 818 LINE SMOOTH",
"411 864 OFFCURVE",
"326 916 OFFCURVE",
"348 1038 CURVE SMOOTH",
"370 1166 OFFCURVE",
"493 1266 OFFCURVE",
"647 1266 CURVE SMOOTH",
"742 1266 OFFCURVE",
"842 1228 OFFCURVE",
"929 1174 CURVE",
"968 1202 OFFCURVE",
"1000 1252 OFFCURVE",
"1008 1294 CURVE",
"921 1344 OFFCURVE",
"804 1390 OFFCURVE",
"671 1390 CURVE SMOOTH",
"416 1390 OFFCURVE",
"234 1220 OFFCURVE",
"199 1024 CURVE SMOOTH",
"164 822 OFFCURVE",
"311 734 OFFCURVE",
"395 688 CURVE SMOOTH",
"579 586 LINE SMOOTH",
"637 554 OFFCURVE",
"765 479 OFFCURVE",
"738 326 CURVE SMOOTH",
"713 185 OFFCURVE",
"580 104 OFFCURVE",
"422 104 CURVE SMOOTH",
"295 104 OFFCURVE",
"169 160 OFFCURVE",
"72 242 CURVE",
"36 218 OFFCURVE",
"-4 170 OFFCURVE",
"-16 126 CURVE"
);
}
);
};
layerId = "1023D002-3304-4399-867A-B886C920D2C0";
paths = (
{
closed = 1;
nodes = (
"119 19 OFFCURVE",
"276 -25 OFFCURVE",
"412 -25 CURVE SMOOTH",
"712 -25 OFFCURVE",
"900 179 OFFCURVE",
"900 398 CURVE SMOOTH",
"900 598 OFFCURVE",
"743 683 OFFCURVE",
"641 734 CURVE SMOOTH",
"547 781 LINE SMOOTH",
"451 829 OFFCURVE",
"349 878 OFFCURVE",
"349 1003 CURVE SMOOTH",
"349 1138 OFFCURVE",
"467 1267 OFFCURVE",
"658 1267 CURVE SMOOTH",
"752 1267 OFFCURVE",
"844 1235 OFFCURVE",
"925 1173 CURVE",
"965 1198 OFFCURVE",
"991 1244 OFFCURVE",
"998 1287 CURVE",
"917 1351 OFFCURVE",
"797 1393 OFFCURVE",
"666 1391 CURVE SMOOTH",
"394 1387 OFFCURVE",
"201 1195 OFFCURVE",
"201 981 CURVE SMOOTH",
"201 793 OFFCURVE",
"352 711 OFFCURVE",
"477 649 CURVE SMOOTH",
"570 603 LINE SMOOTH",
"629 574 OFFCURVE",
"749 516 OFFCURVE",
"749 375 CURVE SMOOTH",
"749 230 OFFCURVE",
"621 102 OFFCURVE",
"426 102 CURVE SMOOTH",
"309 102 OFFCURVE",
"177 148 OFFCURVE",
"88 232 CURVE",
"51 210 OFFCURVE",
"17 166 OFFCURVE",
"6 126 CURVE"
);
}
);
width = 1006;
},
{
anchors = (
{
name = bottom;
position = "{485, 0}";
},
{
name = top;
position = "{758, 1464}";
}
);
associatedMasterId = "861B5D7F-E490-44BC-908E-F1CBF79092B0";
background = {
anchors = (
{
name = bottom;
position = "{463, 0}";
},
{
name = top;
position = "{736, 1464}";
}
);
paths = (
{
closed = 1;
nodes = (
"108 22 OFFCURVE",
"278 -30 OFFCURVE",
"423 -30 CURVE SMOOTH",
"775 -30 OFFCURVE",
"986 158 OFFCURVE",
"1029 402 CURVE SMOOTH",
"1060 573 OFFCURVE",
"980 719 OFFCURVE",
"798 800 CURVE SMOOTH",
"619 902 LINE SMOOTH",
"539 938 OFFCURVE",
"521 973 OFFCURVE",
"529 1020 CURVE SMOOTH",
"538 1066 OFFCURVE",
"586 1128 OFFCURVE",
"696 1128 CURVE SMOOTH",
"788 1128 OFFCURVE",
"913 1078 OFFCURVE",
"993 1030 CURVE",
"1068 1090 OFFCURVE",
"1126 1184 OFFCURVE",
"1149 1280 CURVE",
"1065 1334 OFFCURVE",
"915 1396 OFFCURVE",
"744 1396 CURVE SMOOTH",
"472 1396 OFFCURVE",
"222 1228 OFFCURVE",
"177 974 CURVE SMOOTH",
"143 778 OFFCURVE",
"250 669 OFFCURVE",
"400 602 CURVE SMOOTH",
"573 502 LINE SMOOTH",
"666 461 OFFCURVE",
"674 407 OFFCURVE",
"666 362 CURVE SMOOTH",
"656 304 OFFCURVE",
"605 238 OFFCURVE",
"495 238 CURVE SMOOTH",
"370 238 OFFCURVE",
"249 302 OFFCURVE",
"161 368 CURVE",
"88 312 OFFCURVE",
"14 212 OFFCURVE",
"-11 118 CURVE"
);
}
);
};
layerId = "FC07DA6D-E9FC-4A48-8EA9-F5824E026727";
name = "Oct 12 20, 10:14";
paths = (
{
closed = 1;
nodes = (
"151 22 OFFCURVE",
"323 -30 OFFCURVE",
"468 -30 CURVE SMOOTH",
"794 -30 OFFCURVE",
"1034 187 OFFCURVE",
"1034 481 CURVE SMOOTH",
"1034 617 OFFCURVE",
"966 731 OFFCURVE",
"825 801 CURVE SMOOTH",
"620 903 LINE SMOOTH",
"564 931 OFFCURVE",
"548 959 OFFCURVE",
"548 994 CURVE SMOOTH",
"548 1064 OFFCURVE",
"597 1128 OFFCURVE",
"688 1128 CURVE SMOOTH",
"785 1128 OFFCURVE",
"919 1078 OFFCURVE",
"1002 1030 CURVE",
"1074 1091 OFFCURVE",
"1129 1186 OFFCURVE",
"1152 1280 CURVE",
"1068 1334 OFFCURVE",
"911 1396 OFFCURVE",
"736 1396 CURVE SMOOTH",
"449 1396 OFFCURVE",
"206 1168 OFFCURVE",
"206 897 CURVE SMOOTH",
"206 751 OFFCURVE",
"290 661 OFFCURVE",
"408 602 CURVE SMOOTH",
"608 502 LINE SMOOTH",
"672 470 OFFCURVE",
"684 431 OFFCURVE",
"684 401 CURVE SMOOTH",
"684 305 OFFCURVE",
"623 238 OFFCURVE",
"538 238 CURVE SMOOTH",
"409 238 OFFCURVE",
"283 302 OFFCURVE",
"195 368 CURVE",
"125 313 OFFCURVE",
"55 210 OFFCURVE",
"30 118 CURVE"
);
}
);
visible = 1;
width = 1114;
}
);
leftKerningGroup = S;
rightKerningGroup = S;
unicode = 0053;
},
{
color = 4;
glyphname = T;
lastChange = "2020-10-21 10:36:52 +0000";
layers = (
{
anchors = (
{
name = bottom;
position = "{483, 0}";
},
{
name = top;
position = "{481, 1464}";
}
);
background = {
anchors = (
{
name = bottom;
position = "{483, -40}";
},
{
name = top;
position = "{481, 1464}";
}
);
paths = (
{
closed = 1;
nodes = (
"303 1242 LINE SMOOTH",
"329 1242 OFFCURVE",
"385 1244 OFFCURVE",
"411 1244 CURVE SMOOTH",
"555 1244 LINE SMOOTH",
"581 1244 OFFCURVE",
"639 1242 OFFCURVE",
"663 1242 CURVE SMOOTH",
"841 1242 LINE SMOOTH",
"901 1242 OFFCURVE",
"929 1260 OFFCURVE",
"929 1306 CURVE SMOOTH",
"929 1326 OFFCURVE",
"925 1348 OFFCURVE",
"919 1366 CURVE",
"45 1366 LINE",
"41 1344 OFFCURVE",
"39 1324 OFFCURVE",
"39 1304 CURVE SMOOTH",
"39 1284 OFFCURVE",
"41 1262 OFFCURVE",
"45 1242 CURVE"
);
},
{
closed = 1;
nodes = (
"411 0 LINE",
"431 -4 OFFCURVE",
"459 -6 OFFCURVE",
"483 -6 CURVE SMOOTH",
"507 -6 OFFCURVE",
"535 -4 OFFCURVE",
"555 0 CURVE",
"555 1096 LINE SMOOTH",
"555 1150 OFFCURVE",
"555 1188 OFFCURVE",
"555 1244 CURVE SMOOTH",
"555 1304 LINE",
"411 1304 LINE",
"411 1244 LINE SMOOTH",
"411 1188 OFFCURVE",
"411 1150 OFFCURVE",
"411 1096 CURVE SMOOTH"
);
}
);
};
layerId = UUID0;
paths = (
{
closed = 1;
nodes = (
"507 -6 OFFCURVE",
"535 -4 OFFCURVE",
"555 0 CURVE",
"555 1096 LINE SMOOTH",
"555 1150 OFFCURVE",
"555 1188 OFFCURVE",
"555 1244 CURVE SMOOTH",
"555 1304 LINE",
"411 1304 LINE",
"411 1244 LINE SMOOTH",
"411 1188 OFFCURVE",
"411 1150 OFFCURVE",
"411 1096 CURVE SMOOTH",
"411 0 LINE",
"431 -4 OFFCURVE",
"459 -6 OFFCURVE",
"483 -6 CURVE SMOOTH"
);
},
{
closed = 1;
nodes = (
"303 1242 LINE SMOOTH",
"329 1242 OFFCURVE",
"385 1244 OFFCURVE",
"411 1244 CURVE SMOOTH",
"555 1244 LINE SMOOTH",
"581 1244 OFFCURVE",
"639 1242 OFFCURVE",
"663 1242 CURVE SMOOTH",
"841 1242 LINE SMOOTH",
"906 1242 OFFCURVE",
"928 1260 OFFCURVE",
"928 1306 CURVE SMOOTH",
"928 1326 OFFCURVE",
"925 1348 OFFCURVE",
"919 1366 CURVE",
"45 1366 LINE",
"41 1344 OFFCURVE",
"39 1324 OFFCURVE",
"39 1304 CURVE SMOOTH",
"39 1284 OFFCURVE",
"41 1262 OFFCURVE",
"45 1242 CURVE"
);
}
);
width = 962;
},
{
anchors = (
{
name = bottom;
position = "{514, 0}";
},
{
name = top;
position = "{514, 1464}";
}
);
background = {
anchors = (
{
name = bottom;
position = "{514, -40}";
},
{
name = top;
position = "{514, 1464}";
}
);
paths = (
{
closed = 1;
nodes = (
"218 1088 LINE SMOOTH",
"248 1088 OFFCURVE",
"316 1090 OFFCURVE",
"346 1090 CURVE SMOOTH",
"682 1090 LINE SMOOTH",
"712 1090 OFFCURVE",
"780 1088 OFFCURVE",
"810 1088 CURVE SMOOTH",
"858 1088 LINE SMOOTH",
"978 1088 OFFCURVE",
"1032 1128 OFFCURVE",
"1032 1238 CURVE SMOOTH",
"1032 1280 OFFCURVE",
"1026 1332 OFFCURVE",
"1016 1366 CURVE",
"16 1366 LINE",
"6 1316 OFFCURVE",
"4 1264 OFFCURVE",
"4 1226 CURVE SMOOTH",
"4 1188 OFFCURVE",
"6 1138 OFFCURVE",
"16 1088 CURVE"
);
},
{
closed = 1;
nodes = (
"346 0 LINE",
"404 -10 OFFCURVE",
"468 -12 OFFCURVE",
"514 -12 CURVE SMOOTH",
"560 -12 OFFCURVE",
"624 -10 OFFCURVE",
"682 0 CURVE",
"682 942 LINE SMOOTH",
"682 996 OFFCURVE",
"680 1034 OFFCURVE",
"680 1090 CURVE SMOOTH",
"680 1228 LINE",
"348 1228 LINE",
"348 1090 LINE SMOOTH",
"348 1034 OFFCURVE",
"346 996 OFFCURVE",
"346 942 CURVE SMOOTH"
);
}
);
};
layerId = UUID1;
paths = (
{
closed = 1;
nodes = (
"560 -12 OFFCURVE",
"624 -10 OFFCURVE",
"682 0 CURVE",
"682 942 LINE SMOOTH",
"682 996 OFFCURVE",
"680 1034 OFFCURVE",
"680 1090 CURVE SMOOTH",
"680 1228 LINE",
"348 1228 LINE",
"348 1090 LINE SMOOTH",
"348 1034 OFFCURVE",
"346 996 OFFCURVE",
"346 942 CURVE SMOOTH",
"346 0 LINE",
"404 -10 OFFCURVE",
"468 -12 OFFCURVE",
"514 -12 CURVE SMOOTH"
);
},
{
closed = 1;
nodes = (
"218 1088 LINE SMOOTH",
"248 1088 OFFCURVE",
"316 1090 OFFCURVE",
"346 1090 CURVE SMOOTH",
"682 1090 LINE SMOOTH",
"712 1090 OFFCURVE",
"780 1088 OFFCURVE",
"810 1088 CURVE SMOOTH",
"858 1088 LINE SMOOTH",
"978 1088 OFFCURVE",
"1032 1128 OFFCURVE",
"1032 1238 CURVE SMOOTH",
"1032 1280 OFFCURVE",
"1026 1332 OFFCURVE",
"1016 1366 CURVE",
"16 1366 LINE",
"6 1316 OFFCURVE",
"4 1264 OFFCURVE",
"4 1226 CURVE SMOOTH",
"4 1188 OFFCURVE",
"6 1138 OFFCURVE",
"16 1088 CURVE"
);
}
);
width = 1024;
},
{
anchors = (
{
name = bottom;
position = "{405, 0}";
},
{
name = top;
position = "{663, 1464}";
}
);
background = {
anchors = (
{
name = bottom;
position = "{405, 0}";
},
{
name = top;
position = "{663, 1464}";
}
);
paths = (
{
closed = 1;
nodes = (
"319 1088 LINE SMOOTH",
"346 1088 OFFCURVE",
"408 1090 OFFCURVE",
"436 1090 CURVE SMOOTH",
"757 1090 LINE SMOOTH",
"785 1090 OFFCURVE",
"847 1088 OFFCURVE",
"875 1088 CURVE SMOOTH",
"905 1088 LINE SMOOTH",
"991 1088 OFFCURVE",
"1105 1104 OFFCURVE",
"1105 1335 CURVE SMOOTH",
"1105 1346 OFFCURVE",
"1105 1357 OFFCURVE",
"1104 1366 CURVE",
"191 1366 LINE",
"170 1306 OFFCURVE",
"142 1171 OFFCURVE",
"142 1090 CURVE SMOOTH",
"142 1089 OFFCURVE",
"142 1089 OFFCURVE",
"142 1088 CURVE"
);
},
{
closed = 1;
nodes = (
"244 0 LINE",
"298 -10 OFFCURVE",
"360 -12 OFFCURVE",
"403 -12 CURVE SMOOTH",
"446 -12 OFFCURVE",
"507 -10 OFFCURVE",
"565 0 CURVE",
"731 942 LINE SMOOTH",
"741 996 OFFCURVE",
"745 1034 OFFCURVE",
"755 1090 CURVE SMOOTH",
"780 1228 LINE",
"463 1228 LINE",
"438 1090 LINE SMOOTH",
"428 1034 OFFCURVE",
"420 996 OFFCURVE",
"410 942 CURVE SMOOTH"
);
}
);
};
layerId = "861B5D7F-E490-44BC-908E-F1CBF79092B0";
paths = (
{
closed = 1;
nodes = (
"446 -12 OFFCURVE",
"515 -10 OFFCURVE",
"573 0 CURVE",
"739 942 LINE SMOOTH",
"749 996 OFFCURVE",
"753 1034 OFFCURVE",
"763 1090 CURVE SMOOTH",
"787 1228 LINE",
"455 1228 LINE",
"431 1090 LINE SMOOTH",
"421 1034 OFFCURVE",
"413 996 OFFCURVE",
"403 942 CURVE SMOOTH",
"237 0 LINE",
"289 -10 OFFCURVE",
"362 -12 OFFCURVE",
"402 -12 CURVE SMOOTH"
);
},
{
closed = 1;
nodes = (
"300 1088 LINE SMOOTH",
"330 1088 OFFCURVE",
"399 1090 OFFCURVE",
"429 1090 CURVE SMOOTH",
"765 1090 LINE SMOOTH",
"795 1090 OFFCURVE",
"862 1088 OFFCURVE",
"892 1088 CURVE SMOOTH",
"915 1088 LINE SMOOTH",
"1082 1088 OFFCURVE",
"1120 1180 OFFCURVE",
"1133 1366 CURVE",
"172 1366 LINE",
"135 1275 OFFCURVE",
"117 1162 OFFCURVE",
"123 1088 CURVE"
);
}
);
width = 982;
},
{
anchors = (
{
name = bottom;
position = "{360, 0}";
},
{
name = top;
position = "{616, 1464}";
}
);
background = {
anchors = (
{
name = bottom;
position = "{360, 0}";
},
{
name = top;
position = "{616, 1464}";
}
);
paths = (
{
closed = 1;
nodes = (
"417 1242 LINE SMOOTH",
"440 1242 OFFCURVE",
"490 1244 OFFCURVE",
"514 1244 CURVE SMOOTH",
"643 1244 LINE SMOOTH",
"667 1244 OFFCURVE",
"719 1242 OFFCURVE",
"741 1242 CURVE SMOOTH",
"901 1242 LINE SMOOTH",
"944 1242 OFFCURVE",
"994 1250 OFFCURVE",
"994 1342 CURVE SMOOTH",
"994 1350 OFFCURVE",
"994 1358 OFFCURVE",
"993 1366 CURVE",
"206 1366 LINE",
"199 1344 OFFCURVE",
"194 1326 OFFCURVE",
"190 1304 CURVE SMOOTH",
"186 1283 OFFCURVE",
"184 1259 OFFCURVE",
"184 1242 CURVE"
);
},
{
closed = 1;
nodes = (
"295 0 LINE",
"312 -4 OFFCURVE",
"337 -6 OFFCURVE",
"359 -6 CURVE SMOOTH",
"380 -6 OFFCURVE",
"405 -4 OFFCURVE",
"424 0 CURVE",
"617 1096 LINE SMOOTH",
"627 1150 OFFCURVE",
"635 1194 OFFCURVE",
"643 1244 CURVE SMOOTH",
"654 1304 LINE",
"525 1304 LINE",
"514 1244 LINE SMOOTH",
"490 1103 OFFCURVE",
"496 1145 OFFCURVE",
"488 1096 CURVE SMOOTH"
);
}
);
};
layerId = "1023D002-3304-4399-867A-B886C920D2C0";
paths = (
{
closed = 1;
nodes = (
"386 -6 OFFCURVE",
"412 -4 OFFCURVE",
"431 0 CURVE",
"624 1096 LINE SMOOTH",
"634 1155 OFFCURVE",
"642 1204 OFFCURVE",
"649 1244 CURVE SMOOTH",
"660 1304 LINE",
"519 1304 LINE",
"508 1244 LINE SMOOTH",
"499 1195 OFFCURVE",
"486 1132 OFFCURVE",
"480 1096 CURVE SMOOTH",
"287 0 LINE",
"306 -4 OFFCURVE",
"336 -6 OFFCURVE",
"360 -6 CURVE SMOOTH"
);
},
{
closed = 1;
nodes = (
"415 1242 LINE SMOOTH",
"438 1242 OFFCURVE",
"488 1244 OFFCURVE",
"512 1244 CURVE SMOOTH",
"645 1244 LINE SMOOTH",
"667 1244 OFFCURVE",
"719 1242 OFFCURVE",
"743 1242 CURVE SMOOTH",
"908 1242 LINE SMOOTH",
"987 1242 OFFCURVE",
"1006 1290 OFFCURVE",
"1007 1366 CURVE",
"193 1366 LINE",
"175 1327 OFFCURVE",
"168 1283 OFFCURVE",
"171 1242 CURVE"
);
}
);
width = 887;
}
);
leftKerningGroup = T;
rightKerningGroup = T;
unicode = 0054;
},
{
color = 4;
glyphname = U;
lastChange = "2020-10-21 12:21:35 +0000";
layers = (
{
anchors = (
{
name = bottom;
position = "{666, 0}";
},
{
name = ogonek;
position = "{860, 8}";
},
{
name = top;
position = "{666, 1464}";
},
{
name = topright;
position = "{1148, 1366}";
}
);
background = {
anchors = (
{
name = bottom;
position = "{666, -40}";
},
{
name = top;
position = "{666, 1464}";
}
);
paths = (
{
closed = 1;
nodes = (
"1148 1366 LINE",
"1128 1370 OFFCURVE",
"1102 1372 OFFCURVE",
"1074 1372 CURVE SMOOTH",
"1048 1372 OFFCURVE",
"1022 1370 OFFCURVE",
"1004 1366 CURVE",
"1004 466 LINE",
"1004 224 OFFCURVE",
"878 96 OFFCURVE",
"666 96 CURVE",
"454 96 OFFCURVE",
"328 224 OFFCURVE",
"328 466 CURVE SMOOTH",
"328 1278 LINE SMOOTH",
"328 1340 OFFCURVE",
"318 1372 OFFCURVE",
"254 1372 CURVE SMOOTH",
"196 1372 LINE",
"184 1360 LINE",
"184 464 LINE SMOOTH",
"184 138 OFFCURVE",
"386 -24 OFFCURVE",
"664 -24 CURVE",
"946 -24 OFFCURVE",
"1148 138 OFFCURVE",
"1148 464 CURVE"
);
}
);
};
layerId = UUID0;
paths = (
{
closed = 1;
nodes = (
"1148 1366 LINE",
"1128 1370 OFFCURVE",
"1102 1372 OFFCURVE",
"1074 1372 CURVE SMOOTH",
"1048 1372 OFFCURVE",
"1022 1370 OFFCURVE",
"1004 1366 CURVE",
"1004 466 LINE SMOOTH",
"1004 224 OFFCURVE",
"878 96 OFFCURVE",
"666 96 CURVE SMOOTH",
"454 96 OFFCURVE",
"328 224 OFFCURVE",
"328 466 CURVE SMOOTH",
"328 1278 LINE SMOOTH",
"328 1340 OFFCURVE",
"318 1372 OFFCURVE",
"254 1372 CURVE SMOOTH",
"196 1372 LINE",
"184 1360 LINE",
"184 464 LINE SMOOTH",
"184 138 OFFCURVE",
"386 -24 OFFCURVE",
"664 -24 CURVE SMOOTH",
"946 -24 OFFCURVE",
"1148 138 OFFCURVE",
"1148 464 CURVE SMOOTH"
);
}
);
width = 1332;
},
{
anchors = (
{
name = bottom;
position = "{674, 0}";
},
{
name = ogonek;
position = "{912, 8}";
},
{
name = top;
position = "{668, 1464}";
},
{
name = topright;
position = "{1220, 1366}";
}
);
background = {
anchors = (
{
name = bottom;
position = "{674, -40}";
},
{
name = top;
position = "{668, 1464}";
}
);
paths = (
{
closed = 1;
nodes = (
"1220 1366 LINE",
"1166 1376 OFFCURVE",
"1088 1378 OFFCURVE",
"1048 1378 CURVE SMOOTH",
"1004 1378 OFFCURVE",
"940 1376 OFFCURVE",
"884 1366 CURVE",
"884 504 LINE",
"884 326 OFFCURVE",
"830 236 OFFCURVE",
"674 236 CURVE",
"518 236 OFFCURVE",
"464 326 OFFCURVE",
"464 504 CURVE SMOOTH",
"464 1168 LINE SMOOTH",
"464 1318 OFFCURVE",
"392 1380 OFFCURVE",
"264 1380 CURVE SMOOTH",
"142 1380 LINE",
"128 1366 LINE",
"128 508 LINE SMOOTH",
"128 168 OFFCURVE",
"322 -30 OFFCURVE",
"674 -30 CURVE",
"1026 -30 OFFCURVE",
"1220 168 OFFCURVE",
"1220 508 CURVE"
);
}
);
};
layerId = UUID1;
paths = (
{
closed = 1;
nodes = (
"1220 1366 LINE",
"1166 1376 OFFCURVE",
"1088 1378 OFFCURVE",
"1048 1378 CURVE SMOOTH",
"1004 1378 OFFCURVE",
"940 1376 OFFCURVE",
"884 1366 CURVE",
"884 504 LINE SMOOTH",
"884 326 OFFCURVE",
"830 236 OFFCURVE",
"674 236 CURVE SMOOTH",
"518 236 OFFCURVE",
"464 326 OFFCURVE",
"464 504 CURVE SMOOTH",
"464 1168 LINE SMOOTH",
"464 1318 OFFCURVE",
"392 1380 OFFCURVE",
"264 1380 CURVE SMOOTH",
"142 1380 LINE",
"128 1366 LINE",
"128 508 LINE SMOOTH",
"128 168 OFFCURVE",
"322 -30 OFFCURVE",
"674 -30 CURVE SMOOTH",
"1026 -30 OFFCURVE",
"1220 168 OFFCURVE",
"1220 508 CURVE SMOOTH"
);
}
);
width = 1348;
},
{
anchors = (
{
name = bottom;
position = "{548, 0}";
},
{
name = ogonek;
position = "{787, 8}";
},
{
name = top;
position = "{800, 1464}";
},
{
name = topright;
position = "{1335, 1366}";
}
);
background = {
anchors = (
{
name = bottom;
position = "{548, 0}";
},
{
name = ogonek;
position = "{787, 8}";
},
{
name = top;
position = "{800, 1464}";
},
{
name = topright;
position = "{1335, 1366}";
}
);
paths = (
{
closed = 1;
nodes = (
"884 -30 OFFCURVE",
"1104 168 OFFCURVE",
"1164 508 CURVE SMOOTH",
"1315 1366 LINE",
"1263 1376 OFFCURVE",
"1185 1378 OFFCURVE",
"1145 1378 CURVE SMOOTH",
"1101 1378 OFFCURVE",
"1037 1376 OFFCURVE",
"979 1366 CURVE",
"827 504 LINE SMOOTH",
"796 326 OFFCURVE",
"733 236 OFFCURVE",
"590 236 CURVE SMOOTH",
"453 236 OFFCURVE",
"416 327 OFFCURVE",
"447 504 CURVE SMOOTH",
"564 1168 LINE SMOOTH",
"590 1318 OFFCURVE",
"529 1380 OFFCURVE",
"401 1380 CURVE SMOOTH",
"279 1380 LINE",
"263 1366 LINE",
"112 508 LINE SMOOTH",
"52 168 OFFCURVE",
"206 -30 OFFCURVE",
"543 -30 CURVE SMOOTH"
);
}
);
};
layerId = "861B5D7F-E490-44BC-908E-F1CBF79092B0";
paths = (
{
closed = 1;
nodes = (
"927 -30 OFFCURVE",
"1102 155 OFFCURVE",
"1164 508 CURVE SMOOTH",
"1315 1366 LINE",
"1263 1376 OFFCURVE",
"1185 1378 OFFCURVE",
"1145 1378 CURVE SMOOTH",
"1101 1378 OFFCURVE",
"1037 1376 OFFCURVE",
"979 1366 CURVE",
"828 507 LINE SMOOTH",
"810 406 OFFCURVE",
"782 236 OFFCURVE",
"602 236 CURVE SMOOTH",
"494 236 OFFCURVE",
"438 297 OFFCURVE",
"438 403 CURVE SMOOTH",
"438 450 OFFCURVE",
"447 504 OFFCURVE",
"456 558 CURVE SMOOTH",
"559 1144 LINE SMOOTH",
"564 1171 OFFCURVE",
"570 1211 OFFCURVE",
"570 1235 CURVE SMOOTH",
"570 1325 OFFCURVE",
"518 1380 OFFCURVE",
"407 1380 CURVE SMOOTH",
"280 1380 LINE",
"263 1366 LINE",
"127 589 LINE SMOOTH",
"114 515 OFFCURVE",
"104 435 OFFCURVE",
"104 377 CURVE SMOOTH",
"104 75 OFFCURVE",
"324 -30 OFFCURVE",
"565 -30 CURVE SMOOTH"
);
}
);
width = 1273;
},
{
anchors = (
{
name = bottom;
position = "{527, 0}";
},
{
name = ogonek;
position = "{703, 8}";
},
{
name = top;
position = "{785, 1464}";
},
{
name = topright;
position = "{1212, 1366}";
}
);
background = {
anchors = (
{
name = bottom;
position = "{527, 0}";
},
{
name = ogonek;
position = "{723, 8}";
},
{
name = top;
position = "{785, 1464}";
},
{
name = topright;
position = "{1250, 1366}";
}
);
paths = (
{
closed = 1;
nodes = (
"1218 1366 LINE",
"1199 1370 OFFCURVE",
"1173 1372 OFFCURVE",
"1145 1372 CURVE SMOOTH",
"1119 1372 OFFCURVE",
"1093 1370 OFFCURVE",
"1074 1366 CURVE",
"915 466 LINE SMOOTH",
"873 224 OFFCURVE",
"737 96 OFFCURVE",
"544 96 CURVE SMOOTH",
"355 96 OFFCURVE",
"261 224 OFFCURVE",
"303 466 CURVE SMOOTH",
"447 1278 LINE SMOOTH",
"457 1340 OFFCURVE",
"453 1372 OFFCURVE",
"389 1372 CURVE SMOOTH",
"331 1372 LINE",
"317 1360 LINE",
"159 464 LINE SMOOTH",
"102 138 OFFCURVE",
"263 -24 OFFCURVE",
"521 -24 CURVE SMOOTH",
"785 -24 OFFCURVE",
"1002 138 OFFCURVE",
"1059 464 CURVE SMOOTH"
);
}
);
};
layerId = "1023D002-3304-4399-867A-B886C920D2C0";
paths = (
{
closed = 1;
nodes = (
"813 -24 OFFCURVE",
"998 120 OFFCURVE",
"1057 454 CURVE SMOOTH",
"1218 1366 LINE",
"1199 1370 OFFCURVE",
"1171 1372 OFFCURVE",
"1146 1372 CURVE SMOOTH",
"1120 1372 OFFCURVE",
"1093 1370 OFFCURVE",
"1074 1366 CURVE",
"916 472 LINE SMOOTH",
"898 368 OFFCURVE",
"836 96 OFFCURVE",
"559 96 CURVE SMOOTH",
"381 96 OFFCURVE",
"293 185 OFFCURVE",
"293 344 CURVE SMOOTH",
"293 401 OFFCURVE",
"302 456 OFFCURVE",
"309 498 CURVE SMOOTH",
"447 1279 LINE SMOOTH",
"450 1296 OFFCURVE",
"452 1309 OFFCURVE",
"452 1323 CURVE SMOOTH",
"452 1356 OFFCURVE",
"432 1372 OFFCURVE",
"387 1372 CURVE SMOOTH",
"330 1372 LINE",
"317 1360 LINE",
"166 503 LINE SMOOTH",
"156 447 OFFCURVE",
"148 388 OFFCURVE",
"148 333 CURVE SMOOTH",
"148 101 OFFCURVE",
"292 -24 OFFCURVE",
"537 -24 CURVE SMOOTH"
);
}
);
width = 1228;
},
{
anchors = (
{
name = bottom;
position = "{530, 0}";
},
{
name = ogonek;
position = "{706, 8}";
},
{
name = top;
position = "{788, 1464}";
},
{
name = topright;
position = "{1215, 1366}";
}
);
associatedMasterId = "1023D002-3304-4399-867A-B886C920D2C0";
background = {
anchors = (
{
name = bottom;
position = "{530, 0}";
},
{
name = ogonek;
position = "{706, 8}";
},
{
name = top;
position = "{788, 1464}";
},
{
name = topright;
position = "{1205, 1366}";
}
);
paths = (
{
closed = 1;
nodes = (
"1205 1366 LINE",
"1188 1370 OFFCURVE",
"1163 1372 OFFCURVE",
"1139 1372 CURVE SMOOTH",
"1116 1372 OFFCURVE",
"1092 1370 OFFCURVE",
"1075 1366 CURVE",
"916 466 LINE SMOOTH",
"873 224 OFFCURVE",
"737 96 OFFCURVE",
"547 96 CURVE SMOOTH",
"357 96 OFFCURVE",
"265 224 OFFCURVE",
"308 466 CURVE SMOOTH",
"452 1278 LINE SMOOTH",
"464 1348 OFFCURVE",
"453 1372 OFFCURVE",
"401 1372 CURVE SMOOTH",
"349 1372 LINE",
"336 1360 LINE",
"178 464 LINE SMOOTH",
"120 133 OFFCURVE",
"278 -24 OFFCURVE",
"524 -24 CURVE SMOOTH",
"782 -24 OFFCURVE",
"990 144 OFFCURVE",
"1046 464 CURVE SMOOTH"
);
}
);
};
layerId = "D246EB6E-1007-4EA5-ABAF-5B0920EEDAEF";
name = "Sep 14 20, 15:04";
paths = (
{
closed = 1;
nodes = (
"813 -24 OFFCURVE",
"995 120 OFFCURVE",
"1054 454 CURVE SMOOTH",
"1215 1366 LINE",
"1197 1370 OFFCURVE",
"1169 1372 OFFCURVE",
"1145 1372 CURVE SMOOTH",
"1120 1372 OFFCURVE",
"1093 1370 OFFCURVE",
"1075 1366 CURVE",
"917 472 LINE SMOOTH",
"897 358 OFFCURVE",
"847 96 OFFCURVE",
"553 96 CURVE SMOOTH",
"245 96 OFFCURVE",
"294 383 OFFCURVE",
"312 484 CURVE SMOOTH",
"453 1286 LINE SMOOTH",
"464 1348 OFFCURVE",
"447 1372 OFFCURVE",
"390 1372 CURVE SMOOTH",
"339 1372 LINE",
"326 1360 LINE",
"165 447 LINE SMOOTH",
"117 173 OFFCURVE",
"230 -24 OFFCURVE",
"544 -24 CURVE SMOOTH"
);
}
);
width = 1383;
}
);
leftKerningGroup = U;
rightKerningGroup = U;
rightMetricsKey = "=|";
unicode = 0055;
},
